<?xml version="1.0" standalone="no"?>
<!DOCTYPE svg PUBLIC "-//W3C//DTD SVG 1.1//EN" "http://www.w3.org/Graphics/SVG/1.1/DTD/svg11.dtd" >
<!--
2013-9-30: Created.
-->
<svg>
<metadata>
Created by iconfont
</metadata>
<defs>

<font id="iconfont" horiz-adv-x="1024" >
  <font-face
    font-family="iconfont"
    font-weight="500"
    font-stretch="normal"
    units-per-em="1024"
    ascent="896"
    descent="-128"
  />
    <missing-glyph />
    
    <glyph glyph-name="x" unicode="x" horiz-adv-x="1001"
d="M281 543q-27 -1 -53 -1h-83q-18 0 -36.5 -6t-32.5 -18.5t-23 -32t-9 -45.5v-76h912v41q0 16 -0.5 30t-0.5 18q0 13 -5 29t-17 29.5t-31.5 22.5t-49.5 9h-133v-97h-438v97zM955 310v-52q0 -23 0.5 -52t0.5 -58t-10.5 -47.5t-26 -30t-33 -16t-31.5 -4.5q-14 -1 -29.5 -0.5
t-29.5 0.5h-32l-45 128h-439l-44 -128h-29h-34q-20 0 -45 1q-25 0 -41 9.5t-25.5 23t-13.5 29.5t-4 30v167h911zM163 247q-12 0 -21 -8.5t-9 -21.5t9 -21.5t21 -8.5q13 0 22 8.5t9 21.5t-9 21.5t-22 8.5zM316 123q-8 -26 -14 -48q-5 -19 -10.5 -37t-7.5 -25t-3 -15t1 -14.5
t9.5 -10.5t21.5 -4h37h67h81h80h64h36q23 0 34 12t2 38q-5 13 -9.5 30.5t-9.5 34.5q-5 19 -11 39h-368zM336 498v228q0 11 2.5 23t10 21.5t20.5 15.5t34 6h188q31 0 51.5 -14.5t20.5 -52.5v-227h-327z" />
    

    
    <glyph glyph-name="icon-daohangshurukuang-xuanzexiala" unicode="&#58942;" d="M1024-128L0 896h2048z"  horiz-adv-x="2048" />

    
    <glyph glyph-name="icon-danchuangguanbi" unicode="&#58943;" d="M512.001726 263.586243l365.585635-365.585636a85.073387 85.073387 0 1 1 120.414184 120.414183L632.415909 384.000426l365.585636 365.585635A85.073387 85.073387 0 1 1 877.587361 870.000244L512.001726 504.414609 146.41609 870.000244A85.073387 85.073387 0 1 1 26.001907 749.586061L391.587543 384.000426 26.001907 18.41479a84.90307 84.90307 0 0 1 0-120.414183 85.073387 85.073387 0 0 1 120.414183 0L512.001726 263.586243z"  horiz-adv-x="1026" />

    
    <glyph glyph-name="icon-dengluzhuce-tongyixieyixuanze" unicode="&#58944;" d="M85.364364 896h853.271272c47.197091 0 85.364364-38.167273 85.364364-85.364364v-853.271272c0-47.197091-38.167273-85.364364-85.364364-85.364364H85.364364A85.364364 85.364364 0 0 0 0-42.635636V810.635636C0 857.832727 38.167273 896 85.364364 896z m750.126545-273.966545a60.881455 60.881455 0 0 1-86.388364 0L404.293818 276.014545l-129.396363 129.95491a60.881455 60.881455 0 0 1-86.388364 0 61.44 61.44 0 0 1 0-86.667637L361.192727 145.966545a60.881455 60.881455 0 0 1 86.388364 0l388.002909 389.399273a61.44 61.44 0 0 1 0 86.667637z"  horiz-adv-x="1024" />

    
    <glyph glyph-name="icon-contribute" unicode="&#58945;" d="M384.256 316.16c0.256 2.24 1.28 4.352 3.968 7.04L833.92 800a10.048 10.048 0 0 0 14.08 0l79.872-79.872c3.904-3.904 3.904-10.24-1.088-15.296l-446.08-477.056a10.112 10.112 0 0 0-5.632-2.56l-101.44-10.56 10.56 101.44z m-92.544 9.6l-12.16-116.48a84.288 84.288 0 0 1 88.768-88.832l116.48 12.224c23.424 2.496 45.504 12.992 62.144 29.632 0.384 0.384 0.768 0.704 1.088 1.152l445.76 476.736a103.168 103.168 0 0 1 0 145.728L913.92 865.792a103.424 103.424 0 0 1-146.816-1.088L321.344 387.968c-16.64-16.64-27.2-38.72-29.632-62.208z m685.696 135.808a46.528 46.528 0 0 1-46.528-46.528v-310.336a139.776 139.776 0 0 0-139.584-139.584H232.704a139.776 139.776 0 0 0-139.584 139.584V663.296c0 76.992 62.592 139.584 139.584 139.584h310.336a46.528 46.528 0 1 1 0 93.12H232.704A232.96 232.96 0 0 1 0 663.296v-558.592A232.96 232.96 0 0 1 232.704-128h558.592A232.96 232.96 0 0 1 1024 104.704V415.04a46.528 46.528 0 0 1-46.592 46.528z"  horiz-adv-x="1024" />

    
    <glyph glyph-name="icon-search" unicode="&#58946;" d="M93.10423 414.99347a388.286234 388.286234 0 0 0 387.774321 387.9023c213.851779 0 387.774321-174.05052 387.774321-387.9023a388.286234 388.286234 0 0 0-387.774321-387.902299 388.286234 388.286234 0 0 0-387.774321 387.902299m917.092668-463.34552l-158.05323 158.053229a478.958876 478.958876 0 0 1 109.613434 305.228302C961.757102 680.292535 746.113627 896 480.878551 896 215.707465 896 0 680.228546 0 414.99347c0-265.235076 215.707465-481.00653 480.878551-481.006529a478.638931 478.638931 0 0 1 305.548248 109.805402l157.925251-157.989241a46.392142 46.392142 0 0 1 65.908837 0 46.58411 46.58411 0 0 1 0 65.844848"  horiz-adv-x="1024" />

    
    <glyph glyph-name="icon-phone" unicode="&#58947;" d="M457.152 12.864a39.232 39.232 0 0 1 8.064-4.032 40.576 40.576 0 0 1 17.664-3.712c12.16 0 24.256 4.992 32.896 13.632a47.04 47.04 0 0 1 12.8 41.92 50.048 50.048 0 0 1-6.848 16.768 46.72 46.72 0 0 1-77.568 0c-1.6-2.56-3.2-4.992-4.352-7.808-0.96-3.072-1.92-5.888-2.56-8.96a47.04 47.04 0 0 1 19.84-47.808zM544.96 740.864h-124.16a46.528 46.528 0 1 1 0-93.12h124.16a46.528 46.528 0 1 1 0 93.12z m263.744-509.44H157.12V756.352c0 25.664 20.864 46.528 46.528 46.528h558.528c25.664 0 46.528-20.864 46.528-46.528v-524.928z m0-219.776a46.592 46.592 0 0 0-46.528-46.528H203.648a46.592 46.592 0 0 0-46.528 46.528v126.72h651.584v-126.72zM762.24 896H203.648A139.776 139.776 0 0 1 64 756.352v-744.704C64-65.344 126.656-128 203.648-128h558.528a139.776 139.776 0 0 1 139.648 139.648V756.352A139.776 139.776 0 0 1 762.176 896z"  horiz-adv-x="1024" />

    
    <glyph glyph-name="icon-dengluzhuce-yanjingdakai" unicode="&#58948;" d="M849.432576 534.016c-108.8512 20.3776-202.5472-72.2944-181.8624-179.9168a153.088 153.088 0 0 1 121.344-120.0128c108.9536-20.48 202.6496 72.192 181.9648 179.8144a153.1904 153.1904 0 0 1-121.4464 120.1152m13.6192-480.6656c-220.4672-27.4432-405.9136 155.9552-378.1632 373.9648 18.944 148.5824 140.288 268.5952 290.5088 287.3344 220.4672 27.4432 405.9136-155.9552 378.1632-373.9648-18.944-148.5824-140.288-268.5952-290.5088-287.3344M819.224576 896C463.077376 896 154.853376 696.32 5.144576 405.6064a47.5136 47.5136 0 0 1 0-43.2128C154.955776 71.5776 463.179776-128 819.224576-128c356.1472 0 664.3712 199.68 813.9776 490.3936a47.3088 47.3088 0 0 1 0 43.2128C1483.698176 696.4224 1175.474176 896 819.122176 896"  horiz-adv-x="1638" />

    
    <glyph glyph-name="icon-dengluzhuce-yanjingguanbi" unicode="&#58949;" d="M1627.97652 757.042454a67.993464 67.993464 0 0 1-89.90702 32.358335L43.13489 99.942968a66.559867 66.559867 0 0 1-32.767935-88.883022 67.788664 67.788664 0 0 1 90.00942-32.460735l1494.93461 689.457821a66.559867 66.559867 0 0 1 32.767935 88.985422z m-148.479703-191.590017l-295.01381-136.191728a49.049502 49.049502 0 0 1-28.159944-44.95351V384c0-184.114832-150.937298-333.311333-337.100125-333.311333-83.046234 0-159.026882 29.695941-217.804365 79.052642a48.844702 48.844702 0 0 1-51.814296 6.860786l-157.593285-72.703855a48.127904 48.127904 0 0 1-2.355195-86.425427A921.905356 921.905356 0 0 1 819.222938-127.998976c356.146488 0 664.369871 199.679601 813.975972 490.392619a47.308705 47.308705 0 0 1 0 43.212714 882.379035 882.379035 0 0 1-94.310212 145.407709 49.459101 49.459101 0 0 1-59.391881 14.335971zM454.065268 338.636891a49.049502 49.049502 0 0 1 28.057544 45.05591V384c0 184.114832 150.937298 333.413733 337.100126 333.413733 83.046234 0 159.026882-29.79834 217.804364-79.155042a48.844702 48.844702 0 0 1 51.814296-6.860786l157.593285 72.703855a48.127904 48.127904 0 0 1 2.355195 86.527827A921.495757 921.495757 0 0 1 819.222938 895.998976C463.07645 895.998976 154.853066 696.319375 5.144566 405.606357a47.513505 47.513505 0 0 1 0.1024-43.212714c26.623947-51.609497 58.367883-100.2494 94.310211-145.407709a49.561501 49.561501 0 0 1 59.391881-14.335971l295.11621 135.986928z"  horiz-adv-x="1638" />

    
    <glyph glyph-name="icon-guanzhu" unicode="&#58950;" d="M974.366754 84.999485h-71.773182v71.773181a45.832823 45.832823 0 1 1-91.59278 0v-71.773181h-71.773181a45.832823 45.832823 0 1 1 0-91.665647h71.773181v-71.773181a45.832823 45.832823 0 1 1 91.59278 0v71.773181h71.773182a45.832823 45.832823 0 1 1 0 91.665647M503.869869 425.430249a189.670651 189.670651 0 0 0-189.452052 189.452052c0 104.490093 84.961959 189.452052 189.452052 189.452052 104.490093 0 189.452052-84.961959 189.452052-189.452052 0-104.490093-84.961959-189.452052-189.452052-189.452052m310.919964-164.458954a45.832823 45.832823 0 0 1-9.254004 64.122233 502.120804 502.120804 0 0 1-127.880135 69.222865 280.534769 280.534769 0 0 1 107.331874 220.565908A281.409163 281.409163 0 0 1 503.869869 896a281.409163 281.409163 0 0 1-281.117699-281.117699c0-89.625394 42.262381-169.340988 107.841938-220.857373C137.935944 323.126141 0.073143 138.41039 0.073143-78.439343a45.832823 45.832823 0 1 1 91.665647 0 412.641143 412.641143 0 0 0 412.131079 412.203945c89.843992 0 175.097416-28.344942 246.724865-81.974445a45.90569 45.90569 0 0 1 64.122233 9.181138"  horiz-adv-x="1025" />

    
    <glyph glyph-name="icon-jibenxinxihuodongrili" unicode="&#58951;" d="M930.389333-40.448H207.36c-66.048 0-119.808 53.76-119.808 119.808V384.682667h962.730667V79.36c0-66.048-53.76-119.808-119.893334-119.808M207.36 720.981333h93.354667v-43.776a43.776 43.776 0 1 1 87.466666 0v43.776h361.386667v-43.776a43.776 43.776 0 0 1 87.552 0v43.776h93.269333c66.048 0 119.893333-53.76 119.893334-119.893333v-128.853333H87.552v128.853333c0 66.048 53.76 119.893333 119.808 119.893333m723.029333 87.466667H837.12V852.224a43.776 43.776 0 1 1-87.552 0v-43.776H388.181333V852.224a43.776 43.776 0 1 1-87.466666 0v-43.776H207.36C93.013333 808.448 0 715.434667 0 601.088V79.36C0-34.986667 93.013333-128 207.36-128h723.029333c114.346667 0 207.36 93.013333 207.36 207.36V601.088c0 114.346667-93.013333 207.36-207.36 207.36"  horiz-adv-x="1194" />

    
    <glyph glyph-name="icon-tishi-cuowujingshi" unicode="&#58952;" d="M490.584276 614.541241a21.415724 21.415724 0 0 0 42.831448 0v-360.218482a21.415724 21.415724 0 0 0-42.831448 0V614.541241z m48.180965-463.501241a26.765241 26.765241 0 1 0-53.530482 0v2.418759a26.765241 26.765241 0 1 0 53.530482 0v-2.418759zM988.689655 384C988.689655 647.256276 775.256276 860.689655 512 860.689655S35.310345 647.256276 35.310345 384s213.433379-476.689655 476.689655-476.689655 476.689655 213.433379 476.689655 476.689655z m35.310345 0c0-282.765241-229.234759-512-512-512S0 101.234759 0 384 229.234759 896 512 896s512-229.234759 512-512z"  horiz-adv-x="1024" />

    
    <glyph glyph-name="icon-xingbiexuanze" unicode="&#58953;" d="M512-128A512 512 0 1 0 512 896a512 512 0 0 0 0-1024z m0 307.2a204.8 204.8 0 1 1 0 409.6 204.8 204.8 0 0 1 0-409.6z"  horiz-adv-x="1024" />

    
    <glyph glyph-name="QQ" unicode="&#58954;" d="M941.124267 264.123733s-29.149867 108.7488-82.7392 175.035734c0 0 29.218133 54.8864-19.524267 130.525866 0 0-11.6736 326.314667-330.205867 326.314667-318.532267 0-330.205867-326.314667-330.205866-326.314667-48.7424-75.639467-19.524267-130.525867-19.524267-130.525866C105.403733 372.872533 76.117333 264.123733 76.117333 264.123733c-27.2384-132.642133 24.3712-156.4672 32.1536-158.5152 7.850667-2.048 25.3952 18.6368 31.197867 27.989334 5.870933 9.284267 18.500267 39.3216 21.435733 41.437866 2.935467 2.048 7.7824-15.5648 7.7824-15.5648 20.48-67.3792 64.3072-116.053333 64.3072-116.053333-43.8272-16.520533-74.069333-48.674133-74.069333-48.674133s-55.5008-84.923733 92.5696-101.512534c148.0704-16.5888 245.486933 35.2256 245.486933 35.2256h23.3472s97.416533-51.8144 245.486934-35.2256 92.5696 101.512533 92.5696 101.512534-30.242133 32.085333-74.069334 48.674133c0 0 43.8272 48.674133 64.3072 116.053333 0 0 4.846933 17.6128 7.7824 15.5648 2.935467-2.048 15.5648-32.1536 21.435734-41.437866 5.870933-9.352533 23.3472-30.037333 31.197866-27.989334 7.7824 2.048 59.392 25.941333 32.085334 158.5152"  horiz-adv-x="1024" />

    
    <glyph glyph-name="icon-saomachenggong" unicode="&#58955;" d="M800.312889 494.307556l-274.033778-274.033778a108.999111 108.999111 0 0 0-77.596444-32.085334 109.397333 109.397333 0 0 0-77.937778 32.256l-105.984 105.984a38.001778 38.001778 0 0 0 53.646222 53.646223l105.984-106.040889a34.190222 34.190222 0 0 1 48.298667-0.113778l273.976889 273.976889a37.944889 37.944889 0 0 0 53.646222-53.589333M512 896C229.660444 896 0 666.282667 0 384c0-282.339556 229.660444-512 512-512s512 229.660444 512 512c0 282.282667-229.660444 512-512 512"  horiz-adv-x="1024" />

    
    <glyph glyph-name="icon-shouyesousuoguanbi" unicode="&#58956;" d="M577.792932 384.04454L1010.292905 816.544513a46.587947 46.587947 0 0 1-65.837473 65.837472L511.95546 449.882012 79.455487 882.381985a46.587947 46.587947 0 0 1-65.837472-65.837472L446.117988 384.04454 13.618015-48.455432a46.587947 46.587947 0 0 1 65.837472-65.837473L511.95546 318.207068l432.499972-432.499973a46.383165 46.383165 0 0 1 65.837473 0 46.587947 46.587947 0 0 1 0 65.837473L577.792932 384.04454z"  horiz-adv-x="1024" />

    
    <glyph glyph-name="watch" unicode="&#58957;" d="M861.866667 371.484444a93.411556 93.411556 0 0 0-158.378667-53.475555 93.411556 93.411556 0 0 0 53.475556 158.492444 92.956444 92.956444 0 0 0 104.903111-104.903111M739.441778 615.196444a232.106667 232.106667 0 0 1-201.386667-201.386666c-9.102222-72.476444 15.132444-143.36 66.446222-194.787556a232.106667 232.106667 0 0 1 194.901334-66.446222 232.106667 232.106667 0 0 1 201.386666 201.386667 232.675556 232.675556 0 0 1-66.56 194.787555 232.106667 232.106667 0 0 1-194.787555 66.446222m29.923555-603.363555c-264.419556 0-502.897778 142.222222-625.777777 372.053333 122.88 229.831111 361.472 372.053333 625.777777 372.053334 264.419556 0 502.897778-142.222222 625.777778-372.053334-122.88-229.831111-361.358222-372.053333-625.777778-372.053333m757.418667 422.456889C1381.831111 719.075556 1091.697778 896 769.365333 896 447.146667 896 157.013333 719.075556 12.060444 434.403556a111.502222 111.502222 0 0 1 0-100.807112C156.899556 48.924444 447.146667-128 769.365333-128c322.332444 0 612.465778 176.924444 757.418667 461.596444a111.274667 111.274667 0 0 1 0 100.807112"  horiz-adv-x="1592" />

    
    <glyph glyph-name="icon-tishi-chenggong" unicode="&#58958;" d="M278.510345 340.691862a17.655172 17.655172 0 0 0 24.964414 24.964414l106.284138-106.284138a54.589793 54.589793 0 0 1 77.223724-0.158897l274.732138 274.767449a17.655172 17.655172 0 1 0 24.964413-24.964414L511.947034 234.248828a89.900138 89.900138 0 0 0-127.152551 0.158896l-106.284138 106.284138zM988.689655 384C988.689655 647.256276 775.256276 860.689655 512 860.689655S35.310345 647.256276 35.310345 384s213.433379-476.689655 476.689655-476.689655 476.689655 213.433379 476.689655 476.689655z m35.310345 0c0-282.765241-229.234759-512-512-512S0 101.234759 0 384 229.234759 896 512 896s512-229.234759 512-512z"  horiz-adv-x="1024" />

    
    <glyph glyph-name="weibo" unicode="&#58959;" d="M1103.02607 792.431527A312.831181 312.831181 0 0 1 804.527501 888.884151a45.118476 45.118476 0 0 1-35.027147-53.527916 45.849731 45.849731 0 0 1 54.11292-35.100273 222.667355 222.667355 0 0 0 212.064148-68.591783 221.570472 221.570472 0 0 0 46.215359-218.060444c-7.239431-23.692684 5.996297-48.84788 29.762106-56.745441a44.899099 44.899099 0 0 1 56.818567 29.030851 312.977432 312.977432 0 0 1-65.447384 306.542382M983.538892 684.717565a151.077424 151.077424 0 0 1-145.300504 46.946614 38.6103 38.6103 0 0 1-29.688981-46.288484c3.948781-21.133289 25.08207-34.369017 46.215359-29.688981a75.099959 75.099959 0 0 0 86.580673-96.452624 38.756551 38.756551 0 1 1 73.856824-23.76581 151.80868 151.80868 0 0 1-31.663371 149.249285m48.921005-412.208828c0 89.871323-75.319335 140.693593-143.326114 161.900008-16.526378 5.191915-27.787716 8.555691-19.158898 30.347111 18.500769 47.531619 20.475159 88.481937 0 117.585913-38.317798 54.844176-143.326114 52.13853-263.544548 1.31626 0 0.65813-37.659668-16.526378-28.445846 13.893858 18.500769 59.377961 15.868248 109.688352-13.162602 138.061073-65.374258 65.374258-239.120608-1.97439-388.369893-151.2968C64.716128 472.653417 0 354.482499 0 252.033578c0-196.195899 250.96695-315.098073 496.741985-315.098073 321.606249 0 535.644787 186.982078 535.644786 335.646357m-203.43533 2.559395c12.504472-128.774126-135.428552-248.33443-331.624452-268.224584-196.122774-19.085773-365.262213 69.396164-377.766685 198.17029-12.577598 128.847251 135.428552 248.407555 331.551326 268.29771 196.195899 19.085773 365.262213-69.396164 377.839811-198.17029M622.810464 169.401686c39.634058 88.481937-9.213822 179.669521-106.324576 204.751591-93.088848 23.76581-198.17029-22.449549-239.120608-104.350186-40.950318-83.875027-1.243135-177.037001 93.161974-207.457237 97.768885-31.663371 212.722278 17.184509 252.28321 107.055832m-114.880267 70.712424a28.080218 28.080218 0 0 0-33.637762-12.577598c-11.919468 5.265041-15.210118 17.769513-8.628817 29.688981a28.884599 28.884599 0 0 0 32.979631 12.577598c11.919468-4.606911 15.868248-17.842639 9.286948-29.688981m-62.083608-79.926246c-19.158899-30.493362-60.109217-43.655964-90.456328-29.762106-29.762106 13.893858-38.975928 48.921005-19.890154 78.609986 18.500769 29.103976 58.134827 42.266578 87.896933 29.68898 31.005241-13.162602 40.950318-48.189749 22.449549-78.53686"  horiz-adv-x="1243" />

    
    <glyph glyph-name="share" unicode="&#58960;" d="M1013.887638 679.999873a40.587583 40.587583 0 0 0 3.154917-15.689318c0-1.790629-0.85268-3.240185-1.023216-5.030813-0.42634-3.410721-0.682144-6.991979-2.046433-10.232164a40.246511 40.246511 0 0 0-9.379484-13.89869L814.957319 445.512785a40.502315 40.502315 0 0 0-57.385386 57.300117l120.91007 120.824802c-80.748827 0-196.969154-20.464328-300.825618-115.367647-170.877137-155.955231-154.164602-392.744556-153.994066-395.132062a40.587583 40.587583 0 0 0-80.834095-6.650906c-0.85268 11.25538-20.720132 278.314857 180.086084 461.641126 123.468111 112.724339 259.641158 136.684656 355.994035 136.599388L757.571933 826.149281A40.502315 40.502315 0 1 0 814.957319 883.278862l190.232979-190.23298c3.410721-3.495989 5.798226-7.588855 7.759391-11.766988l0.937949-1.364289z m-37.347398-275.927352c22.340224 0 40.502315-18.162091 40.502315-40.587583v-319.755121c0-94.732784-76.997033-171.729817-171.644549-171.729817H172.036355A171.815085 171.815085 0 0 0 0.391807 43.644549V687.247656C0.391807 781.809904 77.38884 858.806937 172.036355 858.806937h336.72346a40.502315 40.502315 0 1 0 0-81.004631H172.036355c-49.967067 0-90.55465-40.672851-90.55465-90.55465v-643.603107c0-49.881799 40.587583-90.55465 90.55465-90.55465H845.398006c49.967067 0 90.55465 40.672851 90.55465 90.55465V363.484938c0 22.425492 18.162091 40.587583 40.587584 40.587583z"  horiz-adv-x="1024" />

    
    <glyph glyph-name="logo" unicode="&#58961;" d="M2521.91747 787.863709c-10.44251 0-18.939847-3.634403-26.003899-11.107965-7.012862-7.396778-10.544888-16.815513-10.544888-28.000261 0-11.107965 3.532026-20.475511 10.544888-27.846694 7.064051-7.422373 15.638171-11.056776 26.208654-11.056776 10.365727 0 18.786281 3.634403 25.773549 11.107965 6.936079 7.422373 10.468105 16.841108 10.468105 28.025855 0 11.235937-3.506431 20.654671-10.468105 27.949072a34.066131 34.066131 0 0 1-25.978304 10.928804z m920.860501-100.227625h-25.773549V758.378973c0 9.469924-2.047551 16.892296-6.117059 22.011174-3.96713 5.042095-9.418735 7.473561-16.636353 7.473562-8.446148 0-14.307263-2.559439-17.890477-7.857477-3.736781-5.528388-5.630765-15.177472-5.630766-28.665715v-63.730028h-25.005717V749.216182c0 13.82097-1.919579 23.930753-5.733143 30.022218-3.634403 5.809926-9.316357 8.650903-17.352995 8.650903-8.369365 0-14.332858-2.866572-18.248799-8.778875-4.069508-6.091464-6.117059-15.868521-6.117059-29.049631V687.661678h-24.570613V809.695722h23.290893v-9.879434c3.071327 3.199299 6.398597 5.758737 9.981812 7.627128 5.221255 2.764194 11.261531 4.171885 17.916072 4.171885 8.881253 0 16.457192-1.766013 22.446278-5.221255 5.042095-2.91776 9.341952-7.217618 12.848383-12.848383 3.583214 5.528388 8.036638 9.802651 13.334677 12.746006 6.29622 3.532026 14.076914 5.323633 23.086138 5.323632 13.872159 0 25.159284-4.60699 33.554243-13.718592 8.369365-9.034819 12.618033-21.217748 12.618034-36.190465v-74.07016z m-231.2453 38.110044a64.318698 64.318698 0 0 0-33.451865-36.139276 59.276604 59.276604 0 0 0-24.698585-5.298039c-8.881253 0-17.199429 1.638041-24.698585 4.83734a60.914644 60.914644 0 0 0-20.321944 14.23048 66.238277 66.238277 0 0 0-13.309082 20.885021 66.54541 66.54541 0 0 0-0.435105 48.475771c2.866572 7.422373 7.217618 14.256074 12.899572 20.219567 6.040276 6.47538 13.001949 11.594258 20.654671 15.126284a61.247372 61.247372 0 0 0 69.232821-13.488243c5.963493-6.117059 10.596077-13.053138 13.795375-20.70586 3.199299-7.652722 4.811745-15.663766 4.811745-23.85397 0-8.292582-1.510069-16.482786-4.479018-24.314669z m-174.937644 3.480837c-5.042095-14.563207-12.669222-25.773549-22.676629-33.272705-10.058595-7.601533-22.39509-11.440692-36.727947-11.440692-9.009225 0-17.327401 1.612446-24.724179 4.734962a60.453945 60.453945 0 0 0-20.091595 14.128103 65.982333 65.982333 0 0 0-13.334677 20.885021 64.523453 64.523453 0 0 0-4.811745 24.289074c0 8.446148 1.484475 16.457192 4.376641 23.85397 2.892166 7.371184 7.243212 14.204886 12.899572 20.321945 6.219436 6.654541 13.360271 11.799013 21.140964 15.27985 7.831883 3.455242 16.303625 5.195661 25.184879 5.19566 13.897753 0 26.157465-3.890347 36.39522-11.594258 10.237755-7.678317 17.762506-18.60712 22.369496-32.479278l0.998181-2.943355H3009.900079l-0.614265 1.202936a37.111863 37.111863 0 0 1-13.513837 15.254256 37.367807 37.367807 0 0 1-19.758868 5.0165c-9.905028 0-18.095233-3.634403-25.005717-11.133559-6.910485-7.447967-10.365727-16.789919-10.365728-27.769912 0-11.107965 3.532026-20.475511 10.4937-27.846694 7.038457-7.422373 15.561388-11.056776 26.055087-11.056776 6.910485 0 13.283488 1.842796 18.863064 5.477199 5.605171 3.634403 10.033 8.881253 13.18111 15.586983l0.614266 1.279719h27.795505l-1.023775-2.968949z m-214.225032-41.590881h25.850333V718.374944h-25.850333V687.661678z m-89.273226 0l-37.035081 58.867093-37.44459-58.867093h-31.481098l53.338706 80.77589-52.033392 79.317009h31.685853l35.934521-58.099261 35.525012 58.099261h32.146551l-52.033391-79.317009 53.108356-80.77589h-31.711447z m-152.798499 38.110044c-2.968949-7.857477-7.217618-14.844745-12.59244-20.731454-6.142653-6.731324-13.18111-11.926985-20.859426-15.433417a59.302198 59.302198 0 0 0-24.724179-5.272444c-8.881253 0-17.199429 1.638041-24.698585 4.83734a60.812267 60.812267 0 0 0-20.321945 14.23048 66.110305 66.110305 0 0 0-13.309082 20.885021 66.443032 66.443032 0 0 0-0.460699 48.475771c2.91776 7.422373 7.268806 14.256074 12.925167 20.219567 6.040276 6.47538 13.001949 11.594258 20.680265 15.126284a61.272966 61.272966 0 0 0 69.207227-13.488243c5.963493-6.117059 10.596077-13.053138 13.795375-20.70586 3.199299-7.652722 4.811745-15.663766 4.811745-23.85397 0-8.292582-1.484475-16.482786-4.479018-24.314669z m-178.367293-38.135639h-25.850333v11.415098a55.539823 55.539823 0 0 0-37.188646-14.076914c-18.248799 0-33.579838 6.168248-45.660389 18.351177-12.029363 12.182929-18.172016 27.64194-18.172016 45.890738 0 8.497337 1.535663 16.687541 4.555801 24.314669 2.994543 7.678317 7.371184 14.486424 12.976355 20.321944 6.06587 6.373003 12.848383 11.184748 20.142784 14.23048 7.243212 3.071327 15.612577 4.60699 24.852151 4.60699 8.318176 0 16.09887-1.484475 23.111733-4.427829 5.477199-2.329089 10.647266-5.579577 15.356633-9.751462v11.210342h25.875927v-122.085233z m-210.820978 131.375996h25.440822V847.728983h-25.440822v-28.742498z m0-131.350401h25.440822V809.670128h-25.440822V687.661678z m-64.088348 0h-25.77355V752.287509c0 11.901391-2.175523 20.782643-6.47538 26.36222-4.223074 5.477199-10.647266 8.16461-19.707679 8.16461-9.828245 0-16.713136-3.14811-21.038587-9.649084-4.479018-6.654541-6.731324-18.069638-6.731324-33.861376V687.661678h-25.671172V809.695722h24.826557v-9.930622a41.974797 41.974797 0 0 0 11.363908 7.93426c5.605171 2.585033 12.029363 3.915941 19.195792 3.915941 15.970898 0 28.435366-4.811745 37.086268-14.332857 8.57412-9.418735 12.925166-23.03495 12.925167-40.387945v-69.258415z m-167.310518 38.110044c-2.968949-7.857477-7.192023-14.844745-12.566844-20.731454a64.44667 64.44667 0 0 0-20.885021-15.433417 59.276604 59.276604 0 0 0-24.698585-5.272444c-8.881253 0-17.225023 1.638041-24.724179 4.83734a60.914644 60.914644 0 0 0-20.29635 14.23048 66.110305 66.110305 0 0 0-13.309082 20.885021 66.54541 66.54541 0 0 0-0.460699 48.475771 61.93842 61.93842 0 0 0 12.899571 20.219567c6.040276 6.47538 13.001949 11.594258 20.680266 15.126284a61.272966 61.272966 0 0 0 69.232821-13.488243c5.963493-6.117059 10.596077-13.053138 13.795375-20.70586 3.173704-7.652722 4.811745-15.663766 4.811745-23.85397 0-8.292582-1.510069-16.482786-4.479018-24.314669z m-179.416663-38.135639h-24.826556v9.469924a41.462909 41.462909 0 0 0-10.877615-7.985449c-5.528388-2.7386-11.773419-4.146291-18.581526-4.146291-15.433416 0-27.590751 4.888528-36.088088 14.563207-8.471743 9.572301-12.7716 23.111733-12.7716 40.259973V809.695722h25.671172v-63.832405c0-12.13174 2.124334-21.294531 6.321814-27.232429 4.069508-5.758737 10.058595-8.548526 18.351176-8.548526 5.118878 0 9.725868 1.202936 13.718592 3.583215a25.850332 25.850332 0 0 1 9.521113 10.288944c1.433286 2.764194 2.50825 6.117059 3.14811 9.981811 0.63986 3.992725 0.972587 10.596077 0.972586 19.630896V809.695722h25.440822v-122.085233zM1636.377224 822.288161h-29.075225V687.661678h-27.027674V822.288161h-29.075225v25.440822h85.178124v-25.440822zM3537.60518 896H1456.37189a8.087827 8.087827 0 0 1-8.087826-8.062232v-243.837739c0-4.427829 3.608809-8.062232 8.087826-8.062232h2081.23329a8.087827 8.087827 0 0 1 8.087827 8.062232V887.937768a8.062232 8.062232 0 0 1-8.087827 8.062232z m-1636.249252-108.136291c-10.44251 0-18.939847-3.634403-26.003899-11.107965-7.012862-7.396778-10.570482-16.815513-10.570482-28.000261 0-11.107965 3.55762-20.475511 10.570482-27.846694 7.064051-7.422373 15.612577-11.056776 26.208654-11.056776a33.528649 33.528649 0 0 1 25.747955 11.107965c6.961674 7.422373 10.493699 16.841108 10.493699 28.025855 0 11.235937-3.532026 20.654671-10.493699 27.949072a34.091725 34.091725 0 0 1-25.978305 10.928804z m1251.821538 0c-10.44251 0-18.939847-3.634403-26.003899-11.107965-7.012862-7.396778-10.570482-16.815513-10.570482-28.000261 0-11.107965 3.55762-20.475511 10.570482-27.846694 7.064051-7.422373 15.612577-11.056776 26.208654-11.056776 10.340133 0 18.786281 3.634403 25.773549 11.107965 6.910485 7.422373 10.44251 16.841108 10.442511 28.025855 0 11.235937-3.506431 20.654671-10.442511 27.949072a34.066131 34.066131 0 0 1-25.978304 10.928804z m-813.645608-0.204755a36.855919 36.855919 0 0 1-26.899703-11.107965c-7.52475-7.447967-11.159153-16.354814-11.159153-27.130052 0-11.261531 3.762375-20.782643 11.159153-28.358582a36.855919 36.855919 0 0 1 27.309213-11.415097c9.725868 0 18.42796 3.839158 25.927115 11.466286 7.473561 7.601533 11.261531 16.636352 11.261531 26.797325 0 10.877615-3.762375 20.347539-11.184747 28.102638-7.499156 7.831883-16.124465 11.645447-26.413409 11.645447z m794.577788-403.213996h72.534497a7.064051 7.064051 0 0 1 7.038457 8.39496c-7.166429 33.835782-21.089776 76.092117-42.793817 122.341177a7.268806 7.268806 0 0 1-6.526569 4.171885h-64.190727a7.11524 7.11524 0 0 1-6.526569-9.725868c18.991036-49.39717 29.894246-90.527352 33.503055-119.116283a6.910485 6.910485 0 0 1 6.961673-6.065871z m-62.834223-386.500859a7.089646 7.089646 0 0 1-10.698455 6.117059l-20.987398-12.285307a7.089646 7.089646 0 0 0-10.67286 6.117059v99.255038c0 3.915941 3.173704 7.089646 7.089646 7.089646h45.097312a7.089646 7.089646 0 0 1 7.089646 7.089646v50.753672a7.089646 7.089646 0 0 1-7.089646 7.11524h-45.148501a7.089646 7.089646 0 0 0-7.089646 7.038457l-0.511888 73.302328a7.089646 7.089646 0 0 0 7.089646 7.166429h28.716904a7.089646 7.089646 0 0 1 7.11524 7.089645v47.93829a7.089646 7.089646 0 0 1-7.11524 7.089646h-161.500591a7.089646 7.089646 0 0 1-7.064051-7.089646v-47.93829c0-3.915941 3.173704-7.089646 7.089645-7.089645h28.205016c3.890347 0 7.064051-3.14811 7.089646-7.064051l0.511888-73.302329a7.089646 7.089646 0 0 0-7.11524-7.166429h-39.415358a7.089646 7.089646 0 0 1-7.089646-7.089645v-50.753672c0-3.915941 3.173704-7.089646 7.089646-7.089646h39.466546c3.941536 0 7.11524-3.173704 7.11524-7.089646v-214.020276c0-5.0165 5.170066-8.446148 9.828246-6.603352 51.803042 20.654671 93.240357 41.923608 120.012087 61.1194a6.987268 6.987268 0 0 1 2.892166 5.784331v54.516048z m467.327938-60.684295h-241.431866c-54.618425 0-81.902043 40.82305-81.902043 99.203849V311.526546a7.089646 7.089646 0 0 1-7.089645 7.11524h-110.055871a7.089646 7.089646 0 0 1-7.11524-7.11524v-47.93829c0-3.915941 3.199299-7.089646 7.11524-7.089645h19.707679c3.915941 0 7.089646-3.173704 7.089646-7.089646v-221.417054c0-45.122907-16.457192-74.684425-49.269198-88.633367a6.987268 6.987268 0 0 1-4.37664-6.373003v-51.137588c0-4.632584 4.530207-8.139016 9.009225-6.936079 39.005848 10.365727 66.95492 27.258024 83.847216 50.600105a7.140834 7.140834 0 0 0 11.875796-0.025594c21.601664-31.250748 57.254647-54.874369 107.061327-53.185139h255.534374a7.089646 7.089646 0 0 1 7.089646 7.089646v50.779266a7.089646 7.089646 0 0 1-7.089646 7.089646z m-182.129668 332.215162a7.089646 7.089646 0 0 0-7.089645-7.089646h-29.612708c13.155516 26.36222 25.415228 53.645838 36.702353 81.902043v-74.812397z m182.129668 187.734839h-135.957391a7.012862 7.012862 0 0 0-6.808107 8.958036c3.96713 13.897753 7.985449 28.998442 11.978173 44.278292a7.11524 7.11524 0 0 1-6.859296 8.906847h-78.370017a7.064051 7.064051 0 0 1-6.961674-5.605171c-2.559439-12.106146-7.499156-38.391583-9.290763-50.574512a6.987268 6.987268 0 0 0-6.987268-5.963492h-57.203458a7.089646 7.089646 0 0 1-7.089646-7.089646v-53.569055c0-3.915941 3.173704-7.089646 7.089646-7.089645h37.163052c4.709367 0 8.241393-4.37664 6.961674-8.906848-9.572301-33.503054-24.519424-72.432119-44.918152-116.7616a7.089646 7.089646 0 0 1-0.665454-2.943354v-56.307655c0-3.941536 3.173704-7.11524 7.11524-7.11524h101.609722c3.890347 0 7.064051-3.173704 7.064051-7.089645v-56.410033a7.089646 7.089646 0 0 0-7.089645-7.089645h-104.425105a7.089646 7.089646 0 0 1-7.089646-7.089646v-50.779266c0-3.915941 3.173704-7.089646 7.11524-7.089646h104.425105c3.890347 0 7.064051-3.173704 7.064051-7.089646v-86.406655c0-3.915941 3.173704-7.089646 7.089646-7.089645h76.194494a7.089646 7.089646 0 0 1 7.089646 7.089645v86.406655c0 3.915941 3.173704 7.089646 7.089645 7.089646h84.666237a7.089646 7.089646 0 0 1 7.089646 7.089646V119.722199a7.089646 7.089646 0 0 1-7.089646 7.089646h-84.666237a7.089646 7.089646 0 0 0-7.089645 7.089645v56.410032c0 3.915941 3.173704 7.089646 7.089645 7.089646h64.881775a7.089646 7.089646 0 0 1 7.089646 7.089645v50.779267a7.089646 7.089646 0 0 1-7.089646 7.089646h-64.881775a7.089646 7.089646 0 0 0-7.089645 7.089645v79.009877a7.089646 7.089646 0 0 1-7.089646 7.089646h-80.468757l12.310901 29.51033a7.089646 7.089646 0 0 0 6.552163 4.351046h160.451221a7.089646 7.089646 0 0 1 7.089646 7.11524v53.569055a7.089646 7.089646 0 0 1-7.089646 7.089645zM200.506439 19.264224v50.651295a7.038457 7.038457 0 0 1-8.958036 6.756919 657.519839 657.519839 0 0 0-184.35638-23.086139 7.038457 7.038457 0 0 1-7.192023-7.012862v-64.011566c0-4.223074 3.762375-7.550345 7.959855-7.166428 78.370017 7.371184 140.999486 19.758868 187.939594 37.111863 2.815383 1.023776 4.60699 3.736781 4.60699 6.756918zM638.324047 318.283464h-70.794078a6.987268 6.987268 0 0 1-6.398597-4.299857c-21.678447-50.574512-63.218139-87.123298-110.388597-109.671954a7.217618 7.217618 0 0 0-10.212161 6.577757v100.841891a7.140834 7.140834 0 0 1-7.140835 7.11524H354.48228a7.166429 7.166429 0 0 1-7.140835-7.11524v-340.507744c-1.893985-67.773941 31.071588-100.688324 98.845529-98.845528h107.291676c62.143175-1.842796 92.242176 27.309212 90.373785 87.558403v40.874238a7.140834 7.140834 0 0 1-7.11524 7.140835h-64.804991a7.140834 7.140834 0 0 1-7.140835-7.166429v-26.746136c0-26.36222-12.285306-39.54333-36.702353-39.54333h-42.358712c-30.15019-1.86839-45.19969 15.075095-45.19969 50.85605v140.717947c0 3.404054 2.457061 6.245031 5.784331 6.910485 101.149023 19.400546 172.890094 78.114073 199.047559 176.19177a7.319995 7.319995 0 0 1-7.038457 9.111602z m4.043914 150.23906h-98.666368a7.140834 7.140834 0 0 0-7.166428 7.166429v36.523192a7.140834 7.140834 0 0 1-7.11524 7.140835H436.384323a7.166429 7.166429 0 0 1-7.140835-7.166429v-36.523192a7.140834 7.140834 0 0 0-7.140834-7.140835h-98.691962a7.140834 7.140834 0 0 1-7.140834-7.140834v-112.79447c0-3.941536 3.199299-7.140834 7.166429-7.140834h76.066522a7.166429 7.166429 0 0 1 7.166429 7.166429V390.766772c0 3.941536 3.173704 7.140834 7.11524 7.140835h141.02508c3.96713 0 7.166429-3.199299 7.166429-7.166429v-42.179552c0-3.941536 3.173704-7.140834 7.140834-7.140835h73.25114a7.140834 7.140834 0 0 1 7.140834 7.166429v112.768876a7.140834 7.140834 0 0 1-7.166429 7.166428zM179.570229 299.036484c-5.272444 33.503054-12.694817 61.272966-22.267118 83.360923a7.140834 7.140834 0 0 1-6.654541 4.223074H100.330003a6.987268 6.987268 0 0 1-6.731325-9.213979c7.447967-22.983761 13.641809-49.883463 18.504743-80.673513a7.192023 7.192023 0 0 1 7.012863-6.142653h53.338705c4.402235 0 7.806288 4.095102 7.11524 8.446148z m128.227886-117.222299a7.140834 7.140834 0 0 1-7.11524 7.140835H135.547881c-24.49383-1.893985-55.46304 10.314539-53.569055 36.702353v176.422119c0 3.941536 3.199299 7.140834 7.166429 7.140834h98.666367a7.166429 7.166429 0 0 0 7.140835-7.166428v-100.150842c1.842796-20.731455-8.471743-31.045993-31.071588-31.045993h-29.68949a7.140834 7.140834 0 0 1-7.166429-7.166429v-45.020529c0-3.941536 3.224893-7.140834 7.166429-7.140835h55.104718c60.223596-3.787969 88.454206 26.36222 84.717426 90.373786V467.03805a7.140834 7.140834 0 0 1-7.140835 7.140834H181.029109a7.11524 7.11524 0 0 0-6.961673 8.702092c1.817202 7.93426 4.786151 19.374952 6.987268 27.488374a7.140834 7.140834 0 0 1-6.910485 8.958035H87.993507a7.038457 7.038457 0 0 1-7.012862-5.707548c-1.842796-9.981811-4.914123-25.338445-6.47538-33.656621a7.089646 7.089646 0 0 0-7.012863-5.784332H7.243212a7.140834 7.140834 0 0 1-7.166429-7.166428v-258.298569c-1.86839-60.274785 24.468235-89.426793 79.08666-87.532808h133.961029c3.941536 0 7.166429-3.199299 7.166429-7.140834v-139.745361c1.842796-26.413409-11.31272-39.568925-39.568924-39.568925H122.929848a7.140834 7.140834 0 0 1-7.166429-7.11524v-47.861506c0-3.941536 3.224893-7.140834 7.166429-7.140834h91.679099c65.879956-3.736781 96.951543 27.309212 93.189168 93.189168v216.016638z m2583.088058 150.23906c34.450047 8.113421 62.834224 24.647396 85.152531 49.473953a6.833702 6.833702 0 0 0 5.067688 2.303495h99.997276a7.089646 7.089646 0 0 1 7.089646 7.089646v50.753672a7.089646 7.089646 0 0 1-7.089646 7.089646h-57.024297a7.064051 7.064051 0 0 0-6.910485 8.702092c3.941536 15.842926 7.422373 36.011305 10.365727 53.671432a7.064051 7.064051 0 0 1-7.012862 8.190204h-72.918413a7.012862 7.012862 0 0 1-6.910485-6.219436c-6.29622-52.673251-25.082501-99.79252-56.307654-127.306488a6.680135 6.680135 0 0 1-2.303495-5.067689v-41.64207c0-4.555801 4.351046-8.113421 8.804469-7.064051z m-1262.571181-295.615186a6.603352 6.603352 0 0 1-4.043913-6.014681v-52.058986c0-4.658179 4.786151-7.883072 9.137196-6.270626 81.210994 30.32935 143.021443 67.978696 185.431344 95.031965a6.193842 6.193842 0 0 0 6.859297 0c42.230741-26.950891 103.529301-64.369887 177.113167-92.216582a6.756919 6.756919 0 0 1 9.137197 6.29622v52.058986a6.552163 6.552163 0 0 1-3.941536 5.989087c-49.729897 22.011174-91.627911 53.3643-119.295444 75.605823a6.347408 6.347408 0 0 0-0.281538 9.674679c50.344162 48.271017 90.706513 125.97558 121.035862 217.42433a6.731324 6.731324 0 0 1-6.347408 8.830064h-83.744839c-2.815383 0-5.298038-1.791607-6.219436-4.479018-21.678447-63.934782-50.267379-125.105371-85.690013-167.950377a6.782513 6.782513 0 0 0-10.391321 0c-35.473822 42.845006-64.03716 104.015595-85.690013 167.950377a6.577758 6.577758 0 0 1-6.245031 4.479018h-83.69365a6.731324 6.731324 0 0 1-6.373003-8.830064c30.32935-91.44875 70.640512-169.178908 121.061458-217.42433a6.347408 6.347408 0 0 0-0.307133-9.674679c-27.846695-22.318307-70.307785-53.952971-127.511243-78.395612z m-249.647665 162.473178h-413.605317a46.607381 46.607381 0 0 0-46.632976 46.607381v153.79668c0 3.915941 3.173704 7.089646 7.089646 7.089646h279.516316c3.915941 0 7.089646-3.173704 7.089646-7.089646v-57.868912c0-26.387814-12.259712-39.54333-36.702353-39.54333h-28.256205v-60.684295c0-3.915941 3.173704-7.089646 7.089645-7.089646h63.525273c63.985971-1.893985 95.031964 29.177603 93.189168 93.189168v142.586338a7.089646 7.089646 0 0 1-7.089646 7.089646h-218.780832a7.11524 7.11524 0 0 0-6.936079 8.676498c1.612446 7.294401 3.915941 14.460829 6.910485 24.007536a7.11524 7.11524 0 0 1-6.756919 9.21398h-109.441605a7.294401 7.294401 0 0 1-6.808107-5.170067c-3.992725-12.925166-6.910485-21.499286-8.753281-30.841238a7.166429 7.166429 0 0 0-6.961674-5.886709h-128.125508a7.089646 7.089646 0 0 1-7.089646-7.089646v-245.578157c0-65.931145 31.071588-97.92413 93.163574-96.004551h369.864507c3.915941 0 7.089646-3.173704 7.089646-7.089645v-138.721585c1.86839-32.01858-14.102508-47.06808-48.015073-45.174096h-114.330133a7.089646 7.089646 0 0 1-7.064051-7.089646v-50.779266c0-3.915941 3.14811-7.089646 7.064051-7.089646h156.71444c75.247502-1.842796 111.975449 31.071588 110.132654 98.845528v220.623629a7.089646 7.089646 0 0 1-7.089646 7.064051zM1220.596384 15.297094v56.435627a7.089646 7.089646 0 0 1-7.089645 7.089645H774.87011a7.089646 7.089646 0 0 1-7.089646-7.089645v-56.435627c0-3.890347 3.173704-7.064051 7.089646-7.064051h438.636629a7.089646 7.089646 0 0 1 7.089645 7.064051z m1451.457768 189.142531a7.038457 7.038457 0 0 0-7.038457-7.012863h-66.033522v159.581012c0 3.890347 3.122515 7.038457 7.012863 7.038457h59.020659c3.890347 0 7.038457-3.14811 7.038457-7.038457v-152.542555z m128.842151-7.012863h-29.894245a7.038457 7.038457 0 0 0-7.012863 7.038457v223.131878a7.038457 7.038457 0 0 1-7.038456 7.038457h-150.955703a7.038457 7.038457 0 0 0-7.038457 7.038457v70.640512a7.038457 7.038457 0 0 1-7.012863 7.038457h-90.424974a7.038457 7.038457 0 0 1-7.038457-7.038457v-70.640512a7.038457 7.038457 0 0 0-7.038457-7.038457h-87.583997a7.038457 7.038457 0 0 1-7.038457-7.038457v-56.538004c0-3.864753 3.14811-7.012862 7.038457-7.012862h87.583997c3.890347 0 7.038457-3.14811 7.038457-7.038457v-159.581012h-122.853064a7.038457 7.038457 0 0 1-7.038457-7.038457v-56.538004c0-3.864753 3.14811-7.012862 7.012862-7.012862h104.834615a7.166429 7.166429 0 0 0 6.884891-9.188386c-20.577888-65.137719-71.280372-124.209567-152.081856-173.606736a6.987268 6.987268 0 0 1-3.378459-5.88671v-56.69157c0-4.888528 4.990906-8.343771 9.597895-6.654541 102.479931 36.983891 172.762122 89.631548 210.846572 154.590106a6.808107 6.808107 0 0 0 11.645447 0.435105c43.51046-63.474083 121.13824-114.739643 232.806557-153.873464a7.166429 7.166429 0 0 1 9.521112 6.654541v53.722622c0 2.559439-1.433286 4.888528-3.659997 6.117059-96.490844 53.236328-158.019754 111.463562-184.586729 174.681701-1.919579 4.60699 1.68923 9.700273 6.654541 9.700273h180.210088a7.038457 7.038457 0 0 1 7.038457 7.012862v56.563599a7.038457 7.038457 0 0 1-7.038457 7.012862z m-1761.098679 172.762122c-29.203197 0-52.929195-24.314669-52.929195-54.132131 0-29.843057 23.725998-54.080943 52.929195-54.080943 29.27998 0 52.980384 24.237886 52.980384 54.080943 0 2.431467-0.435105 4.683773-0.691048 6.961673-1.484475-0.127972-2.764194-0.870209-4.274263-0.870209a32.504873 32.504873 0 0 0-32.479279 32.504873c0 4.299857 0.946992 8.343771 2.50825 12.106146a50.497728 50.497728 0 0 1-18.044044 3.404054z m1002.864922 106.805383H1496.273542a6.654541 6.654541 0 0 1-6.628947-6.654541v-505.565955c-1.791607-63.346111 29.894246-94.136161 95.031965-92.395742H2042.688141a6.654541 6.654541 0 0 1 6.654541 6.654541v47.426402a6.654541 6.654541 0 0 1-6.654541 6.654541H1644.10673a51.521504 51.521504 0 0 0-51.49591 51.495909V401.721171a6.654541 6.654541 0 0 0 6.628947 6.654541h443.422779a6.654541 6.654541 0 0 1 6.654541 6.628946V470.36532a6.654541 6.654541 0 0 1-6.654541 6.628947z m338.869703-469.861783v56.563599a7.11524 7.11524 0 0 1-9.239574 6.705729c-17.045863-5.24685-32.65844-9.981811-46.786542-14.256074a6.961674 6.961674 0 0 0-8.932442 6.782513v249.033399c0 3.864753 3.14811 7.012862 7.038457 7.012863h45.225284a7.038457 7.038457 0 0 1 7.038457 7.038457v51.111993a7.038457 7.038457 0 0 1-7.038457 7.038457h-45.225284a7.038457 7.038457 0 0 0-7.038457 7.012863V512.340117a7.038457 7.038457 0 0 1-7.038457 7.038457h-84.768614a7.038457 7.038457 0 0 1-7.038457-7.038457v-121.13824a7.038457 7.038457 0 0 0-7.038457-7.012862h-48.040667a7.038457 7.038457 0 0 1-7.038457-7.038457v-51.111994c0-3.890347 3.14811-7.038457 7.038457-7.038457h48.040667c3.890347 0 7.038457-3.14811 7.038457-7.012862v-274.806949c0-3.583214-2.559439-6.526569-6.091464-6.910485-15.459011-1.68923-32.095363-3.96713-49.960247-6.859296a7.217618 7.217618 0 0 1-6.06587-7.012862v-73.174357c0-4.351046 3.992725-7.729505 8.292582-7.012862 79.649737 13.053138 150.802137 34.552424 213.585172 64.497859a7.11524 7.11524 0 0 1 4.043913 6.449786z"  horiz-adv-x="3557" />

    
    <glyph glyph-name="wechat" unicode="&#58962;" d="M1004.977231 290.500923c-26.742154 0-48.561231 21.740308-48.561231 48.561231 0 26.781538 21.819077 48.246154 48.561231 48.521846 26.781538 0 48.600615-21.740308 48.600615-48.521846 0-26.781538-21.819077-48.561231-48.600615-48.561231m-242.215385 0a48.561231 48.561231 0 1 0 0.118154 97.161846 48.561231 48.561231 0 0 0-0.118154-97.161846m494.119385-51.318154c0 177.624615-177.979077 322.717538-377.974154 322.717539-211.849846 0-378.486154-144.738462-378.486154-322.717539 0-178.176 166.912-322.756923 378.486154-322.756923 44.425846 0 89.088 11.303385 133.513846 22.331077L1134.276923-128l-33.319385 111.182769c89.324308 66.993231 155.884308 155.884308 155.884308 256M294.675692 596.676923c-34.264615 0-61.794462 27.569231-61.794461 61.833846 0 34.146462 27.569231 61.755077 61.794461 61.755077s61.755077-27.569231 61.755077-61.755077c0-34.264615-27.569231-61.833846-61.755077-61.833846m315.313231 123.588923c34.185846 0 61.755077-27.569231 61.755077-61.755077 0-34.264615-27.569231-61.833846-61.755077-61.833846-34.264615 0-61.833846 27.569231-61.833846 61.833846 0 34.146462 27.569231 61.755077 61.833846 61.755077m241.348923-134.340923c14.336 0 28.672-1.102769 42.732308-2.520615C855.473231 762.761846 663.748923 896 445.046154 896 200.310154 896 0 729.166769 0 517.513846c0-122.171077 66.481231-222.680615 178.018462-300.347077L133.513846 83.337846l155.332923 77.981539c55.689846-10.909538 100.352-22.252308 155.844923-22.252308 14.020923 0 27.844923 0.512 42.180923 1.575385a327.443692 327.443692 0 0 0-13.824 93.262769c0 194.520615 166.912 352.019692 378.249847 352.019692"  horiz-adv-x="1260" />

    
    <glyph glyph-name="weChatSmall" unicode="&#58963;" d="M1004.965647 290.514824a48.609882 48.609882 0 0 0-48.549647 48.549647 48.609882 48.609882 0 1 0 48.549647-48.549647m-242.206118 0a48.549647 48.549647 0 1 0 0.120471 97.159529 48.549647 48.549647 0 0 0-0.120471-97.159529m494.110118-51.320471c0 177.694118-177.935059 322.740706-377.976471 322.740706-211.847529 0-378.458353-144.805647-378.458352-322.740706 0-178.176 166.851765-322.800941 378.458352-322.800941 44.453647 0 89.148235 11.324235 133.541648 22.347294L1134.351059-128l-33.370353 111.194353c89.328941 66.981647 155.888941 155.888941 155.888941 256M294.671059 596.630588a61.620706 61.620706 0 0 0-61.801412 61.801412c0 34.153412 27.527529 61.741176 61.801412 61.741176 34.213647 0 61.741176-27.587765 61.741176-61.741176 0-34.213647-27.527529-61.801412-61.741176-61.801412m315.331765 123.542588c34.153412 0 61.741176-27.587765 61.741176-61.741176 0-34.213647-27.587765-61.801412-61.741176-61.801412A61.680941 61.680941 0 0 0 548.141176 658.492235c0 34.153412 27.587765 61.741176 61.861648 61.741177m241.302588-134.324706c14.336 0 28.672-1.084235 42.767059-2.469647C855.521882 762.759529 663.792941 896 445.018353 896 200.342588 896 0 729.148235 0 517.481412 0 395.324235 66.499765 294.851765 177.995294 217.148235l-44.453647-133.842823 155.407059 78.064941c55.657412-10.962824 100.291765-22.287059 155.76847-22.287059 14.034824 0 27.888941 0.481882 42.164706 1.566118a327.439059 327.439059 0 0 0-13.793882 93.244235c0 194.56 166.912 352.015059 378.277647 352.015059"  horiz-adv-x="1264" />

    
    <glyph glyph-name="weixin" unicode="&#58964;" d="M1004.982857 290.523429a48.64 48.64 0 0 0-48.566857 48.566857 48.64 48.64 0 1 0 48.566857-48.566857m-242.249143 0a48.566857 48.566857 0 1 0 0.146286 97.133714 48.566857 48.566857 0 0 0-0.146286-97.133714m494.153143-51.346286c0 177.664-177.956571 322.706286-378.002286 322.706286-211.821714 0-378.441143-144.749714-378.441142-322.706286 0-178.176 166.912-322.779429 378.441142-322.779429 44.470857 0 89.088 11.337143 133.558858 22.381715l121.929142-66.779429-33.353142 111.177143c89.307429 66.998857 155.867429 155.867429 155.867428 256M294.765714 596.699429a61.659429 61.659429 0 0 0-61.805714 61.805714c0 34.157714 27.501714 61.732571 61.805714 61.732571 34.230857 0 61.732571-27.574857 61.732572-61.732571a61.659429 61.659429 0 0 0-61.732572-61.805714m315.245715 123.611428c34.230857 0 61.805714-27.648 61.805714-61.805714a61.732571 61.732571 0 1 0-61.732572 61.732571m241.371429-134.290285c14.262857 0 28.598857-1.097143 42.715429-2.56C855.478857 762.733714 663.698286 896 445.001143 896 200.338286 896 0 729.161143 0 517.485714c0-122.148571 66.56-222.646857 177.956571-300.324571l-44.397714-133.851429 155.355429 78.043429c55.661714-10.971429 100.352-22.308571 155.794285-22.308572 14.043429 0 27.867429 0.512 42.203429 1.609143a327.460571 327.460571 0 0 0-13.824 93.257143c0 194.56 166.912 352.036571 378.221714 352.036572"  horiz-adv-x="1316" />

    
    <glyph glyph-name="fanye-xiangyou" unicode="&#58965;" d="M921.6 408.3712L433.9712-79.36H102.4l487.6288 487.7312L102.4 896h331.4688z"  horiz-adv-x="1024" />

    
    <glyph glyph-name="fanye-xiangzuo" unicode="&#58966;" d="M129.2288 384l487.6288-487.6288h331.5712L460.8 384 948.4288 871.6288H616.96z"  horiz-adv-x="1024" />

    
    <glyph glyph-name="gerenzhongxin-guanzhumoren" unicode="&#58967;" d="M974.366754 84.999485h-71.773182v71.773181a45.832823 45.832823 0 1 1-91.59278 0v-71.773181h-71.773181a45.832823 45.832823 0 1 1 0-91.665647h71.773181v-71.773181a45.832823 45.832823 0 1 1 91.59278 0v71.773181h71.773182a45.832823 45.832823 0 1 1 0 91.665647M503.869869 425.430249a189.670651 189.670651 0 0 0-189.452052 189.452052c0 104.490093 84.961959 189.452052 189.452052 189.452052 104.490093 0 189.452052-84.961959 189.452052-189.452052 0-104.490093-84.961959-189.452052-189.452052-189.452052m310.919964-164.458954a45.832823 45.832823 0 0 1-9.254004 64.122233 502.120804 502.120804 0 0 1-127.880135 69.222865 280.534769 280.534769 0 0 1 107.331874 220.565908A281.409163 281.409163 0 0 1 503.869869 896a281.409163 281.409163 0 0 1-281.117699-281.117699c0-89.625394 42.262381-169.340988 107.841938-220.857373C137.935944 323.126141 0.073143 138.41039 0.073143-78.439343a45.832823 45.832823 0 1 1 91.665647 0 412.641143 412.641143 0 0 0 412.131079 412.203945c89.843992 0 175.097416-28.344942 246.724865-81.974445a45.90569 45.90569 0 0 1 64.122233 9.181138"  horiz-adv-x="1025" />

    
    <glyph glyph-name="gerenzhongxin-jifenmoren" unicode="&#58968;" d="M695.588571 582.436571H401.627429a47.030857 47.030857 0 1 1 0-94.061714h293.814857a47.030857 47.030857 0 1 1 0 94.061714m300.397714-64.219428l-428.982857-473.965714c-8.777143-9.362286-26.550857-8.557714-33.938286-0.731429l-432.420571 476.891429a23.844571 23.844571 0 0 0-2.925715 28.818285l148.48 241.371429a23.478857 23.478857 0 0 0 20.333715 11.337143h564.224c8.045714 0 16.091429-4.461714 20.260571-11.337143l148.699429-242.761143a24.283429 24.283429 0 0 0-3.657143-29.622857m83.894857 78.701714L931.108571 839.68A118.710857 118.710857 0 0 1 830.683429 896H266.459429C225.28 896 187.757714 875.081143 166.034286 839.899429l-148.48-241.371429A117.76 117.76 0 0 1 31.597714 456.411429l432.420572-476.891429c22.162286-23.405714 53.394286-36.790857 85.577143-36.790857 32.256 0 63.414857 13.385143 86.308571 37.595428l429.056 473.965715c36.498286 38.619429 42.642286 97.28 14.921143 142.628571"  horiz-adv-x="1097" />

    
    <glyph glyph-name="gerenzhongxin-gerenmoren" unicode="&#58969;" d="M333.238857 630.710857A178.980571 178.980571 0 0 0 512 809.545143a178.980571 178.980571 0 0 0 178.761143-178.834286A178.980571 178.980571 0 0 0 512 452.022857a178.980571 178.980571 0 0 0-178.761143 178.761143m342.308572-208.384a264.630857 264.630857 0 0 1 101.668571 208.457143C777.289143 776.923429 658.285714 896 512 896S246.710857 776.996571 246.710857 630.710857c0-84.553143 39.936-159.744 101.668572-208.384C166.765714 355.474286 36.571429 181.101714 36.571429-23.405714a43.227429 43.227429 0 0 1 86.454857 0A389.412571 389.412571 0 0 0 512 365.494857a389.412571 389.412571 0 0 0 388.973714-388.973714 43.227429 43.227429 0 1 1 86.454857 0c0 204.580571-130.194286 378.88-311.881142 445.805714"  horiz-adv-x="1024" />

    
    <glyph glyph-name="gerenzhongxin-gerenxuanzhong" unicode="&#58970;" d="M333.238857 630.710857A178.980571 178.980571 0 0 0 512 809.545143a178.980571 178.980571 0 0 0 178.761143-178.834286A178.980571 178.980571 0 0 0 512 452.022857a178.980571 178.980571 0 0 0-178.761143 178.761143m342.308572-208.384a264.630857 264.630857 0 0 1 101.668571 208.457143C777.289143 776.923429 658.285714 896 512 896S246.710857 776.996571 246.710857 630.710857c0-84.553143 39.936-159.744 101.668572-208.384C166.765714 355.474286 36.571429 181.101714 36.571429-23.405714a43.227429 43.227429 0 0 1 86.454857 0A389.412571 389.412571 0 0 0 512 365.494857a389.412571 389.412571 0 0 0 388.973714-388.973714 43.227429 43.227429 0 1 1 86.454857 0c0 204.580571-130.194286 378.88-311.881142 445.805714"  horiz-adv-x="1024" />

    
    <glyph glyph-name="gerenzhongxin-xiaoximoren" unicode="&#58971;" d="M695.04-44.617143h-365.714286a41.545143 41.545143 0 0 1 0-83.163428h365.714286a41.545143 41.545143 0 1 1 0 83.090285z m98.523429 170.861714H230.802286v306.468572A281.673143 281.673143 0 0 0 512.182857 714.093714a281.746286 281.746286 0 0 0 281.380572-281.380571v-306.468572z m189.074285 0h-105.984v306.468572a364.836571 364.836571 0 0 1-322.925714 361.910857V854.454857a41.545143 41.545143 0 1 1-83.090286 0v-59.830857a364.836571 364.836571 0 0 1-322.925714-361.910857v-306.468572H41.728a41.545143 41.545143 0 0 1 0-83.163428h940.909714a41.545143 41.545143 0 1 1 0 83.163428z"  horiz-adv-x="1028" />

    
    <glyph glyph-name="gerenzhongxin-guanzhuxuanzhong" unicode="&#58972;" d="M974.366754 84.999485h-71.773182v71.773181a45.832823 45.832823 0 1 1-91.59278 0v-71.773181h-71.773181a45.832823 45.832823 0 1 1 0-91.665647h71.773181v-71.773181a45.832823 45.832823 0 1 1 91.59278 0v71.773181h71.773182a45.832823 45.832823 0 1 1 0 91.665647M503.869869 425.430249a189.670651 189.670651 0 0 0-189.452052 189.452052c0 104.490093 84.961959 189.452052 189.452052 189.452052 104.490093 0 189.452052-84.961959 189.452052-189.452052 0-104.490093-84.961959-189.452052-189.452052-189.452052m310.919964-164.458954a45.832823 45.832823 0 0 1-9.254004 64.122233 502.120804 502.120804 0 0 1-127.880135 69.222865 280.534769 280.534769 0 0 1 107.331874 220.565908A281.409163 281.409163 0 0 1 503.869869 896a281.409163 281.409163 0 0 1-281.117699-281.117699c0-89.625394 42.262381-169.340988 107.841938-220.857373C137.935944 323.126141 0.073143 138.41039 0.073143-78.439343a45.832823 45.832823 0 1 1 91.665647 0 412.641143 412.641143 0 0 0 412.131079 412.203945c89.843992 0 175.097416-28.344942 246.724865-81.974445a45.90569 45.90569 0 0 1 64.122233 9.181138"  horiz-adv-x="1025" />

    
    <glyph glyph-name="gerenzhongxin-jifenxuanzhong" unicode="&#58973;" d="M695.588571 582.436571H401.627429a47.030857 47.030857 0 1 1 0-94.061714h293.814857a47.030857 47.030857 0 1 1 0 94.061714m300.397714-64.219428l-428.982857-473.965714c-8.777143-9.362286-26.550857-8.557714-33.938286-0.731429l-432.420571 476.891429a23.844571 23.844571 0 0 0-2.925715 28.818285l148.48 241.371429a23.478857 23.478857 0 0 0 20.333715 11.337143h564.224c8.045714 0 16.091429-4.461714 20.260571-11.337143l148.699429-242.761143a24.283429 24.283429 0 0 0-3.657143-29.622857m83.894857 78.701714L931.108571 839.68A118.710857 118.710857 0 0 1 830.683429 896H266.459429C225.28 896 187.757714 875.081143 166.034286 839.899429l-148.48-241.371429A117.76 117.76 0 0 1 31.597714 456.411429l432.420572-476.891429c22.162286-23.405714 53.394286-36.790857 85.577143-36.790857 32.256 0 63.414857 13.385143 86.308571 37.595428l429.056 473.965715c36.498286 38.619429 42.642286 97.28 14.921143 142.628571"  horiz-adv-x="1097" />

    
    <glyph glyph-name="gerenzhongxin-xiaoxixuanzhong" unicode="&#58974;" d="M695.04-44.617143h-365.714286a41.545143 41.545143 0 0 1 0-83.163428h365.714286a41.545143 41.545143 0 1 1 0 83.090285z m98.523429 170.861714H230.802286v306.468572A281.673143 281.673143 0 0 0 512.182857 714.093714a281.746286 281.746286 0 0 0 281.380572-281.380571v-306.468572z m189.074285 0h-105.984v306.468572a364.836571 364.836571 0 0 1-322.925714 361.910857V854.454857a41.545143 41.545143 0 1 1-83.090286 0v-59.830857a364.836571 364.836571 0 0 1-322.925714-361.910857v-306.468572H41.728a41.545143 41.545143 0 0 1 0-83.163428h940.909714a41.545143 41.545143 0 1 1 0 83.163428z"  horiz-adv-x="1028" />

    
    <glyph glyph-name="gerenzhongxin-shoucangmoren" unicode="&#58975;" d="M512 806.228711a49.425034 49.425034 0 0 1-45.124237-28.057582L396.288077 635.084291A139.946573 139.946573 0 0 0 290.816147 558.489142l-157.764161-22.937584a49.2885 49.2885 0 0 1-40.61864-34.269844 49.356767 49.356767 0 0 1 12.697592-51.541299l114.210057-111.342859c33.041045-32.153579 48.127968-78.506614 40.277307-123.972184l-26.897049-157.218029a49.356767 49.356767 0 0 1 20.00212-49.2885 49.425034 49.425034 0 0 1 52.974898-3.822931l141.175372 74.274084a140.287906 140.287906 0 0 0 130.389247 0l141.175372-74.205817a49.2885 49.2885 0 0 1 52.974898 3.754664 49.356767 49.356767 0 0 1 20.00212 49.2885l-26.965315 157.218029a139.946573 139.946573 0 0 0 40.345573 123.972184l114.210057 111.274592a49.356767 49.356767 0 0 1 12.697592 51.609566 49.2885 49.2885 0 0 1-40.550373 34.269844l-157.900695 22.937584A139.946573 139.946573 0 0 0 627.711923 635.220825L557.05597 778.171129a49.425034 49.425034 0 0 1-45.124237 27.989315m-229.92198-897.706068c-28.945047 0-57.617028 9.011194-82.193012 26.828782a139.263907 139.263907 0 0 0-55.773829 137.079375l26.965315 157.218029a50.3125 50.3125 0 0 1-14.472523 44.509837L42.46218 385.364991a139.263907 139.263907 0 0 0-35.498643 143.701238A139.263907 139.263907 0 0 0 120.149595 624.434698l157.764161 22.869318a50.244233 50.244233 0 0 1 37.887975 27.511449L386.389417 817.902303A139.263907 139.263907 0 0 0 512 895.999317a139.263907 139.263907 0 0 0 125.610583-78.097014l70.655953-143.018572a50.175967 50.175967 0 0 1 37.819708-27.579715l157.900695-22.869318a139.263907 139.263907 0 0 0 113.049524-95.368469 139.263907 139.263907 0 0 0-35.498643-143.632971l-114.14179-111.274593a50.244233 50.244233 0 0 1-14.472524-44.64637l26.965315-157.149762a139.263907 139.263907 0 0 0-55.773829-137.079375 139.059107 139.059107 0 0 0-147.455902-10.581326l-141.243639 74.13755a50.244233 50.244233 0 0 1-46.830902 0L347.477443-75.366435c-20.684786-10.854393-43.007971-16.247456-65.331156-16.247456"  horiz-adv-x="1024" />

    
    <glyph glyph-name="gerenzhongxin-shoucangxuanzhong" unicode="&#58976;" d="M512 806.228711a49.425034 49.425034 0 0 1-45.124237-28.057582L396.288077 635.084291A139.946573 139.946573 0 0 0 290.816147 558.489142l-157.764161-22.937584a49.2885 49.2885 0 0 1-40.61864-34.269844 49.356767 49.356767 0 0 1 12.697592-51.541299l114.210057-111.342859c33.041045-32.153579 48.127968-78.506614 40.277307-123.972184l-26.897049-157.218029a49.356767 49.356767 0 0 1 20.00212-49.2885 49.425034 49.425034 0 0 1 52.974898-3.822931l141.175372 74.274084a140.287906 140.287906 0 0 0 130.389247 0l141.175372-74.205817a49.2885 49.2885 0 0 1 52.974898 3.754664 49.356767 49.356767 0 0 1 20.00212 49.2885l-26.965315 157.218029a139.946573 139.946573 0 0 0 40.345573 123.972184l114.210057 111.274592a49.356767 49.356767 0 0 1 12.697592 51.609566 49.2885 49.2885 0 0 1-40.550373 34.269844l-157.900695 22.937584A139.946573 139.946573 0 0 0 627.711923 635.220825L557.05597 778.171129a49.425034 49.425034 0 0 1-45.124237 27.989315m-229.92198-897.706068c-28.945047 0-57.617028 9.011194-82.193012 26.828782a139.263907 139.263907 0 0 0-55.773829 137.079375l26.965315 157.218029a50.3125 50.3125 0 0 1-14.472523 44.509837L42.46218 385.364991a139.263907 139.263907 0 0 0-35.498643 143.701238A139.263907 139.263907 0 0 0 120.149595 624.434698l157.764161 22.869318a50.244233 50.244233 0 0 1 37.887975 27.511449L386.389417 817.902303A139.263907 139.263907 0 0 0 512 895.999317a139.263907 139.263907 0 0 0 125.610583-78.097014l70.655953-143.018572a50.175967 50.175967 0 0 1 37.819708-27.579715l157.900695-22.869318a139.263907 139.263907 0 0 0 113.049524-95.368469 139.263907 139.263907 0 0 0-35.498643-143.632971l-114.14179-111.274593a50.244233 50.244233 0 0 1-14.472524-44.64637l26.965315-157.149762a139.263907 139.263907 0 0 0-55.773829-137.079375 139.059107 139.059107 0 0 0-147.455902-10.581326l-141.243639 74.13755a50.244233 50.244233 0 0 1-46.830902 0L347.477443-75.366435c-20.684786-10.854393-43.007971-16.247456-65.331156-16.247456"  horiz-adv-x="1024" />

    
    <glyph glyph-name="guanyuwomen-chuangxinicon" unicode="&#58977;" d=""  horiz-adv-x="1024" />

    
    <glyph glyph-name="guanyuwomen-huipuicon" unicode="&#58978;" d=""  horiz-adv-x="1024" />

    
    <glyph glyph-name="gerenzhongxin-yaoqingxuanzhong" unicode="&#58979;" d="M965.888 452.266667a224.085333 224.085333 0 0 1 64.512 157.269333A225.024 225.024 0 0 1 805.546667 834.304a51.2 51.2 0 1 1 0-102.4c67.413333 0 122.368-54.869333 122.368-122.368 0-67.413333-54.869333-122.368-122.368-122.368a51.2 51.2 0 1 1 0-102.4 286.976 286.976 0 0 0 286.634666-286.72 51.2 51.2 0 0 1 102.4 0 389.290667 389.290667 0 0 1-228.778666 354.133333m-482.389334-0.341333a171.093333 171.093333 0 0 0-170.922666 170.922667c0 94.208 76.629333 170.837333 170.922666 170.837333 94.208 0 170.837333-76.629333 170.837334-170.837333a171.093333 171.093333 0 0 0-170.837334-170.922667m179.2-34.816a272.554667 272.554667 0 0 1 94.037334 205.653333A273.578667 273.578667 0 0 1 483.498667 896a273.578667 273.578667 0 0 1-273.322667-273.237333c0-82.090667 36.522667-155.648 93.952-205.738667A483.84 483.84 0 0 1 0-31.573333a51.2 51.2 0 0 1 102.4 0 381.44 381.44 0 0 0 381.098667 381.013333 381.44 381.44 0 0 0 381.013333-381.013333 51.2 51.2 0 0 1 102.4 0 483.84 483.84 0 0 1-304.128 448.597333"  horiz-adv-x="1194" />

    
    <glyph glyph-name="guanyuwomen-zhonggouicon" unicode="&#58980;" d=""  horiz-adv-x="1024" />

    
    <glyph glyph-name="hangqingpaixu-xiangshangmoren" unicode="&#58981;" d="M1024 896L0-128h2048z"  horiz-adv-x="2048" />

    
    <glyph glyph-name="gerenzhongxin-yaoqingmoren" unicode="&#58982;" d="M965.888 452.266667a224.085333 224.085333 0 0 1 64.512 157.269333A225.024 225.024 0 0 1 805.546667 834.304a51.2 51.2 0 1 1 0-102.4c67.413333 0 122.368-54.869333 122.368-122.368 0-67.413333-54.869333-122.368-122.368-122.368a51.2 51.2 0 1 1 0-102.4 286.976 286.976 0 0 0 286.634666-286.72 51.2 51.2 0 0 1 102.4 0 389.290667 389.290667 0 0 1-228.778666 354.133333m-482.389334-0.341333a171.093333 171.093333 0 0 0-170.922666 170.922667c0 94.208 76.629333 170.837333 170.922666 170.837333 94.208 0 170.837333-76.629333 170.837334-170.837333a171.093333 171.093333 0 0 0-170.837334-170.922667m179.2-34.816a272.554667 272.554667 0 0 1 94.037334 205.653333A273.578667 273.578667 0 0 1 483.498667 896a273.578667 273.578667 0 0 1-273.322667-273.237333c0-82.090667 36.522667-155.648 93.952-205.738667A483.84 483.84 0 0 1 0-31.573333a51.2 51.2 0 0 1 102.4 0 381.44 381.44 0 0 0 381.098667 381.013333 381.44 381.44 0 0 0 381.013333-381.013333 51.2 51.2 0 0 1 102.4 0 483.84 483.84 0 0 1-304.128 448.597333"  horiz-adv-x="1194" />

    
    <glyph glyph-name="hangqingpaixu-xiangshangxuanzhong" unicode="&#58983;" d="M1024 896L0-128h2048z"  horiz-adv-x="2048" />

    
    <glyph glyph-name="hangqingpaixu-xiangxiamoren" unicode="&#58984;" d="M1024-128L0 896h2048z"  horiz-adv-x="2048" />

    
    <glyph glyph-name="hangqingpaixu-xiangxiaxuanzhong" unicode="&#58985;" d="M1024-128L0 896h2048z"  horiz-adv-x="2048" />

    
    <glyph glyph-name="huodongliebiao-dingwei" unicode="&#58986;" d="M677.205333 480.4608a165.205333 165.205333 0 0 0-330.410666 0.136533v0.068267a165.205333 165.205333 0 1 0 330.410666 0v-0.2048z m-432.128-304.7424l267.741867-267.605333 281.531733 281.531733 0.273067 0.273067c4.7104 4.5056 9.352533 9.079467 13.858133 13.858133l0.273067 0.273067A409.736533 409.736533 0 0 1 512 896a409.736533 409.736533 0 0 1-266.922667-720.213333z"  horiz-adv-x="1024" />

    
    <glyph glyph-name="huodongliebiao-shijian" unicode="&#58987;" d="M753.664 337.493333H512A46.592 46.592 0 0 0 465.493333 384V665.258667a46.592 46.592 0 0 0 93.013334 0v-234.666667h195.157333a46.506667 46.506667 0 1 0 0-93.098667M512 896C229.717333 896 0 666.282667 0 384s229.717333-512 512-512c282.368 0 512 229.717333 512 512S794.368 896 512 896"  horiz-adv-x="1024" />

    
    <glyph glyph-name="huodongxiangqing-dizhiicon" unicode="&#58988;" d="M682.104471 465.317647a170.586353 170.586353 0 0 0-170.164706-171.128471 170.586353 170.586353 0 0 0-170.044236 171.248942v0.060235A170.646588 170.646588 0 0 0 512 636.747294a170.646588 170.646588 0 0 0 170.104471-171.309176v-0.180706z m-444.897883-315.873882L512.843294-128l289.792 291.84 0.301177 0.301176c4.818824 4.698353 9.637647 9.456941 14.275764 14.336l0.240941 0.301177A425.441882 425.441882 0 0 1 933.647059 471.341176C933.647059 705.776941 744.809412 896 512 896S90.352941 705.776941 90.352941 471.341176c0-123.663059 53.609412-241.302588 146.853647-321.897411z"  horiz-adv-x="1024" />

    
    <glyph glyph-name="huodongxiangqing-shijianicon" unicode="&#58989;" d="M753.664 337.472H512A46.592 46.592 0 0 0 465.472 384V665.216a46.592 46.592 0 0 0 93.056 0v-234.688h195.2a46.528 46.528 0 1 0 0-93.056M512 896C229.696 896 0 666.304 0 384s229.696-512 512-512c282.368 0 512 229.696 512 512s-229.632 512-512 512"  horiz-adv-x="1024" />

    
    <glyph glyph-name="huodongxiangqing-jiabinicon" unicode="&#58990;" d="M731.836187-50.271753h-119.406964V345.249597l38.039647 32.410462a42.19046 42.19046 0 0 1 2.50186 62.830807L514.06063 580.538175a40.996391 40.996391 0 0 1-61.92104-2.843023l-311.140429-377.837747c-13.930812-17.058138-38.892554-65.73069-11.030929-112.924871l-0.227442-0.568605c-0.966628-3.980232-10.405464-39.233716-48.27453-47.023599a30.420345 30.420345 0 0 1-19.446276-13.077906 31.102671 31.102671 0 0 1 25.587206-48.33139 18.081626 18.081626 0 0 1 5.970348 0.852907c46.739297 9.666278 71.530457 39.802321 84.2672 63.968016 44.63546-21.152091 85.233828 4.548837 100.870453 17.967905l257.464157 219.481371v-330.472986H416.488083a38.43767 38.43767 0 0 1-38.153368-38.665112c0-21.436393 17.058138-38.551391 38.096507-38.551391h315.404965a38.323949 38.323949 0 0 1 38.267088 38.608252c0 21.379532-17.058138 38.608251-38.267088 38.608251m176.494863 887.364318c-79.092898 80.059526-209.189627 78.353712-290.272641-3.980232-40.370926-40.768949-76.193015-134.474985-76.193015-134.474985-8.983952-23.824532-1.933256-58.28197 16.09151-76.193015l138.114054-140.217891c17.854184-18.081626 51.913599-25.359765 75.453829-16.091509 0 0 92.625687 36.163252 133.167194 77.216502 81.253595 82.163363 82.788828 213.795325 3.639069 293.74113"  horiz-adv-x="1024" />

    
    <glyph glyph-name="kuaixun-fenxiangicon" unicode="&#58991;" d="M1014.230427 680.445791a40.580516 40.580516 0 0 0 3.071461-15.636529v-0.093075c0-1.768417-0.744597-3.25761-0.930746-4.932953-0.465373-3.443759-0.744597-6.980593-2.047641-10.238203a40.208218 40.208218 0 0 0-9.400532-13.961187l-189.872141-189.779066a40.487442 40.487442 0 0 0-57.33394 57.427015l120.996952 120.903878c-80.788734-0.093075-197.038883-20.476407-301.096262-115.412478C406.825726 352.54405 423.393001 115.576173 423.672225 113.156233a40.580516 40.580516 0 0 0-80.974884-6.701369c-0.930746 11.355099-20.662556 278.572214 180.285459 462.022209 123.416891 112.713315 259.678075 136.819631 356.103339 136.633481L757.716888 826.572879a40.487442 40.487442 0 1 0 57.427015 57.427016l190.337513-190.430589a40.301293 40.301293 0 0 0 7.818265-11.727396c0.186149-0.558447 0.651522-0.930746 0.930746-1.396119z m-37.415981-276.059201c22.337899 0 40.580516-18.242617 40.580517-40.580516v-320.083476A171.908747 171.908747 0 0 0 845.57929-128H171.812415A171.908747 171.908747 0 0 0 0.089817 43.722598V687.705608C0.089817 782.26938 77.155568 859.428206 171.812415 859.428206h336.929975a40.580516 40.580516 0 1 0 0-81.161033h-336.929975a90.747714 90.747714 0 0 1-90.561565-90.561565v-643.98301c0-49.887974 40.673591-90.561565 90.561565-90.561565h673.85995a90.747714 90.747714 0 0 1 90.561565 90.561565V363.806074c0 22.337899 18.149543 40.580516 40.580516 40.580516z"  horiz-adv-x="1024" />

    
    <glyph glyph-name="kuaixun-zhangicon" unicode="&#58992;" d="M249.949091 208.244364L474.763636 433.152l224.907637-224.907636a43.752727 43.752727 0 0 1 67.025454 6.237091 44.311273 44.311273 0 0 1 9.960728 7.540363l248.92509 249.018182 65.908364-65.815273c13.498182-13.591273 36.584727-7.447273 41.518546 11.077818l22.900363 219.694546a24.855273 24.855273 0 0 1-27.275636 27.275636l-219.694546-22.807272a24.855273 24.855273 0 0 1-11.170909-41.611637l65.815273-65.815273-232.354909-232.261818-218.018909 218.018909a43.473455 43.473455 0 0 1-38.446546 12.101819 43.566545 43.566545 0 0 1-38.446545-12.101819l-248.459636-248.552727a43.659636 43.659636 0 0 1 0.186181-61.905454 43.659636 43.659636 0 0 1 61.905455-0.093091m993.466182-248.552728H160.674909a73.076364 73.076364 0 0 0-72.890182 72.983273V852.247273a43.845818 43.845818 0 0 1-87.784727 0v-819.479273C0-56.040727 71.959273-128 160.674909-128h1082.647273a43.845818 43.845818 0 0 1 0 87.784727"  horiz-adv-x="1303" />

    
    <glyph glyph-name="morentouxiang" unicode="&#58993;" d=""  horiz-adv-x="1024" />

    
    <glyph glyph-name="huodongxiangqing-zhubanfangicon" unicode="&#58994;" d="M875.975111 894.691556a11.036444 11.036444 0 0 1-11.491555-0.682667c-1.137778-0.853333-117.76-81.237333-194.844445-81.237333a81.92 81.92 0 0 0-12.8 0.853333C625.664 818.062222 601.315556 828.871111 575.260444 840.078222 538.112 856.348444 499.655111 873.244444 439.409778 873.244444c-4.494222 0-9.159111 0-13.880889-0.227555-94.606222-3.925333-176.64-29.013333-200.817778-37.034667L211.342222 850.716444a11.377778 11.377778 0 0 1-12.572444 2.844445l-49.550222-20.821333a11.605333 11.605333 0 0 1-6.599112-13.482667L380.700444-119.466667a11.264 11.264 0 0 1 18.773334-5.233777l57.230222 57.002666a12.117333 12.117333 0 0 1 3.242667 10.581334c-0.455111 2.389333-50.631111 241.777778-53.646223 295.822222-1.706667 28.558222 9.671111 58.026667 30.549334 80.554666 22.869333 24.462222 68.551111 53.76 157.013333 53.76 49.948444 0 95.857778 6.485333 136.874667 19.456a311.808 311.808 0 0 1 88.177778 43.576889c44.259556 31.630222 60.871111 63.715556 61.553777 65.024a11.036444 11.036444 0 0 1 1.308445 5.12V884.508444a10.922667 10.922667 0 0 1-5.802667 10.24"  horiz-adv-x="1024" />

    
    <glyph glyph-name="kuaixun-dieicon" unicode="&#58995;" d="M436.370512 340.018544a43.469503 43.469503 0 0 1 38.349968-12.100718 43.469503 43.469503 0 0 1 38.443051 12.100718l217.999091 218.092173 232.333787-232.333788-65.80929-65.80929a24.853013 24.853013 0 0 1 11.169894-41.607854l219.674575-22.805199a24.853013 24.853013 0 0 1 27.273157 27.273157l-22.8052 219.674575a24.853013 24.853013 0 0 1-41.607853 11.169894l-65.80929-65.80929-248.995546 248.902463a44.12108 44.12108 0 0 1-9.959822 7.539678 43.74875 43.74875 0 0 1-67.019362 6.236524L474.72048 425.84056 249.92637 650.63467a43.74875 43.74875 0 0 1-61.899827-0.186165 43.74875 43.74875 0 0 1-0.186165-61.899828l248.530134-248.530133z m807.024816-380.334879H160.567221a72.976638 72.976638 0 0 0-72.883556 72.976639V852.158167A43.841833 43.841833 0 0 1 0 852.158167v-819.404781C0-56.047268 71.952732-128 160.660304-128h1082.641941a43.841833 43.841833 0 1 1 0 87.683665z"  horiz-adv-x="1303" />

    
    <glyph glyph-name="kuaixun-pinglunicon" unicode="&#58996;" d="M539.182545 518.330182a63.488 63.488 0 1 1 0-126.976 63.488 63.488 0 0 1 0 126.976z m258.792728 0a63.581091 63.581091 0 1 1-0.093091-127.069091 63.581091 63.581091 0 0 1 0 127.069091z m-517.492364 0a63.488 63.488 0 1 1 0-126.976 63.488 63.488 0 0 1 0 126.976z m699.857455-357.655273c0-26.996364-21.969455-48.965818-48.965819-48.965818h-223.418181a48.686545 48.686545 0 0 1-36.026182-16.011636L551.098182-25.134545a16.942545 16.942545 0 0 0-23.738182 0L404.852364 97.28l-0.651637 0.558545a48.872727 48.872727 0 0 1-15.266909 10.053819l-1.210182 0.372363a47.848727 47.848727 0 0 1-17.408 3.444364H147.083636a49.058909 49.058909 0 0 0-49.058909 48.965818v588.334546c0 26.996364 21.969455 48.965818 49.058909 48.965818h784.290909c26.996364 0 48.965818-21.969455 48.965819-49.058909v-588.241455zM931.374545 896H147.083636C66.001455 896 0 829.998545 0 748.916364v-588.241455c0-80.989091 66.001455-147.083636 147.083636-147.083636h202.845091l108.078546-107.985455c22.341818-22.341818 51.851636-33.605818 81.175272-33.605818 29.416727 0 58.833455 11.170909 81.268364 33.512727l107.985455 108.171637h202.938181c80.989091 0 147.083636 65.908364 147.083637 147.083636V748.916364c0 81.082182-66.094545 147.083636-147.083637 147.083636z"  horiz-adv-x="1117" />

    
    <glyph glyph-name="shouyexinwen-biaoqianicon" unicode="&#58997;" d="M789.112123-27.411692c7.404308-9.452308 16.620308-7.876923 21.425231-6.22277a18.195692 18.195692 0 0 1 12.996923 18.195693V783.596308a19.298462 19.298462 0 0 1-19.298462 19.298461H191.174892a19.377231 19.377231 0 0 1-19.298461-19.298461V-15.36c0-11.894154 8.113231-16.541538 12.918154-18.195692 4.804923-1.654154 14.099692-3.150769 21.504 6.301538L409.601969 228.982154c21.425231 27.096615 53.563077 42.535385 88.064 42.535384 34.579692 0 66.638769-15.438769 88.142769-42.535384l203.224616-256.472616zM803.448123-128a111.064615 111.064615 0 0 0-87.433846 42.771692L512.9472 171.323077a18.983385 18.983385 0 0 1-15.202462 7.246769 18.904615 18.904615 0 0 1-15.044923-7.246769l-203.382153-256.551385a111.143385 111.143385 0 0 0-125.00677-36.312615A111.064615 111.064615 0 0 0 78.7712-15.438769V783.596308C78.7712 845.587692 129.183508 896 191.174892 896H804.235815c61.912615 0 112.324923-50.412308 112.324923-112.403692V-15.36a111.064615 111.064615 0 0 0-75.382153-106.102154c-12.445538-4.332308-25.206154-6.459077-37.651693-6.459077z"  horiz-adv-x="1024" />

    
    <glyph glyph-name="sousuoliebiaoye-sousuoicon" unicode="&#58998;" d="M93.10423 414.99347a388.286234 388.286234 0 0 0 387.774321 387.9023c213.851779 0 387.774321-174.05052 387.774321-387.9023a388.286234 388.286234 0 0 0-387.774321-387.902299 388.286234 388.286234 0 0 0-387.774321 387.902299m917.092668-463.34552l-158.05323 158.053229a478.958876 478.958876 0 0 1 109.613434 305.228302C961.757102 680.292535 746.113627 896 480.878551 896 215.707465 896 0 680.228546 0 414.99347c0-265.235076 215.707465-481.00653 480.878551-481.006529a478.638931 478.638931 0 0 1 305.548248 109.805402l157.925251-157.989241a46.392142 46.392142 0 0 1 65.908837 0 46.58411 46.58411 0 0 1 0 65.844848"  horiz-adv-x="1024" />

    
    <glyph glyph-name="wenzhangpinglun-dianzanicon" unicode="&#58999;" d="M917.643567 383.790096l-84.046889-359.140466a77.3914 77.3914 0 0 0-75.087577-59.5581H302.949361V466.557084a156.148029 156.148029 0 0 1 93.262183 71.759832c27.475227 46.161794 34.813331 104.013359 41.298167 155.03878 6.143529 47.783003 11.348463 88.995844 30.717645 103.586725 4.436993 3.413072 12.287058 7.594084 28.243168 5.119608 40.188919-5.972875 69.541335-25.342057 87.118654-57.510258 15.70013-28.755129 22.014312-67.578819 18.430587-112.375385a360.420368 360.420368 0 0 0-19.795816-91.47032 46.673755 46.673755 0 0 1 43.772645-62.288558h216.388743a76.623459 76.623459 0 0 0 60.496695-29.181763 76.623459 76.623459 0 0 0 14.676209-65.445649M93.045453 19.786003V402.30601c0 30.120357 24.488789 54.609147 54.609147 54.609147h62.288558v-491.823627h-62.288558a54.694473 54.694473 0 0 0-54.609147 54.609146m882.790986 487.386634c-32.509508 40.95686-81.145779 64.507054-133.451102 64.507054H687.26123a445.405852 445.405852 0 0 1 7.679411 53.158592c4.948954 62.885845-5.119607 119.713489-29.52307 164.3394C634.017312 846.687941 578.896205 883.975749 510.293464 894.214964c-37.117154 5.716895-71.077217-2.38915-98.296464-23.038234-50.428134-38.226403-58.704833-103.245418-66.725551-166.045937-5.290261-41.895455-11.348463-89.507804-29.011109-118.945547-6.91147-11.68977-21.502351-36.093233-84.644177-36.093233h-83.79091C66.338167 550.006686 0.03925 483.793096 0.03925 402.30601v-382.520007C0.03925-61.701083 66.338167-128 147.825253-128h610.598521c38.311729 0 75.855518 13.054999 105.805222 36.861174s51.281402 57.339604 59.984734 94.627412l84.04689 359.055139a169.288355 169.288355 0 0 1-32.424181 144.543585"  horiz-adv-x="1024" />

    
    <glyph glyph-name="wenzhangxiangqing-dianzanicon" unicode="&#59000;" d="M903.281242 408.696471l-79.932235-341.775059a73.607529 73.607529 0 0 0-71.499294-56.741647H318.456772V487.424A148.540235 148.540235 0 0 1 407.18336 555.730824c26.202353 43.971765 33.129412 98.906353 39.333647 147.456 5.842824 45.477647 10.842353 84.751059 29.153882 98.605176 4.216471 3.252706 11.745882 7.228235 26.985412 4.939294 38.249412-5.722353 66.138353-24.094118 82.883765-54.814118 14.878118-27.286588 20.961882-64.271059 17.468235-106.917647-2.288941-28.912941-8.794353-59.030588-18.853647-86.979764a44.393412 44.393412 0 0 1 41.743059-59.27153h205.884235a72.884706 72.884706 0 0 0 57.584941-27.828706c13.974588-17.648941 19.094588-40.357647 13.914353-62.283294M118.716536 62.223059V426.164706c0 28.672 23.311059 52.043294 51.983059 52.043294h59.211294v-468.028235h-59.211294a52.043294 52.043294 0 0 0-51.983059 51.983059m840.041412 463.811764a161.069176 161.069176 0 0 1-126.976 61.31953h-147.636706c3.433412 16.865882 5.842824 33.852235 7.228236 50.597647 4.818824 59.813647-4.939294 113.904941-28.069647 156.431059C633.427125 849.136941 580.962184 884.675765 515.72736 894.373647c-35.358118 5.360941-67.644235-2.409412-93.545412-21.985882-48.007529-36.382118-55.898353-98.183529-63.488-157.997177-5.12-39.936-10.842353-85.232941-27.587764-113.242353-6.625882-11.143529-20.48-34.334118-80.594824-34.334117H170.699595A140.709647 140.709647 0 0 1 30.110419 426.224941v-364.001882a140.769882 140.769882 0 0 1 140.589176-140.649412h581.150118c36.382118 0 72.101647 12.468706 100.592941 35.056941 28.611765 22.648471 48.850824 54.633412 57.163294 90.051765l79.932236 341.775059a161.069176 161.069176 0 0 1-30.780236 137.517176"  horiz-adv-x="1024" />

    
    <glyph glyph-name="shouye-youlunbo" unicode="&#59001;" d=""  horiz-adv-x="1024" />

    
    <glyph glyph-name="shouye-zuolunbo" unicode="&#59002;" d=""  horiz-adv-x="1024" />

    
    <glyph glyph-name="wenzhangxiangqing-shoucangicon" unicode="&#59003;" d="M505.253655 807.453017a48.790531 48.790531 0 0 1-44.574065-27.708203L391.168142 638.553451a138.179602 138.179602 0 0 0-104.206936-75.595205l-155.708052-22.648444a48.67006 48.67006 0 0 1-40.056424-33.79196 48.730296 48.730296 0 0 1 12.528927-50.958999l112.700102-109.869047c32.647491-31.683727 47.465356-77.462497 39.755248-122.277504l-26.503498-155.22617a48.730296 48.730296 0 0 1 19.696918-48.54959 48.790531 48.790531 0 0 1 52.284173-3.794819l139.324072 73.306267a138.420543 138.420543 0 0 0 128.722672 0l139.263836-73.246032c17.106803-9.035283 36.623016-7.649873 52.284174 3.734584a48.730296 48.730296 0 0 1 19.757153 48.54959l-26.563733 155.165935a138.119367 138.119367 0 0 0 39.755247 122.337739l112.700103 109.869047a48.730296 48.730296 0 0 1 12.528926 50.958999 48.67006 48.67006 0 0 1-39.996188 33.731725l-155.828523 22.708679a138.119367 138.119367 0 0 0-104.086465 75.595205L549.82772 779.744814a48.790531 48.790531 0 0 1-44.574065 27.708203M278.347569-78.607117c-28.551496 0-56.862051 8.975048-81.07661 26.503498a137.396544 137.396544 0 0 0-55.054995 135.288312l26.623969 155.165935a49.633824 49.633824 0 0 1-14.275748 43.971713L41.924318 392.070918a137.456779 137.456779 0 0 0-35.0569 141.73348A137.336309 137.336309 0 0 0 118.483286 627.952052l155.708053 22.648444a49.573589 49.573589 0 0 1 37.406073 27.10585L381.289566 819.01818A137.396544 137.396544 0 0 0 505.253655 895.998795c53.006996 0 100.592823-29.515259 124.024325-77.101085l69.631918-141.131129c7.228227-14.697394 21.202799-24.816912 37.345838-27.166085l155.828523-22.648444a137.336309 137.336309 0 0 0 111.555633-94.087419c16.383981-50.416882 3.011761-104.688818-34.936429-141.73348L855.943125 282.20187a49.573589 49.573589 0 0 1-14.335983-43.971713l26.623968-155.105699a137.396544 137.396544 0 0 0-54.994759-135.228077 137.215839 137.215839 0 0 0-145.588534-10.480929l-139.324071 73.185797a49.573589 49.573589 0 0 1-46.200417 0L342.739023-62.584548a138.300073 138.300073 0 0 0-64.451689-16.022569"  horiz-adv-x="1024" />

    
    <glyph glyph-name="wenzhangxiangqing-yueduliangicon" unicode="&#59004;" d="M892.131556 371.484444a95.118222 95.118222 0 0 0-82.716445-79.985777 98.986667 98.986667 0 0 0-81.237333 26.510222 91.477333 91.477333 0 0 0-27.420445 78.506667 95.118222 95.118222 0 0 0 95.573334 80.782222c25.6 0 50.062222-9.671111 68.266666-27.306667 21.390222-20.593778 31.402667-49.152 27.534223-78.506667M765.383111 615.310222c-108.999111-13.312-194.56-96.142222-208.327111-201.386666A227.896889 227.896889 0 0 1 625.777778 219.136a244.622222 244.622222 0 0 1 201.728-66.446222c108.885333 13.312 194.56 96.028444 208.327111 201.386666A227.896889 227.896889 0 0 1 967.111111 548.864a245.418667 245.418667 0 0 1-201.728 66.446222M796.444444 11.946667c-273.749333 0-520.533333 142.222222-647.850666 372.053333C276.024889 613.831111 522.808889 756.053333 796.444444 756.053333s520.533333-142.222222 647.850667-372.053333C1316.864 154.168889 1070.08 11.946667 796.444444 11.946667m783.928889 422.456889C1430.414222 719.075556 1130.040889 896 796.444444 896 462.848 896 162.474667 719.075556 12.515556 434.403556a108.088889 108.088889 0 0 1 0-100.807112C162.360889 48.924444 462.734222-128 796.444444-128c333.596444 0 633.969778 176.924444 783.928889 461.596444a107.861333 107.861333 0 0 1 0 100.807112"  horiz-adv-x="1592" />

    
    <glyph glyph-name="xuanfu-xiangshangiconmoren" unicode="&#59005;" d="M590.769231 896L0 305.230769v-401.723077l590.769231 590.769231 590.769231-590.769231V305.230769z"  horiz-adv-x="1181" />

    
    <glyph glyph-name="xuanfu-yejiao-weixin-moren" unicode="&#59006;" d="M1004.965647 290.514824a48.609882 48.609882 0 0 0-48.549647 48.549647 48.609882 48.609882 0 1 0 48.549647-48.549647m-242.206118 0a48.549647 48.549647 0 1 0 0.120471 97.159529 48.549647 48.549647 0 0 0-0.120471-97.159529m494.110118-51.320471c0 177.694118-177.935059 322.740706-377.976471 322.740706-211.847529 0-378.458353-144.805647-378.458352-322.740706 0-178.176 166.851765-322.800941 378.458352-322.800941 44.453647 0 89.148235 11.324235 133.541648 22.347294L1134.351059-128l-33.370353 111.194353c89.328941 66.981647 155.888941 155.888941 155.888941 256M294.671059 596.630588a61.620706 61.620706 0 0 0-61.801412 61.801412c0 34.153412 27.527529 61.741176 61.801412 61.741176 34.213647 0 61.741176-27.587765 61.741176-61.741176 0-34.213647-27.527529-61.801412-61.741176-61.801412m315.331765 123.542588c34.153412 0 61.741176-27.587765 61.741176-61.741176 0-34.213647-27.587765-61.801412-61.741176-61.801412A61.680941 61.680941 0 0 0 548.141176 658.492235c0 34.153412 27.587765 61.741176 61.861648 61.741177m241.302588-134.324706c14.336 0 28.672-1.084235 42.767059-2.469647C855.521882 762.759529 663.792941 896 445.018353 896 200.342588 896 0 729.148235 0 517.481412 0 395.324235 66.499765 294.851765 177.995294 217.148235l-44.453647-133.842823 155.407059 78.064941c55.657412-10.962824 100.291765-22.287059 155.76847-22.287059 14.034824 0 27.888941 0.481882 42.164706 1.566118a327.439059 327.439059 0 0 0-13.793882 93.244235c0 194.56 166.912 352.015059 378.277647 352.015059"  horiz-adv-x="1264" />

    
    <glyph glyph-name="wenzhangpinglun-pinglunicon" unicode="&#59007;" d="M539.221333 518.4a63.488 63.488 0 1 1 0-127.146667 63.488 63.488 0 0 1 0 127.146667z m258.730667 0a63.573333 63.573333 0 1 1 0-127.146667 63.573333 63.573333 0 0 1 0 127.146667z m-517.461333 0a63.488 63.488 0 1 1 0-127.146667 63.488 63.488 0 0 1 0 127.146667z m699.904-357.717333a49.066667 49.066667 0 0 0-49.066667-48.981334H707.925333a48.64 48.64 0 0 1-36.010666-15.957333l-120.832-120.832a16.896 16.896 0 0 0-23.722667 0L404.821333 97.28c-0.170667 0.256-0.426667 0.341333-0.682666 0.512a48.896 48.896 0 0 1-15.189334 10.069333l-1.28 0.426667a47.786667 47.786667 0 0 1-17.322666 3.413333H147.029333a49.066667 49.066667 0 0 0-48.981333 48.981334V748.970667c0 26.965333 22.016 48.981333 48.981333 48.981333h784.298667c27.050667 0 49.066667-22.016 49.066667-48.981333v-588.288zM931.328 896h-784.213333C65.962667 896 0 830.037333 0 748.970667v-588.288c0-81.066667 65.962667-147.029333 147.029333-147.029334h202.922667l108.117333-108.117333c22.357333-22.357333 51.797333-33.536 81.066667-33.536 29.44 0 58.88 11.178667 81.237333 33.536l108.117334 108.117333h202.837333c81.066667 0 147.114667 65.962667 147.114667 147.029334V748.970667c0 81.066667-66.048 147.029333-147.114667 147.029333z"  horiz-adv-x="1109" />

    
    <glyph glyph-name="zuozheyemian-baisefenxiang" unicode="&#59008;" d="M1020.849231 680.644923c2.048-5.041231 3.150769-10.397538 3.150769-15.753846 0-1.811692-0.787692-3.229538-1.024-4.962462-0.393846-3.465846-0.708923-7.089231-2.048-10.24a40.251077 40.251077 0 0 0-9.452308-13.942153l-191.094154-189.833847a40.96 40.96 0 0 0-57.737846 0 40.329846 40.329846 0 0 0 0 57.42277l121.698462 120.910769c-81.289846-0.078769-198.262154-20.48-302.946462-115.475692-172.032-156.120615-155.254154-393.058462-155.017846-395.421539a40.644923 40.644923 0 0 0-40.802461-43.874461 40.723692 40.723692 0 0 0-40.644923 37.179076c-0.945231 11.264-20.873846 278.528 181.405538 462.060308 124.297846 112.718769 261.513846 136.743385 358.478769 136.664616L762.722462 826.761846a40.329846 40.329846 0 0 0 0 57.344c15.911385 15.832615 41.747692 15.832615 57.659076 0l191.645539-190.385231a40.251077 40.251077 0 0 0 7.876923-11.815384c0.236308-0.472615 0.708923-0.787692 0.866462-1.260308z m-37.651693-276.164923c22.528 0 40.802462-18.195692 40.802462-40.644923v-320.039385A172.504615 172.504615 0 0 0 851.101538-128h-678.203076A172.504615 172.504615 0 0 0 0 43.716923V687.891692A172.504615 172.504615 0 0 0 172.898462 859.529846H512c22.528 0 40.802462-18.116923 40.802462-40.487384a40.723692 40.723692 0 0 0-40.802462-40.644924H172.898462c-50.333538 0-91.214769-40.566154-91.21477-90.584615v-644.017231c0-50.018462 40.96-90.584615 91.21477-90.584615h678.203076c50.333538 0 91.214769 40.566154 91.21477 90.584615V363.835077c0 22.449231 18.274462 40.644923 40.88123 40.644923z"  horiz-adv-x="1024" />

    
    <glyph glyph-name="xuanfu-yejiao-shoujiAPP-moren" unicode="&#59009;" d="M805.285647 195.584H213.232941V734.448941c0 23.371294 18.974118 42.345412 42.285177 42.345412h507.482353c23.311059 0 42.285176-18.974118 42.285176-42.345412v-538.864941zM549.345882-6.324706a57.344 57.344 0 0 0-51.079529-15.540706 51.501176 51.501176 0 0 0-10.601412 3.433412 49.272471 49.272471 0 0 0-18.672941 12.107294 57.283765 57.283765 0 0 0-15.480471 51.2c0.783059 3.734588 1.927529 7.107765 3.072 10.842353 1.505882 3.433412 3.433412 6.445176 5.300706 9.517177a57.223529 57.223529 0 0 0 36.382118 24.214588 56.982588 56.982588 0 0 0 58.247529-24.214588c1.867294-3.011765 3.855059-6.023529 4.939294-9.456942a61.018353 61.018353 0 0 0 4.577883-21.985882c0-14.757647-6.023529-29.515294-16.685177-40.116706zM788.540235 896H229.978353A139.745882 139.745882 0 0 1 90.352941 756.374588v-744.749176A139.745882 139.745882 0 0 1 229.978353-128h558.561882a139.745882 139.745882 0 0 1 139.625412 139.625412V756.374588A139.745882 139.745882 0 0 1 788.540235 896zM571.331765 709.872941h-124.084706a46.561882 46.561882 0 0 1 0-93.123765h124.084706a46.561882 46.561882 0 0 1 0 93.123765z"  horiz-adv-x="1024" />

    
    <glyph glyph-name="yejiao-shoujiAPP-xuanzhong" unicode="&#59010;" d="M805.285647 195.584H213.232941V734.448941c0 23.371294 18.974118 42.345412 42.285177 42.345412h507.482353c23.311059 0 42.285176-18.974118 42.285176-42.345412v-538.864941zM549.345882-6.324706a57.344 57.344 0 0 0-51.079529-15.540706 51.501176 51.501176 0 0 0-10.601412 3.433412 49.272471 49.272471 0 0 0-18.672941 12.107294 57.283765 57.283765 0 0 0-15.480471 51.2c0.783059 3.734588 1.927529 7.107765 3.072 10.842353 1.505882 3.433412 3.433412 6.445176 5.300706 9.517177a57.223529 57.223529 0 0 0 36.382118 24.214588 56.982588 56.982588 0 0 0 58.247529-24.214588c1.867294-3.011765 3.855059-6.023529 4.939294-9.456942a61.018353 61.018353 0 0 0 4.577883-21.985882c0-14.757647-6.023529-29.515294-16.685177-40.116706zM788.540235 896H229.978353A139.745882 139.745882 0 0 1 90.352941 756.374588v-744.749176A139.745882 139.745882 0 0 1 229.978353-128h558.561882a139.745882 139.745882 0 0 1 139.625412 139.625412V756.374588A139.745882 139.745882 0 0 1 788.540235 896zM571.331765 709.872941h-124.084706a46.561882 46.561882 0 0 1 0-93.123765h124.084706a46.561882 46.561882 0 0 1 0 93.123765z"  horiz-adv-x="1024" />

    
    <glyph glyph-name="xuanfu-shoujiAPP-xuanzhong" unicode="&#59011;" d="M805.285647 195.584H213.232941V734.448941c0 23.371294 18.974118 42.345412 42.285177 42.345412h507.482353c23.311059 0 42.285176-18.974118 42.285176-42.345412v-538.864941zM549.345882-6.324706a57.344 57.344 0 0 0-51.079529-15.540706 51.501176 51.501176 0 0 0-10.601412 3.433412 49.272471 49.272471 0 0 0-18.672941 12.107294 57.283765 57.283765 0 0 0-15.480471 51.2c0.783059 3.734588 1.927529 7.107765 3.072 10.842353 1.505882 3.433412 3.433412 6.445176 5.300706 9.517177a57.223529 57.223529 0 0 0 36.382118 24.214588 56.982588 56.982588 0 0 0 58.247529-24.214588c1.867294-3.011765 3.855059-6.023529 4.939294-9.456942a61.018353 61.018353 0 0 0 4.577883-21.985882c0-14.757647-6.023529-29.515294-16.685177-40.116706zM788.540235 896H229.978353A139.745882 139.745882 0 0 1 90.352941 756.374588v-744.749176A139.745882 139.745882 0 0 1 229.978353-128h558.561882a139.745882 139.745882 0 0 1 139.625412 139.625412V756.374588A139.745882 139.745882 0 0 1 788.540235 896zM571.331765 709.872941h-124.084706a46.561882 46.561882 0 0 1 0-93.123765h124.084706a46.561882 46.561882 0 0 1 0 93.123765z"  horiz-adv-x="1024" />

    
    <glyph glyph-name="xuanfu-xiangshangiconxuanzhong" unicode="&#59012;" d="M590.769231 896L0 305.230769v-401.723077l590.769231 590.769231 590.769231-590.769231V305.230769z"  horiz-adv-x="1181" />

    
    <glyph glyph-name="yejiao-weixin-xuanzhong" unicode="&#59013;" d="M1004.965647 290.514824a48.609882 48.609882 0 0 0-48.549647 48.549647 48.609882 48.609882 0 1 0 48.549647-48.549647m-242.206118 0a48.549647 48.549647 0 1 0 0.120471 97.159529 48.549647 48.549647 0 0 0-0.120471-97.159529m494.110118-51.320471c0 177.694118-177.935059 322.740706-377.976471 322.740706-211.847529 0-378.458353-144.805647-378.458352-322.740706 0-178.176 166.851765-322.800941 378.458352-322.800941 44.453647 0 89.148235 11.324235 133.541648 22.347294L1134.351059-128l-33.370353 111.194353c89.328941 66.981647 155.888941 155.888941 155.888941 256M294.671059 596.630588a61.620706 61.620706 0 0 0-61.801412 61.801412c0 34.153412 27.527529 61.741176 61.801412 61.741176 34.213647 0 61.741176-27.587765 61.741176-61.741176 0-34.213647-27.527529-61.801412-61.741176-61.801412m315.331765 123.542588c34.153412 0 61.741176-27.587765 61.741176-61.741176 0-34.213647-27.587765-61.801412-61.741176-61.801412A61.680941 61.680941 0 0 0 548.141176 658.492235c0 34.153412 27.587765 61.741176 61.861648 61.741177m241.302588-134.324706c14.336 0 28.672-1.084235 42.767059-2.469647C855.521882 762.759529 663.792941 896 445.018353 896 200.342588 896 0 729.148235 0 517.481412 0 395.324235 66.499765 294.851765 177.995294 217.148235l-44.453647-133.842823 155.407059 78.064941c55.657412-10.962824 100.291765-22.287059 155.76847-22.287059 14.034824 0 27.888941 0.481882 42.164706 1.566118a327.439059 327.439059 0 0 0-13.793882 93.244235c0 194.56 166.912 352.015059 378.277647 352.015059"  horiz-adv-x="1264" />

    


  </font>
</defs>
</svg>
