<?xml version="1.0" encoding="UTF-8"?>
<svg width="18px" height="18px" viewBox="0 0 18 18" version="1.1" xmlns="http://www.w3.org/2000/svg" xmlns:xlink="http://www.w3.org/1999/xlink">
    <!-- Generator: Sketch 49.3 (51167) - http://www.bohemiancoding.com/sketch -->
    <title>icon-扫码成功</title>
    <desc>Created with Sketch.</desc>
    <defs></defs>
    <g id="主要页面" stroke="none" stroke-width="1" fill="none" fill-rule="evenodd">
        <g id="切图" transform="translate(-324.000000, -1240.000000)" fill="#00C87D">
            <path d="M338.068,1247.06133 L333.251333,1251.878 C332.887333,1252.242 332.403,1252.44233 331.887,1252.44233 C331.369,1252.44233 330.882667,1252.241 330.517333,1251.87533 L328.654,1250.012 C328.394333,1249.752 328.394333,1249.32933 328.654,1249.06933 C328.914,1248.80933 329.337,1248.80933 329.596667,1249.06933 L331.460333,1250.93267 C331.695,1251.167 332.075333,1251.16833 332.308667,1250.93533 L337.125333,1246.11867 C337.385,1245.85867 337.808333,1245.85867 338.068,1246.11867 C338.328,1246.37867 338.328,1246.80133 338.068,1247.06133 M333,1240 C328.037333,1240 324,1244.03767 324,1249 C324,1253.96267 328.037333,1258 333,1258 C337.962667,1258 342,1253.96267 342,1249 C342,1244.03767 337.962667,1240 333,1240" id="icon-扫码成功"></path>
        </g>
    </g>
</svg>