<?xml version="1.0" encoding="UTF-8"?>
<svg width="12px" height="12px" viewBox="0 0 12 12" version="1.1" xmlns="http://www.w3.org/2000/svg" xmlns:xlink="http://www.w3.org/1999/xlink">
    <!-- Generator: Sketch 49.3 (51167) - http://www.bohemiancoding.com/sketch -->
    <title>icon-弹窗关闭</title>
    <desc>Created with Sketch.</desc>
    <defs></defs>
    <g id="主要页面" stroke="none" stroke-width="1" fill="none" fill-rule="evenodd">
        <g id="切图" transform="translate(-247.000000, -1258.000000)" fill="#A7A7A7">
            <path d="M253,1265.41425 L257.293,1269.70725 C257.684,1270.09825 258.316,1270.09825 258.707,1269.70725 C259.098,1269.31625 259.098,1268.68425 258.707,1268.29325 L254.414,1264.00025 L258.707,1259.70725 C259.098,1259.31625 259.098,1258.68425 258.707,1258.29325 C258.316,1257.90225 257.684,1257.90225 257.293,1258.29325 L253,1262.58625 L248.707,1258.29325 C248.316,1257.90225 247.684,1257.90225 247.293,1258.29325 C247.098,1258.48825 247,1258.74425 247,1259.00025 C247,1259.25625 247.098,1259.51225 247.293,1259.70725 L251.586,1264.00025 L247.293,1268.29325 C247.098,1268.48825 247,1268.74425 247,1269.00025 C247,1269.25625 247.098,1269.51225 247.293,1269.70725 C247.684,1270.09825 248.316,1270.09825 248.707,1269.70725 L253,1265.41425 Z" id="icon-弹窗关闭"></path>
        </g>
    </g>
</svg>