<?xml version="1.0" encoding="UTF-8"?>
<svg width="16px" height="16px" viewBox="0 0 16 16" version="1.1" xmlns="http://www.w3.org/2000/svg" xmlns:xlink="http://www.w3.org/1999/xlink">
    <!-- Generator: Sketch 49.3 (51167) - http://www.bohemiancoding.com/sketch -->
    <title>导航-搜索icon</title>
    <desc>Created with Sketch.</desc>
    <defs></defs>
    <g id="主要页面" stroke="none" stroke-width="1" fill="none" fill-rule="evenodd">
        <g id="切图" transform="translate(-303.000000, -1270.000000)" fill="#858585">
            <path d="M304.454545,1277.5172 C304.454545,1274.17423 307.173091,1271.45494 310.515152,1271.45494 C313.857212,1271.45494 316.575758,1274.17423 316.575758,1277.5172 C316.575758,1280.86017 313.857212,1283.57946 310.515152,1283.57946 C307.173091,1283.57946 304.454545,1280.86017 304.454545,1277.5172 M318.787152,1284.75796 L316.317818,1282.28844 C317.386909,1280.98966 318.030303,1279.32715 318.030303,1277.5172 C318.030303,1273.37207 314.659152,1270 310.515152,1270 C306.371152,1270 303,1273.37207 303,1277.5172 C303,1281.66233 306.371152,1285.0344 310.515152,1285.0344 C312.32703,1285.0344 313.99103,1284.38938 315.289939,1283.31757 L317.758303,1285.78661 C317.900364,1285.92871 318.086545,1286 318.272727,1286 C318.458424,1286 318.645091,1285.92871 318.787152,1285.78661 C319.070788,1285.50289 319.070788,1285.04216 318.787152,1284.75796" id="导航-搜索icon"></path>
        </g>
    </g>
</svg>