<?xml version="1.0" encoding="UTF-8"?>
<svg width="14px" height="12px" viewBox="0 0 14 12" version="1.1" xmlns="http://www.w3.org/2000/svg" xmlns:xlink="http://www.w3.org/1999/xlink">
    <!-- Generator: Sketch 49.3 (51167) - http://www.bohemiancoding.com/sketch -->
    <title>icon-基本信息、活动日历</title>
    <desc>Created with Sketch.</desc>
    <defs></defs>
    <g id="主要页面" stroke="none" stroke-width="1" fill="none" fill-rule="evenodd">
        <g id="切图" transform="translate(-278.000000, -1240.000000)" fill="#858585">
            <path d="M288.902667,1250.97433 L280.430333,1250.97433 C279.655667,1250.97433 279.025667,1250.34433 279.025667,1249.56967 L279.025667,1245.99167 L290.307667,1245.99167 L290.307667,1249.56967 C290.307667,1250.34433 289.677333,1250.97433 288.902667,1250.97433 M280.430333,1242.05133 L281.523667,1242.05133 L281.523667,1242.56433 C281.523667,1242.84733 281.753,1243.077 282.036333,1243.077 C282.319667,1243.077 282.549333,1242.84733 282.549333,1242.56433 L282.549333,1242.05133 L286.784,1242.05133 L286.784,1242.56433 C286.784,1242.84733 287.013667,1243.077 287.297,1243.077 C287.58,1243.077 287.809667,1242.84733 287.809667,1242.56433 L287.809667,1242.05133 L288.902667,1242.05133 C289.677333,1242.05133 290.307667,1242.68167 290.307667,1243.45633 L290.307667,1244.96633 L279.025667,1244.96633 L279.025667,1243.45633 C279.025667,1242.68167 279.655667,1242.05133 280.430333,1242.05133 M288.902667,1241.02567 L287.809667,1241.02567 L287.809667,1240.513 C287.809667,1240.22967 287.58,1240 287.297,1240 C287.013667,1240 286.784,1240.22967 286.784,1240.513 L286.784,1241.02567 L282.549333,1241.02567 L282.549333,1240.513 C282.549333,1240.22967 282.319667,1240 282.036333,1240 C281.753,1240 281.523667,1240.22967 281.523667,1240.513 L281.523667,1241.02567 L280.430333,1241.02567 C279.090333,1241.02567 278,1242.116 278,1243.45633 L278,1249.56967 C278,1250.90967 279.090333,1252 280.430333,1252 L288.902667,1252 C290.243,1252 291.333333,1250.90967 291.333333,1249.56967 L291.333333,1243.45633 C291.333333,1242.116 290.243,1241.02567 288.902667,1241.02567" id="icon-基本信息、活动日历"></path>
        </g>
    </g>
</svg>