<?xml version="1.0" encoding="UTF-8"?>
<svg width="18px" height="18px" viewBox="0 0 18 18" version="1.1" xmlns="http://www.w3.org/2000/svg" xmlns:xlink="http://www.w3.org/1999/xlink">
    <!-- Generator: Sketch 49.3 (51167) - http://www.bohemiancoding.com/sketch -->
    <title>二级页-24小时新闻icom</title>
    <desc>Created with Sketch.</desc>
    <defs>
        <linearGradient x1="0%" y1="0%" x2="100%" y2="100%" id="linearGradient-1">
            <stop stop-color="#FF8282" offset="0%"></stop>
            <stop stop-color="#FF3939" offset="100%"></stop>
        </linearGradient>
    </defs>
    <g id="主要页面" stroke="none" stroke-width="1" fill="none" fill-rule="evenodd">
        <g id="切图" transform="translate(-127.000000, -1455.000000)" fill="url(#linearGradient-1)">
            <path d="M141.7,1467.1596 L141.1282,1467.1596 L141.1282,1465.7604 C141.1282,1465.4568 140.9344,1465.3554 140.7538,1465.3554 C140.5732,1465.3554 140.3842,1465.4604 140.3842,1465.7604 L140.3842,1467.1596 L139.8124,1467.1596 L139.8124,1464.0174 L140.3842,1464.0174 L140.3842,1465.0782 C140.5378,1464.9198 140.7316,1464.8406 140.9344,1464.8406 C141.436,1464.8406 141.7,1465.1922 141.7,1465.6764 L141.7,1467.1596 Z M139.0786,1466.271 L138.5062,1466.271 L138.5062,1467.1596 L137.4064,1467.1596 L137.4064,1466.271 L134.845,1466.271 L134.845,1465.188 L136.9924,1460.8932 L138.2422,1460.8932 L136.0948,1465.188 L137.4064,1465.188 L137.4064,1464.0174 L138.5062,1464.0174 L138.5062,1465.188 L139.0786,1465.188 L139.0786,1466.271 Z M134.1112,1466.13 L134.1112,1467.1596 L130.3,1467.1596 L130.3,1466.13 L132.6412,1463.4102 C132.8698,1463.1372 132.967,1462.944 132.967,1462.6536 C132.967,1462.1868 132.694,1461.87 132.2098,1461.87 C131.8312,1461.87 131.4442,1462.0632 131.4442,1462.671 L130.3,1462.671 C130.3,1461.5268 131.1364,1460.8404 132.2098,1460.8404 C133.3186,1460.8404 134.1112,1461.5358 134.1112,1462.662 C134.1112,1463.2692 133.8736,1463.595 133.4422,1464.0966 L131.6902,1466.13 L134.1112,1466.13 Z M140.2,1455 L131.8,1455 C129.16,1455 127,1457.16 127,1459.8 L127,1468.2 C127,1470.84 129.16,1473 131.8,1473 L140.2,1473 C142.84,1473 145,1470.84 145,1468.2 L145,1459.8 C145,1457.16 142.84,1455 140.2,1455 Z" id="二级页-24小时新闻icom"></path>
        </g>
    </g>
</svg>