<?xml version="1.0" encoding="UTF-8"?>
<svg width="10px" height="10px" viewBox="0 0 10 10" version="1.1" xmlns="http://www.w3.org/2000/svg" xmlns:xlink="http://www.w3.org/1999/xlink">
    <!-- Generator: Sketch 49.3 (51167) - http://www.bohemiancoding.com/sketch -->
    <title>icon-首页搜索关闭</title>
    <desc>Created with Sketch.</desc>
    <defs></defs>
    <g id="主要页面" stroke="none" stroke-width="1" fill="none" fill-rule="evenodd">
        <g id="切图" transform="translate(-314.000000, -1259.000000)" fill="#9B9B9B">
            <path d="M319.642879,1263.99992 L323.866818,1259.77598 C324.044394,1259.59841 324.044394,1259.31053 323.866818,1259.13295 C323.689545,1258.95568 323.401667,1258.95568 323.224091,1259.13295 L319.000152,1263.3572 L314.775909,1259.13295 C314.598636,1258.95568 314.310758,1258.95568 314.133182,1259.13295 C313.955606,1259.31053 313.955606,1259.59841 314.133182,1259.77598 L318.357424,1263.99992 L314.133182,1268.22386 C313.955606,1268.40144 313.955606,1268.68932 314.133182,1268.86689 C314.22197,1268.95568 314.338333,1268.99992 314.454697,1268.99992 C314.571061,1268.99992 314.687121,1268.95568 314.775909,1268.86689 L319.000152,1264.64265 L323.224091,1268.86689 C323.312879,1268.95568 323.429242,1268.99992 323.545606,1268.99992 C323.66197,1268.99992 323.77803,1268.95568 323.866818,1268.86689 C324.044394,1268.68932 324.044394,1268.40144 323.866818,1268.22386 L319.642879,1263.99992 Z" id="icon-首页搜索关闭"></path>
        </g>
    </g>
</svg>