<?xml version="1.0" encoding="UTF-8"?>
<svg width="16px" height="10px" viewBox="0 0 16 10" version="1.1" xmlns="http://www.w3.org/2000/svg" xmlns:xlink="http://www.w3.org/1999/xlink">
    <!-- Generator: Sketch 49.3 (51167) - http://www.bohemiancoding.com/sketch -->
    <title>icon-登录注册-眼睛关闭</title>
    <desc>Created with Sketch.</desc>
    <defs></defs>
    <g id="主要页面" stroke="none" stroke-width="1" fill="none" fill-rule="evenodd">
        <g id="切图" transform="translate(-220.000000, -1260.000000)" fill="#CCCCCC">
            <path d="M235.898494,1261.35736 C235.7445,1261.03011 235.351254,1260.88893 235.020354,1261.04122 L220.421335,1267.77376 C220.090436,1267.92627 219.947457,1268.3154 220.101671,1268.64242 C220.213807,1268.88013 220.452178,1269.02 220.701124,1269.02 C220.794534,1269.02 220.889486,1269.00017 220.979811,1268.95856 L235.57883,1262.22581 C235.90973,1262.07329 236.052708,1261.68439 235.898494,1261.35736 Z M234.447779,1263.22825 L231.566617,1264.55706 C231.394778,1264.63637 231.291675,1264.80892 231.291895,1264.99673 L231.291895,1265 C231.291895,1266.7979 229.818048,1268.25526 227.999862,1268.25526 C227.188696,1268.25526 226.446705,1267.9644 225.872808,1267.48311 C225.732032,1267.36481 225.534418,1267.33888 225.366765,1267.41623 L223.828368,1268.12563 C223.471913,1268.2899 223.457813,1268.78796 223.805015,1268.97033 C225.054371,1269.62591 226.481734,1270 227.999862,1270 C231.478274,1270 234.488315,1268.05068 235.948944,1265.21112 C236.017019,1265.07909 236.017019,1264.92048 235.948944,1264.78866 C235.689203,1264.28472 235.379453,1263.80975 235.027624,1263.36812 C234.889492,1263.19447 234.65024,1263.13499 234.447779,1263.22825 Z M224.433548,1265.44272 C224.605387,1265.36341 224.70849,1265.19086 224.70827,1265.00305 L224.70827,1265 C224.70827,1263.2021 226.182117,1261.7443 227.999862,1261.7443 C228.81147,1261.7443 229.55346,1262.03516 230.127137,1262.51667 C230.268133,1262.63497 230.465527,1262.66068 230.63318,1262.58355 L232.171797,1261.87394 C232.528032,1261.70966 232.542132,1261.2116 232.194709,1261.02946 C230.945574,1260.37365 229.518211,1260 227.999862,1260 C224.521891,1260 221.51185,1261.94932 220.050781,1264.78866 C219.983147,1264.92048 219.982926,1265.07909 220.051001,1265.21112 C220.310962,1265.71506 220.620712,1266.19003 220.972321,1266.63166 C221.110673,1266.80531 221.349925,1266.86479 221.552386,1266.77154 L224.433548,1265.44272 Z" id="icon-登录注册-眼睛关闭"></path>
        </g>
    </g>
</svg>