<?xml version="1.0" encoding="UTF-8"?>
<svg width="18px" height="18px" viewBox="0 0 18 18" version="1.1" xmlns="http://www.w3.org/2000/svg" xmlns:xlink="http://www.w3.org/1999/xlink">
    <!-- Generator: Sketch 49.3 (51167) - http://www.bohemiancoding.com/sketch -->
    <title>二级页-观点洞察icom</title>
    <desc>Created with Sketch.</desc>
    <defs>
        <linearGradient x1="0%" y1="0%" x2="100%" y2="100%" id="linearGradient-1">
            <stop stop-color="#63CEFF" offset="0%"></stop>
            <stop stop-color="#238EF2" offset="100%"></stop>
        </linearGradient>
    </defs>
    <g id="主要页面" stroke="none" stroke-width="1" fill="none" fill-rule="evenodd">
        <g id="切图" transform="translate(-12.000000, -1455.000000)" fill="url(#linearGradient-1)">
            <path d="M22.3806,1461.6864 C22.2336,1461.5904 22.0368,1461.6306 21.9408,1461.7764 C21.8442,1461.9234 21.8844,1462.1202 22.0308,1462.2162 C22.0368,1462.2192 22.5822,1462.5912 22.7736,1463.1252 C22.8204,1463.2554 22.9422,1463.3358 23.0718,1463.3358 C23.1078,1463.3358 23.1438,1463.3292 23.1798,1463.3166 C23.3448,1463.2578 23.4306,1463.0754 23.3712,1462.911 C23.1054,1462.1718 22.41,1461.7056 22.3806,1461.6864 M24.3864,1465.5354 C24.0606,1466.0856 23.6052,1466.5482 23.0616,1466.8836 C22.926,1467.2292 22.5888,1467.468 22.2114,1467.468 L19.788,1467.468 C19.5768,1467.468 19.3704,1467.3942 19.2078,1467.2598 C19.086,1467.1596 18.993,1467.0294 18.936,1466.8836 C18.3936,1466.5482 17.9382,1466.0844 17.6124,1465.5348 C17.2554,1464.93 17.0658,1464.2382 17.0658,1463.5344 C17.0658,1461.3648 18.8304,1459.6002 21,1459.6002 C23.169,1459.6002 24.9336,1461.3648 24.9336,1463.5344 C24.9336,1464.2394 24.7446,1464.9318 24.3864,1465.5354 M21.9036,1468.2966 L20.0958,1468.2966 C19.92,1468.2966 19.779,1468.1544 19.779,1467.9792 C19.779,1467.8034 19.92,1467.6618 20.0958,1467.6618 L21.9036,1467.6618 C22.0794,1467.6618 22.221,1467.8034 22.221,1467.9792 C22.221,1468.1544 22.0794,1468.2966 21.9036,1468.2966 M21.3012,1469.2002 L20.6982,1469.2002 C20.523,1469.2002 20.3814,1469.0586 20.3814,1468.8834 C20.3814,1468.7076 20.523,1468.566 20.6982,1468.566 L21.3012,1468.566 C21.4764,1468.566 21.618,1468.7076 21.618,1468.8834 C21.618,1469.0586 21.4764,1469.2002 21.3012,1469.2002 M25.2,1455 L16.8,1455 C14.16,1455 12,1457.1606 12,1459.8 L12,1468.2 C12,1470.84 14.16,1473 16.8,1473 L25.2,1473 C27.84,1473 30,1470.84 30,1468.2 L30,1459.8 C30,1457.1606 27.84,1455 25.2,1455" id="二级页-观点洞察icom"></path>
        </g>
    </g>
</svg>