<?xml version="1.0" encoding="UTF-8"?>
<svg width="58px" height="58px" viewBox="0 0 58 58" version="1.1" xmlns="http://www.w3.org/2000/svg" xmlns:xlink="http://www.w3.org/1999/xlink">
    <!-- Generator: Sketch 49.3 (51167) - http://www.bohemiancoding.com/sketch -->
    <title>icon-提示-成功</title>
    <desc>Created with Sketch.</desc>
    <defs></defs>
    <g id="主要页面" stroke="none" stroke-width="1" fill="none" fill-rule="evenodd">
        <g id="切图" transform="translate(-220.000000, -1281.000000)" fill="#349DFF" fill-rule="nonzero">
            <path d="M235.775278,1312.45345 C235.384754,1312.06292 235.384754,1311.42976 235.775278,1311.03923 C236.165802,1310.64871 236.798967,1310.64871 237.189491,1311.03923 L243.209491,1317.05923 C244.419918,1318.26966 246.377831,1318.27268 247.582638,1317.06787 L263.144176,1301.50526 C263.534687,1301.11472 264.167852,1301.1147 264.55839,1301.50521 C264.948928,1301.89572 264.94895,1302.52888 264.558439,1302.91942 L248.996876,1318.48206 C247.010018,1320.46892 243.785778,1320.46395 241.795278,1318.47345 L235.775278,1312.45345 Z M276,1310 C276,1295.08875 263.911254,1283 249,1283 C234.088746,1283 222,1295.08875 222,1310 C222,1324.91125 234.088746,1337 249,1337 C263.911254,1337 276,1324.91125 276,1310 Z M278,1310 C278,1326.01582 265.015823,1339 249,1339 C232.984177,1339 220,1326.01582 220,1310 C220,1293.98418 232.984177,1281 249,1281 C265.015823,1281 278,1293.98418 278,1310 Z" id="icon-提示-成功"></path>
        </g>
    </g>
</svg>