<?xml version="1.0" encoding="UTF-8"?>
<svg width="16px" height="10px" viewBox="0 0 16 10" version="1.1" xmlns="http://www.w3.org/2000/svg" xmlns:xlink="http://www.w3.org/1999/xlink">
    <!-- Generator: Sketch 49.3 (51167) - http://www.bohemiancoding.com/sketch -->
    <title>icon-登录注册-眼睛打开</title>
    <desc>Created with Sketch.</desc>
    <defs></defs>
    <g id="主要页面" stroke="none" stroke-width="1" fill="none" fill-rule="evenodd">
        <g id="切图" transform="translate(-220.000000, -1240.000000)" fill="#CCCCCC">
            <path d="M228.295346,1243.53537 C227.232377,1243.33624 226.317452,1244.24062 226.519031,1245.29205 C226.631606,1245.87943 227.110548,1246.3533 227.704489,1246.46441 C228.767899,1246.66398 229.682603,1245.75917 229.481025,1244.70773 C229.368229,1244.12035 228.889287,1243.6467 228.295346,1243.53537 M228.427969,1248.22872 C226.274713,1248.49692 224.46381,1246.70625 224.735225,1244.57679 C224.920281,1243.12578 226.105078,1241.95407 227.572086,1241.77128 C229.725342,1241.50286 231.536245,1243.29375 231.26483,1245.42321 C231.079995,1246.87422 229.895197,1248.04593 228.427969,1248.22872 M227.999917,1240 C224.52197,1240 221.51195,1241.9495 220.05089,1244.78878 C219.983037,1244.92059 219.983037,1245.0792 220.05089,1245.21122 C221.51195,1248.05072 224.52197,1250 227.999917,1250 C231.478085,1250 234.488105,1248.05072 235.948944,1245.21122 C236.017019,1245.0792 236.017019,1244.92059 235.948944,1244.78878 C234.488105,1241.9495 231.478085,1240 227.999917,1240" id="icon-登录注册-眼睛打开"></path>
        </g>
    </g>
</svg>