<?xml version="1.0" encoding="UTF-8"?>
<svg width="17px" height="15px" viewBox="0 0 17 15" version="1.1" xmlns="http://www.w3.org/2000/svg" xmlns:xlink="http://www.w3.org/1999/xlink">
    <!-- Generator: Sketch 49.3 (51167) - http://www.bohemiancoding.com/sketch -->
    <title>文章摘要-引号</title>
    <desc>Created with Sketch.</desc>
    <defs></defs>
    <g id="主要页面" stroke="none" stroke-width="1" fill="none" fill-rule="evenodd">
        <g id="切图" transform="translate(-501.000000, -1304.000000)" fill="#505558">
            <path d="M507.624,1318.256 L501,1318.256 L501,1313.552 C501,1310.95999 501.431996,1308.91201 502.296,1307.408 C503.160004,1305.90399 504.679989,1304.768 506.856,1304 L508.152,1306.736 C505.655988,1307.536 504.408,1309.18399 504.408,1311.68 L507.624,1311.68 L507.624,1318.256 Z M516.984,1318.304 L510.36,1318.304 L510.36,1313.6 C510.36,1311.00799 510.791996,1308.96001 511.656,1307.456 C512.520004,1305.95199 514.039989,1304.816 516.216,1304.048 L517.512,1306.784 C515.015988,1307.584 513.768,1309.23199 513.768,1311.728 L516.984,1311.728 L516.984,1318.304 Z" id="文章摘要-引号"></path>
        </g>
    </g>
</svg>