<?xml version="1.0" encoding="UTF-8"?>
<svg width="12px" height="15px" viewBox="0 0 12 15" version="1.1" xmlns="http://www.w3.org/2000/svg" xmlns:xlink="http://www.w3.org/1999/xlink">
    <!-- Generator: Sketch 49.3 (51167) - http://www.bohemiancoding.com/sketch -->
    <title>活动列表-定位</title>
    <desc>Created with Sketch.</desc>
    <defs></defs>
    <g id="主要页面" stroke="none" stroke-width="1" fill="none" fill-rule="evenodd">
        <g id="切图" transform="translate(-399.000000, -1376.000000)" fill="#D2D2D2">
            <path d="M407.420171,1382.08708 C407.420171,1383.42294 406.335448,1384.50604 404.998785,1384.50523 C403.662121,1384.50523 402.579019,1383.42051 402.579829,1382.08465 L402.579829,1382.08384 C402.579829,1380.74718 403.663741,1379.66408 405.000405,1379.66408 C406.337069,1379.66408 407.420171,1380.74799 407.420171,1382.08465 L407.420171,1382.08708 Z M401.090056,1386.55073 L405.011746,1390.47161 L409.135961,1386.3474 L409.140012,1386.34335 C409.20887,1386.27692 409.276918,1386.20968 409.343346,1386.14001 L409.346587,1386.13596 C410.408627,1385.02126 411.000809,1383.5404 410.999999,1382.00121 C410.999999,1378.68791 408.3129,1376 405.000405,1376 C401.687099,1376 399.000001,1378.68791 399.000001,1382.00121 C398.999191,1383.74941 399.762304,1385.41173 401.090056,1386.55073 Z" id="活动列表-定位"></path>
        </g>
    </g>
</svg>