<?xml version="1.0" encoding="UTF-8"?>
<svg width="17px" height="17px" viewBox="0 0 17 17" version="1.1" xmlns="http://www.w3.org/2000/svg" xmlns:xlink="http://www.w3.org/1999/xlink">
    <!-- Generator: Sketch 49.3 (51167) - http://www.bohemiancoding.com/sketch -->
    <title>文章详情-收藏icon</title>
    <desc>Created with Sketch.</desc>
    <defs></defs>
    <g id="主要页面" stroke="none" stroke-width="1" fill="none" fill-rule="evenodd">
        <g id="切图" transform="translate(-341.000000, -1419.000000)" fill="#FFFFFF">
            <path d="M349.388232,1420.47095 C349.067074,1420.47095 348.791026,1420.64305 348.648834,1420.93038 L347.492667,1423.27409 C347.158271,1423.95171 346.512034,1424.42094 345.76381,1424.5293 L343.17837,1424.90538 C342.860644,1424.95147 342.612054,1425.16083 342.51301,1425.4663 C342.413476,1425.77177 342.491926,1426.08753 342.721394,1426.3116 L344.592443,1428.13558 C345.133753,1428.66218 345.380382,1429.42168 345.2529,1430.16647 L344.811125,1432.7426 C344.756699,1433.05885 344.879279,1433.3604 345.139147,1433.54917 C345.399014,1433.73794 345.723114,1433.7605 346.007007,1433.61193 L348.320322,1432.39545 C348.988624,1432.04439 349.78735,1432.04439 350.456632,1432.39545 L352.769456,1433.61144 C353.05335,1433.76099 353.377449,1433.73794 353.637317,1433.54917 C353.897185,1433.3604 354.019764,1433.05885 353.965339,1432.7426 L353.523564,1430.16696 C353.396081,1429.42168 353.642711,1428.66218 354.18402,1428.13558 L356.055069,1426.3116 C356.284537,1426.08753 356.362988,1425.77177 356.263454,1425.4663 C356.16441,1425.16083 355.915819,1424.95147 355.598584,1424.90538 L353.012163,1424.5293 C352.26443,1424.42094 351.618193,1423.95171 351.283796,1423.2736 L350.127629,1420.93038 C349.985438,1420.64305 349.709389,1420.47095 349.388232,1420.47095 M345.621128,1435.17996 C345.147482,1435.17996 344.677268,1435.0314 344.274718,1434.73917 C343.562288,1434.22188 343.212692,1433.36138 343.361258,1432.49401 L343.803033,1429.91837 C343.849123,1429.65115 343.760376,1429.37805 343.56621,1429.18878 L341.695161,1427.36529 C341.064614,1426.75044 340.84201,1425.84874 341.114136,1425.01177 C341.386262,1424.1748 342.09575,1423.57613 342.967043,1423.44962 L345.552484,1423.07404 C345.821667,1423.03482 346.053587,1422.86664 346.173225,1422.62344 L347.329882,1420.27924 C347.719193,1419.49032 348.508113,1419 349.388232,1419 C350.26835,1419 351.05727,1419.49032 351.446582,1420.27924 L352.603239,1422.62295 C352.722876,1422.86664 352.954796,1423.03482 353.22349,1423.07404 L355.809911,1423.44962 C356.680713,1423.57613 357.390202,1424.1748 357.662327,1425.01177 C357.934453,1425.84874 357.711849,1426.75044 357.081302,1427.36529 L355.210744,1429.18878 C355.016088,1429.37805 354.92734,1429.65115 354.97343,1429.91886 L355.415206,1432.49401 C355.563772,1433.36138 355.214176,1434.22188 354.501746,1434.73917 C353.790296,1435.25596 352.863597,1435.32412 352.084974,1434.91323 L349.77215,1433.69823 C349.531404,1433.57172 349.244569,1433.57172 349.004804,1433.69823 L346.691489,1434.91372 C346.353171,1435.09171 345.986414,1435.17996 345.621128,1435.17996" id="文章详情-收藏icon"></path>
        </g>
    </g>
</svg>