<?xml version="1.0" encoding="UTF-8"?>
<svg width="58px" height="58px" viewBox="0 0 58 58" version="1.1" xmlns="http://www.w3.org/2000/svg" xmlns:xlink="http://www.w3.org/1999/xlink">
    <!-- Generator: Sketch 49.3 (51167) - http://www.bohemiancoding.com/sketch -->
    <title>icon-提示-错误警示</title>
    <desc>Created with Sketch.</desc>
    <defs></defs>
    <g id="主要页面" stroke="none" stroke-width="1" fill="none" fill-rule="evenodd">
        <g id="切图" transform="translate(-220.000000, -1349.000000)" fill="#FF3841" fill-rule="nonzero">
            <path d="M247.787456,1364.94184 C247.787456,1364.27217 248.330331,1363.7293 249,1363.7293 C249.669669,1363.7293 250.212544,1364.27217 250.212544,1364.94184 L250.212544,1385.34522 C250.212544,1386.01489 249.669669,1386.55776 249,1386.55776 C248.330331,1386.55776 247.787456,1386.01489 247.787456,1385.34522 L247.787456,1364.94184 Z M250.515679,1391.19527 C250.515679,1392.03236 249.837087,1392.71095 249,1392.71095 C248.162913,1392.71095 247.484321,1392.03236 247.484321,1391.19527 L247.484321,1391.05816 C247.484321,1390.22107 248.162913,1389.54248 249,1389.54248 C249.837087,1389.54248 250.515679,1390.22107 250.515679,1391.05816 L250.515679,1391.19527 Z M276,1378 C276,1363.08874 263.911258,1351 249,1351 C234.088742,1351 222,1363.08874 222,1378 C222,1392.91126 234.088742,1405 249,1405 C263.911258,1405 276,1392.91126 276,1378 Z M278,1378 C278,1394.01582 265.015819,1407 249,1407 C232.984181,1407 220,1394.01582 220,1378 C220,1361.98418 232.984181,1349 249,1349 C265.015819,1349 278,1361.98418 278,1378 Z" id="icon-提示-错误警示"></path>
        </g>
    </g>
</svg>