<?xml version="1.0" encoding="UTF-8"?>
<svg width="14px" height="14px" viewBox="0 0 14 14" version="1.1" xmlns="http://www.w3.org/2000/svg" xmlns:xlink="http://www.w3.org/1999/xlink">
    <!-- Generator: Sketch 49.3 (51167) - http://www.bohemiancoding.com/sketch -->
    <title>icon-关注</title>
    <desc>Created with Sketch.</desc>
    <defs></defs>
    <g id="主要页面" stroke="none" stroke-width="1" fill="none" fill-rule="evenodd">
        <g id="切图" transform="translate(-367.000000, -1270.000000)" fill="#FFFFFF">
            <path d="M380.371239,1281.13033 L379.386179,1281.13033 L379.386179,1280.14485 C379.386179,1279.79778 379.104913,1279.51609 378.757418,1279.51609 C378.409922,1279.51609 378.128657,1279.79778 378.128657,1280.14485 L378.128657,1281.13033 L377.143597,1281.13033 C376.796102,1281.13033 376.514836,1281.41202 376.514836,1281.75909 C376.514836,1282.10617 376.796102,1282.38786 377.143597,1282.38786 L378.128657,1282.38786 L378.128657,1283.37292 C378.128657,1283.71999 378.409922,1284.00168 378.757418,1284.00168 C379.104913,1284.00168 379.386179,1283.71999 379.386179,1283.37292 L379.386179,1282.38786 L380.371239,1282.38786 C380.718734,1282.38786 381,1282.10617 381,1281.75909 C381,1281.41202 380.718734,1281.13033 380.371239,1281.13033 M373.914279,1276.45822 C372.480284,1276.45822 371.313722,1275.29166 371.313722,1273.85766 C371.313722,1272.42408 372.480284,1271.25752 373.914279,1271.25752 C375.348274,1271.25752 376.514836,1272.42408 376.514836,1273.85766 C376.514836,1275.29166 375.348274,1276.45822 373.914279,1276.45822 M378.180634,1278.71463 C378.388964,1278.43672 378.331956,1278.0427 378.054044,1277.83437 C377.511632,1277.42819 376.920596,1277.11339 376.298961,1276.88452 C377.194317,1276.17779 377.772358,1275.085 377.772358,1273.85766 C377.772358,1271.73077 376.041588,1270 373.914279,1270 C371.78697,1270 370.056199,1271.73077 370.056199,1273.85766 C370.056199,1275.08752 370.636336,1276.18198 371.535465,1276.88913 C368.892991,1277.86161 367,1280.39678 367,1283.37292 C367,1283.71999 367.281266,1284.00168 367.628761,1284.00168 C367.975838,1284.00168 368.257523,1283.71999 368.257523,1283.37292 C368.257523,1280.25342 370.795203,1277.71574 373.914279,1277.71574 C375.146651,1277.71574 376.317405,1278.10473 377.300368,1278.84122 C377.578281,1279.04871 377.972724,1278.99296 378.180634,1278.71463" id="icon-关注"></path>
        </g>
    </g>
</svg>