<?xml version="1.0" encoding="UTF-8"?>
<svg width="18px" height="18px" viewBox="0 0 18 18" version="1.1" xmlns="http://www.w3.org/2000/svg" xmlns:xlink="http://www.w3.org/1999/xlink">
    <!-- Generator: Sketch 49.3 (51167) - http://www.bohemiancoding.com/sketch -->
    <title>二级页-热门标签icom</title>
    <desc>Created with Sketch.</desc>
    <defs>
        <linearGradient x1="0%" y1="0%" x2="100%" y2="100%" id="linearGradient-1">
            <stop stop-color="#63CEFF" offset="0%"></stop>
            <stop stop-color="#238EF2" offset="100%"></stop>
        </linearGradient>
    </defs>
    <g id="主要页面" stroke="none" stroke-width="1" fill="none" fill-rule="evenodd">
        <g id="切图" transform="translate(-35.000000, -1455.000000)" fill="url(#linearGradient-1)">
            <path d="M47.4362,1467.2766 C47.4362,1467.6744 47.1932,1468.0158 46.8176,1468.1472 C46.715,1468.1826 46.6112,1468.2 46.5086,1468.2 C46.2344,1468.2 45.9722,1468.0764 45.7916,1467.8496 L45.7916,1467.849 L44.1236,1465.7448 C44.0828,1465.6926 44.0282,1465.6854 44,1465.6854 C43.9712,1465.6854 43.9172,1465.6926 43.8758,1465.7448 L42.2078,1467.849 C41.9606,1468.1616 41.558,1468.2774 41.1824,1468.1472 C40.8062,1468.0158 40.5632,1467.6744 40.5632,1467.2766 L40.5632,1460.7222 C40.5632,1460.214 40.9772,1459.8 41.4854,1459.8 L46.514,1459.8 C47.0228,1459.8 47.4362,1460.214 47.4362,1460.7222 L47.4362,1467.2766 Z M48.2,1455 L39.8,1455 C37.16,1455 35,1457.16 35,1459.8 L35,1468.2 C35,1470.84 37.16,1473 39.8,1473 L48.2,1473 C50.84,1473 53,1470.84 53,1468.2 L53,1459.8 C53,1457.16 50.84,1455 48.2,1455 Z" id="二级页-热门标签icom"></path>
        </g>
    </g>
</svg>