<?xml version="1.0" encoding="UTF-8"?>
<svg width="268px" height="26px" viewBox="0 0 268 26" version="1.1" xmlns="http://www.w3.org/2000/svg" xmlns:xlink="http://www.w3.org/1999/xlink">
    <!-- Generator: Sketch 49.3 (51167) - http://www.bohemiancoding.com/sketch -->
    <title>忘记密码-步骤1</title>
    <desc>Created with Sketch.</desc>
    <defs></defs>
    <g id="主要页面" stroke="none" stroke-width="1" fill="none" fill-rule="evenodd">
        <g id="切图" transform="translate(-598.000000, -1352.000000)">
            <g id="忘记密码-步骤1" transform="translate(598.000000, 1352.000000)">
                <circle id="Oval" fill="#00C87D" cx="12" cy="13" r="12"></circle>
                <path d="M188,25.5 C181.096441,25.5 175.5,19.9035594 175.5,13 C175.5,6.09644063 181.096441,0.5 188,0.5 C194.903559,0.5 200.5,6.09644063 200.5,13 C200.5,19.9035594 194.903559,25.5 188,25.5 Z M188,24.5 C194.351275,24.5 199.5,19.3512746 199.5,13 C199.5,6.64872538 194.351275,1.5 188,1.5 C181.648725,1.5 176.5,6.64872538 176.5,13 C176.5,19.3512746 181.648725,24.5 188,24.5 Z" id="Oval-Copy" fill="#349DFF" fill-rule="nonzero"></path>
                <path d="M12.776,7.576 L12.776,19 L11.464,19 L11.464,9.176 C10.7599965,9.90133696 9.86400544,10.4239984 8.776,10.744 L8.776,9.432 C9.27733584,9.29333264 9.81066384,9.05866832 10.376,8.728 C10.8986693,8.4079984 11.3573314,8.02400224 11.752,7.576 L12.776,7.576 Z" id="1" fill="#FFFFFF"></path>
                <path d="M187.96,7.352 C189.016005,7.352 189.88533,7.65599696 190.568,8.264 C191.25067,8.88266976 191.592,9.68799504 191.592,10.68 C191.592,11.6613382 191.21867,12.5573293 190.472,13.368 C190.034664,13.826669 189.245339,14.4399962 188.104,15.208 C186.653326,16.1786715 185.821334,17.0533294 185.608,17.832 L191.608,17.832 L191.608,19 L183.992,19 C183.992,17.9439947 184.370663,17.0000042 185.128,16.168 C185.618669,15.6133306 186.445328,14.936004 187.608,14.136 C188.514671,13.4853301 189.111999,13.0106682 189.4,12.712 C189.98667,12.0719968 190.28,11.389337 190.28,10.664 C190.28,9.9706632 190.072002,9.43200192 189.656,9.048 C189.239998,8.66399808 188.65867,8.472 187.912,8.472 C187.111996,8.472 186.509335,8.738664 186.104,9.272 C185.645331,9.79466928 185.410667,10.5573283 185.4,11.56 L184.088,11.56 C184.088,10.2906603 184.44533,9.27200384 185.16,8.504 C185.864004,7.73599616 186.797328,7.352 187.96,7.352 Z" id="2" fill="#349DFF"></path>
                <path d="M48.124,7.388 C46.79866,7.74266844 45.300675,8.00399916 43.63,8.172 L43.63,10.79 L48.208,10.79 L48.208,11.546 L43.63,11.546 L43.63,14.066 L49.272,14.066 L49.272,14.808 L43.63,14.808 L43.63,18.056 C43.63,18.8493373 43.2380039,19.246 42.454,19.246 L40.284,19.246 L40.116,18.518 C41.0680048,18.5553335 41.7586645,18.574 42.188,18.574 C42.654669,18.574 42.888,18.340669 42.888,17.874 L42.888,14.808 L36.742,14.808 L36.742,14.066 L42.888,14.066 L42.888,11.546 L37.918,11.546 L37.918,10.79 L42.888,10.79 L42.888,8.242 C41.291992,8.37266732 39.6213421,8.438 37.876,8.438 L37.624,7.752 C41.749354,7.73333324 45.1279868,7.3973366 47.76,6.744 L48.124,7.388 Z M50.854,9.418 L53.024,9.418 L53.024,6.604 L53.78,6.604 L53.78,9.418 L55.6,9.418 L55.6,10.16 L53.78,10.16 L53.78,10.972 C54.4333366,11.63467 55.1099965,12.4186621 55.81,13.324 L55.376,13.996 C54.7786637,13.0439952 54.246669,12.2693363 53.78,11.672 L53.78,19.302 L53.024,19.302 L53.024,11.742 C52.5013307,13.2913411 51.8013377,14.6726606 50.924,15.886 L50.588,15.088 C51.7266724,13.6506595 52.529331,12.0080092 52.996,10.16 L50.854,10.16 L50.854,9.418 Z M55.068,18.84 C55.6840031,17.9253288 56.1179987,16.9546718 56.37,15.928 C56.5566676,15.0133288 56.65,13.8840067 56.65,12.54 L56.65,7.262 L60.962,7.262 L60.962,17.818 C60.962,18.1446683 61.097332,18.308 61.368,18.308 L61.858,18.308 C62.0446676,18.308 62.2033327,18.2753337 62.334,18.21 C62.4646673,18.135333 62.5579997,17.9766679 62.614,17.734 C62.6700003,17.4073317 62.698,16.6186729 62.698,15.368 L63.412,15.578 C63.412,16.4740045 63.3793337,17.2159971 63.314,17.804 C63.2579997,18.3080025 63.1133345,18.6486658 62.88,18.826 C62.6746656,18.9566673 62.3526689,19.022 61.914,19.022 L61.368,19.022 C60.5839961,19.022 60.192,18.6346705 60.192,17.86 L60.192,7.99 L57.406,7.99 L57.406,12.54 C57.406,14.0613409 57.2846679,15.3213283 57.042,16.32 C56.7899987,17.3933387 56.3373366,18.4153285 55.684,19.386 L55.068,18.84 Z M71.504,10.734 L75.382,10.734 L75.382,11.434 L71.504,11.434 L71.504,10.734 Z M69.768,18.126 L74.36,18.126 C74.9293362,16.5766589 75.4286645,14.6773446 75.858,12.428 L76.586,12.624 C76.1846647,14.6680102 75.6853363,16.5019919 75.088,18.126 L77.356,18.126 L77.356,18.854 L69.768,18.854 L69.768,18.126 Z M70.888,12.848 C71.354669,14.0426726 71.7699982,15.3913258 72.134,16.894 L71.476,17.062 C71.1213316,15.6153261 70.7060024,14.2853394 70.23,13.072 L70.888,12.848 Z M73.044,12.442 C73.436002,13.5246721 73.7906651,14.8079926 74.108,16.292 L73.45,16.46 C73.179332,15.1906603 72.8246689,13.9260063 72.386,12.666 L73.044,12.442 Z M73.758,6.688 C74.495337,8.51734248 75.7413246,10.1179931 77.496,11.49 L77.076,12.12 C75.4519919,10.8693271 74.2293374,9.30600938 73.408,7.43 C72.4466619,9.46467684 71.2333407,11.0373278 69.768,12.148 L69.376,11.546 C70.9626746,10.2953271 72.1899957,8.67600994 73.058,6.688 L73.758,6.688 Z M68.284,8.018 L64.826,8.018 L64.826,7.318 L69.04,7.318 L68.382,13.072 L69.306,13.072 C69.306,16.1706822 69.1753346,17.9673309 68.914,18.462 C68.6339986,18.9380024 68.0740042,19.176 67.234,19.176 C67.037999,19.176 66.706669,19.1666668 66.24,19.148 L66.03,18.476 C66.5900028,18.5226669 66.9399993,18.546 67.08,18.546 C67.7800035,18.546 68.2093325,18.312669 68.368,17.846 C68.5173341,17.3513309 68.592,15.9933444 68.592,13.772 L65.008,13.772 L65.666,9.068 L66.366,9.11 L65.792,13.072 L67.654,13.072 L68.284,8.018 Z M67.654,15.914 C66.7673289,16.2593351 65.7266726,16.5486655 64.532,16.782 L64.434,16.054 C65.6286726,15.8673324 66.7019952,15.5920018 67.654,15.228 L67.654,15.914 Z M87.408,8.088 L83.39,8.088 L83.39,7.346 L91.174,7.346 L91.174,8.088 L88.178,8.088 L88.178,12.274 L90.992,12.274 L90.992,12.988 L88.178,12.988 L88.178,18.14 L91.468,18.14 L91.468,18.882 L82.97,18.882 L82.97,18.14 L84.454,18.14 L84.454,10.566 L85.196,10.566 L85.196,18.14 L87.408,18.14 L87.408,8.088 Z M80.198,6.758 C81.1126712,7.46733688 81.90133,8.20466284 82.564,8.97 L82.046,9.502 C81.4206635,8.7553296 80.6273381,8.0086704 79.666,7.262 L80.198,6.758 Z M78.644,10.958 L81.486,10.958 L81.486,17.258 C82.0460028,16.791331 82.5919973,16.2920027 83.124,15.76 L83.32,16.558 C82.5173293,17.3606707 81.6820043,18.0606637 80.814,18.658 L80.52,17.958 C80.6880008,17.7993325 80.772,17.6406675 80.772,17.482 L80.772,11.7 L78.644,11.7 L78.644,10.958 Z" id="手机验证" fill="#1E252F"></path>
                <polygon id="Page-1" fill="#F0F0F0" points="145.663144 12.3331271 116 12.3331271 116 13.6666292 145.663144 13.6666292 145.663144 14.9999437 151.995934 12.9998781 145.663144 11"></polygon>
                <path d="M224.782,7.794 L224.782,10.524 L224.04,10.524 L224.04,8.494 L213.96,8.494 L213.96,10.524 L213.218,10.524 L213.218,7.794 L218.706,7.794 C218.547333,7.41133142 218.379334,7.04266844 218.202,6.688 L218.986,6.548 C219.098001,6.80000126 219.261332,7.21533044 219.476,7.794 L224.782,7.794 Z M218.664,15.13 L219.42,15.13 L219.42,18.014 L223.214,18.014 L223.214,15.494 L223.97,15.494 L223.97,19.386 L223.214,19.386 L223.214,18.714 L214.982,18.714 L214.982,19.372 L214.24,19.372 L214.24,15.592 L214.982,15.592 L214.982,18.014 L218.664,18.014 L218.664,15.13 Z M218.174,8.914 C218.86467,9.55800322 219.391998,10.1273309 219.756,10.622 L219.182,11.028 C218.789998,10.4773306 218.267337,9.88933646 217.614,9.264 L218.174,8.914 Z M222.556,9.698 C221.20266,11.3500083 219.471344,12.7033281 217.362,13.758 C217.464667,13.9166675 217.651332,13.996 217.922,13.996 L220.764,13.996 C221.128002,13.996 221.384666,13.9213341 221.534,13.772 C221.748668,13.575999 221.888666,13.0346711 221.954,12.148 L222.654,12.372 C222.57,13.4546721 222.378668,14.1219987 222.08,14.374 C221.846666,14.570001 221.459336,14.668 220.918,14.668 L217.698,14.668 C217.128664,14.668 216.774001,14.4766686 216.634,14.094 C215.476661,14.6073359 214.258673,15.0366649 212.98,15.382 L212.686,14.738 C214.086007,14.3646648 215.364661,13.907336 216.522,13.366 L216.522,10.44 L217.264,10.44 L217.264,13.002 C219.214676,11.9846616 220.787327,10.738674 221.982,9.264 L222.556,9.698 Z M223.06,10.678 C224.040005,11.7980056 224.777331,12.7779958 225.272,13.618 L224.67,14.024 C224.06333,13.0533285 223.340004,12.0686717 222.5,11.07 L223.06,10.678 Z M215.808,10.076 C215.406665,11.3453397 214.83267,12.4419954 214.086,13.366 L213.456,12.974 C214.20267,12.0873289 214.762665,11.0746724 215.136,9.936 L215.808,10.076 Z M231.18,11.588 L231.18,18.63 L230.466,18.63 L230.466,17.776 L228.73,17.776 L228.73,18.896 L228.016,18.896 L228.016,12.834 C227.661332,13.5060034 227.292669,14.1219972 226.91,14.682 L226.518,14.052 C227.647339,12.3906584 228.398665,10.4400112 228.772,8.2 L226.924,8.2 L226.924,7.472 L231.628,7.472 L231.628,8.2 L229.472,8.2 C229.275999,9.45067292 228.977335,10.579995 228.576,11.588 L231.18,11.588 Z M228.73,17.062 L230.466,17.062 L230.466,12.288 L228.73,12.288 L228.73,17.062 Z M233.322,9.082 L234.064,9.152 L233.42,12.792 L236.626,12.792 L237.368,7.99 L232.328,7.99 L232.328,7.262 L238.194,7.262 L237.382,12.792 L238.922,12.792 C238.922,16.1053499 238.740002,18.0139975 238.376,18.518 C238.011998,19.0220025 237.246672,19.274 236.08,19.274 C235.669331,19.274 235.240002,19.2600001 234.792,19.232 L234.568,18.518 L235.898,18.574 C236.980672,18.574 237.629332,18.3313358 237.844,17.846 C238.077335,17.3233307 238.194,15.8766785 238.194,13.506 L232.566,13.506 L233.322,9.082 Z M232.034,15.508 L237.074,15.508 L237.074,16.236 L232.034,16.236 L232.034,15.508 Z M248.96,6.632 C248.838666,7.0053352 248.666001,7.39733128 248.442,7.808 L252.586,7.808 L252.586,8.48 C252.072664,9.44133814 251.302672,10.2766631 250.276,10.986 C251.106671,11.4060021 252.123994,11.7606652 253.328,12.05 L253.02,12.764 C251.63866,12.4186649 250.486005,11.975336 249.562,11.434 C248.591328,11.975336 247.410674,12.4326648 246.02,12.806 L245.726,12.134 C246.930006,11.8259985 247.984662,11.4480022 248.89,11 C248.208663,10.5146642 247.681335,9.9453366 247.308,9.292 C246.999998,9.59066816 246.650002,9.88933184 246.258,10.188 L245.81,9.614 C246.995339,8.7739958 247.797998,7.75200602 248.218,6.548 L248.96,6.632 Z M247.784,8.76 C248.176002,9.47867026 248.777996,10.0899975 249.59,10.594 C250.523338,9.99666368 251.241997,9.3013373 251.746,8.508 L247.994,8.508 C247.91,8.59200042 247.84,8.67599958 247.784,8.76 Z M244.326,6.926 C243.999332,7.97133856 243.584003,8.96532862 243.08,9.908 L243.08,19.386 L242.338,19.386 L242.338,11.168 C241.908665,11.8120032 241.386003,12.4886631 240.77,13.198 L240.532,12.442 C241.969341,10.7153247 243.000664,8.76934416 243.626,6.604 L244.326,6.926 Z M244.536,9.04 L245.25,9.04 L245.25,16.936 L244.536,16.936 L244.536,9.04 Z M250.696,12.848 C250.182664,13.2960022 249.646003,13.6739985 249.086,13.982 C248.497997,14.2993349 247.737338,14.6119985 246.804,14.92 L246.426,14.318 C247.256671,14.0846655 247.97533,13.8186682 248.582,13.52 C249.151336,13.2213318 249.664664,12.8853352 250.122,12.512 L250.696,12.848 Z M251.97,13.926 C250.859328,15.3633405 249.230677,16.3946635 247.084,17.02 L246.79,16.362 C248.852677,15.7739971 250.401995,14.8313398 251.438,13.534 L251.97,13.926 Z M246.202,18.756 C247.779341,18.3173311 249.076662,17.7993363 250.094,17.202 C251.102005,16.6046637 251.960663,15.8253381 252.67,14.864 L253.216,15.27 C252.58133,16.2500049 251.648006,17.108663 250.416,17.846 C249.137327,18.5366701 247.83534,19.0639982 246.51,19.428 L246.202,18.756 Z M262.288,9.46 C262.091999,10.0386696 261.956667,10.4166658 261.882,10.594 C262.358002,12.3300087 262.987996,13.8279937 263.772,15.088 C264.658671,13.5666591 265.116,11.6906778 265.144,9.46 L262.288,9.46 Z M265.9,9.46 C265.862666,11.9800126 265.302672,14.0799916 264.22,15.76 C265.162671,17.0666732 266.259327,18.0653299 267.51,18.756 L267.062,19.4 C265.783327,18.6906631 264.686671,17.6873398 263.772,16.39 C262.819995,17.6220062 261.564674,18.606663 260.006,19.344 L259.544,18.728 C261.149341,17.9999964 262.413995,17.0060063 263.338,15.746 C262.600663,14.5699941 261.975336,13.1653415 261.462,11.532 C261.153998,12.1293363 260.827335,12.6519978 260.482,13.1 L260.02,12.526 C261.074672,11.0606593 261.793331,9.07267922 262.176,6.562 L262.918,6.702 C262.805999,7.43933702 262.666001,8.12066354 262.498,8.746 L267.076,8.746 L267.076,9.46 L265.9,9.46 Z M256.324,17.468 C257.62134,17.0293311 258.885994,16.5066697 260.118,15.9 L260.23,16.614 C258.84866,17.2860034 257.238676,17.9253303 255.4,18.532 L255.19,17.86 C255.451335,17.7759996 255.582,17.5800015 255.582,17.272 L255.582,11.938 L258.76,11.938 L258.76,8.396 L254.826,8.396 L254.826,7.682 L259.516,7.682 L259.516,12.666 L256.324,12.666 L256.324,17.468 Z" id="密码修改" fill="#666666"></path>
            </g>
        </g>
    </g>
</svg>