<?xml version="1.0" encoding="UTF-8"?>
<svg width="12px" height="12px" viewBox="0 0 12 12" version="1.1" xmlns="http://www.w3.org/2000/svg" xmlns:xlink="http://www.w3.org/1999/xlink">
    <!-- Generator: Sketch 49.3 (51167) - http://www.bohemiancoding.com/sketch -->
    <title>文章评论-点赞icon</title>
    <desc>Created with Sketch.</desc>
    <defs></defs>
    <g id="主要页面" stroke="none" stroke-width="1" fill="none" fill-rule="evenodd">
        <g id="切图" transform="translate(-437.000000, -1422.000000)" fill="#4D545E">
            <path d="M447.753678,1428.0019 L446.768963,1432.21057 C446.722782,1432.40838 446.609693,1432.58693 446.450422,1432.71311 C446.291151,1432.83965 446.091518,1432.90911 445.888248,1432.90911 L440.551226,1432.90911 L440.551226,1427.03173 C441.028675,1426.88991 441.390852,1426.61319 441.643576,1426.19065 C441.966117,1425.64956 442.052298,1424.97212 442.128297,1424.37431 C442.199932,1423.81468 442.261386,1423.33105 442.487201,1423.16014 C442.539564,1423.12051 442.631563,1423.07142 442.819197,1423.09941 C443.290463,1423.1696 443.634095,1423.3965 443.840274,1423.77395 C444.023545,1424.11067 444.098089,1424.56594 444.055908,1425.09139 C444.027181,1425.44775 443.947182,1425.81792 443.823547,1426.16265 C443.763548,1426.32955 443.789002,1426.51537 443.890819,1426.66082 C443.993,1426.80591 444.159543,1426.89209 444.336995,1426.89209 L446.872962,1426.89209 C447.150777,1426.89209 447.408955,1427.01682 447.581316,1427.23463 C447.58168,1427.23463 447.58168,1427.23463 447.58168,1427.235 C447.754041,1427.45209 447.81695,1427.73172 447.753678,1428.0019 M438.090895,1432.26839 L438.090895,1427.78517 C438.090895,1427.43209 438.378164,1427.14482 438.731614,1427.14482 L439.460332,1427.14482 L439.460332,1432.90911 L438.731614,1432.90911 C438.378164,1432.90911 438.090895,1432.62184 438.090895,1432.26839 M448.436578,1426.55682 C448.436214,1426.55682 448.436214,1426.55682 448.436214,1426.55646 C448.055856,1426.07647 447.486045,1425.8012 446.872962,1425.8012 L445.05444,1425.8012 C445.096622,1425.59356 445.126803,1425.38411 445.143166,1425.1783 C445.202438,1424.44122 445.083167,1423.77504 444.79808,1423.25178 C444.429721,1422.57724 443.783911,1422.13979 442.979922,1422.02052 C442.545019,1421.95434 442.147206,1422.04925 441.828301,1422.2907 C441.237036,1422.73869 441.14031,1423.50014 441.046493,1424.23685 C440.983584,1424.72848 440.91304,1425.28593 440.706861,1425.63102 C440.625044,1425.76811 440.4545,1426.05392 439.714146,1426.05392 L438.731614,1426.05392 C437.776717,1426.05392 437,1426.83028 437,1427.78517 L437,1432.26839 C437,1433.22328 437.776717,1434 438.731614,1434 L445.888248,1434 C446.336605,1434 446.7766,1433.84655 447.127868,1433.56837 C447.4795,1433.28946 447.728951,1432.89565 447.831131,1432.45929 L448.815846,1428.25062 C448.95548,1427.65426 448.8173,1427.03718 448.436578,1426.55682" id="文章评论-点赞icon"></path>
        </g>
    </g>
</svg>