<?xml version="1.0" encoding="UTF-8"?>
<svg width="11px" height="11px" viewBox="0 0 11 11" version="1.1" xmlns="http://www.w3.org/2000/svg" xmlns:xlink="http://www.w3.org/1999/xlink">
    <!-- Generator: Sketch 49.3 (51167) - http://www.bohemiancoding.com/sketch -->
    <title>icon-登录注册-同意协议选择</title>
    <desc>Created with Sketch.</desc>
    <defs></defs>
    <g id="主要页面" stroke="none" stroke-width="1" fill="none" fill-rule="evenodd">
        <g id="切图" transform="translate(-262.000000, -1240.000000)" fill="#349DFF">
            <path d="M262.916667,1240 L272.083333,1240 C272.589594,1240 273,1240.41041 273,1240.91667 L273,1250.08333 C273,1250.58959 272.589594,1251 272.083333,1251 L262.916667,1251 C262.410406,1251 262,1250.58959 262,1250.08333 L262,1240.91667 C262,1240.41041 262.410406,1240 262.916667,1240 Z M270.974605,1242.94278 C270.718524,1242.68574 270.30335,1242.68574 270.047269,1242.94278 L266.343058,1246.66094 L264.95279,1245.26544 C264.696709,1245.00834 264.281535,1245.00834 264.025395,1245.26544 C263.769313,1245.52249 263.769313,1245.93922 264.025395,1246.19627 L265.87936,1248.05722 C266.135441,1248.31426 266.550674,1248.31426 266.806755,1248.05722 L270.974605,1243.87367 C271.230687,1243.61663 271.230687,1243.19989 270.974605,1242.94278 Z" id="icon-登录注册-同意协议选择"></path>
        </g>
    </g>
</svg>