<?xml version="1.0" encoding="UTF-8"?>
<svg width="13px" height="15px" viewBox="0 0 13 15" version="1.1" xmlns="http://www.w3.org/2000/svg" xmlns:xlink="http://www.w3.org/1999/xlink">
    <!-- Generator: Sketch 49.3 (51167) - http://www.bohemiancoding.com/sketch -->
    <title>分享-QQ</title>
    <desc>Created with Sketch.</desc>
    <defs></defs>
    <g id="主要页面" stroke="none" stroke-width="1" fill="none" fill-rule="evenodd">
        <g id="切图" transform="translate(-284.000000, -1365.000000)" fill="#349DFF">
            <path d="M296.786399,1374.25645 C296.786399,1374.25645 296.358531,1372.66316 295.573706,1371.69205 C295.573706,1371.69205 296.001574,1370.88759 295.28806,1369.77986 C295.28806,1369.77986 295.116993,1365 290.450911,1365 C285.785228,1365 285.613761,1369.77986 285.613761,1369.77986 C284.900247,1370.88759 285.328115,1371.69205 285.328115,1371.69205 C284.543691,1372.66316 284.115422,1374.25645 284.115422,1374.25645 C283.715999,1376.19868 284.472379,1376.54762 284.586157,1376.57807 C284.700736,1376.60852 284.957536,1376.30484 285.04287,1376.16823 C285.128604,1376.03202 285.314093,1375.59173 285.35696,1375.56128 C285.399827,1375.53124 285.471138,1375.78924 285.471138,1375.78924 C285.770806,1376.77558 286.412608,1377.48869 286.412608,1377.48869 C285.770806,1377.73147 285.328115,1378.20181 285.328115,1378.20181 C285.328115,1378.20181 284.515246,1379.44615 286.683831,1379.68893 C288.852816,1379.93171 290.279844,1379.17292 290.279844,1379.17292 L290.622378,1379.17292 C290.622378,1379.17292 292.049005,1379.93171 294.21799,1379.68893 C296.386976,1379.44615 295.573706,1378.20181 295.573706,1378.20181 C295.573706,1378.20181 295.131416,1377.73147 294.489214,1377.48869 C294.489214,1377.48869 295.131416,1376.77558 295.431084,1375.78924 C295.431084,1375.78924 295.501994,1375.53124 295.544861,1375.56128 C295.587728,1375.59173 295.773218,1376.03202 295.858952,1376.16823 C295.944685,1376.30484 296.201486,1376.60852 296.315664,1376.57807 C296.429843,1376.54762 297.186223,1376.19868 296.786399,1374.25645" id="分享-QQ"></path>
        </g>
    </g>
</svg>