<?xml version="1.0" encoding="UTF-8"?>
<svg width="12px" height="12px" viewBox="0 0 12 12" version="1.1" xmlns="http://www.w3.org/2000/svg" xmlns:xlink="http://www.w3.org/1999/xlink">
    <!-- Generator: Sketch 49.3 (51167) - http://www.bohemiancoding.com/sketch -->
    <title>文章详情-分享icon</title>
    <desc>Created with Sketch.</desc>
    <defs></defs>
    <g id="主要页面" stroke="none" stroke-width="1" fill="none" fill-rule="evenodd">
        <g id="切图" transform="translate(-392.000000, -1422.000000)" fill="#B4B4B4">
            <path d="M403.886016,1424.52409 C403.910155,1424.58261 403.923322,1424.64515 403.922956,1424.70769 C403.922956,1424.70806 403.923322,1424.70842 403.923322,1424.70879 C403.923322,1424.72927 403.913812,1424.74646 403.911252,1424.76658 C403.906498,1424.80718 403.903206,1424.84887 403.887113,1424.88727 C403.862243,1424.94908 403.824205,1425.00395 403.777024,1425.04966 L401.55257,1427.27412 C401.459671,1427.36665 401.338244,1427.4131 401.216452,1427.4131 C401.094659,1427.4131 400.973232,1427.36665 400.880333,1427.27412 C400.694535,1427.08832 400.694535,1426.78731 400.880333,1426.60188 L402.297591,1425.18462 C401.351045,1425.18572 399.98865,1425.42492 398.769626,1426.53788 C396.766447,1428.36696 396.961754,1431.14442 396.964314,1431.17222 C396.984796,1431.43372 396.79022,1431.66304 396.528713,1431.68389 C396.515546,1431.68499 396.502745,1431.68572 396.489579,1431.68572 C396.244896,1431.68572 396.037153,1431.49846 396.016306,1431.25048 C396.005334,1431.11772 395.773086,1427.98622 398.128477,1425.83565 C399.575725,1424.51421 401.173294,1424.23296 402.302711,1424.23369 L400.880333,1422.81131 C400.694535,1422.62588 400.694535,1422.32487 400.880333,1422.13907 C401.066131,1421.95364 401.366772,1421.95364 401.55257,1422.13907 L403.783973,1424.37048 C403.824571,1424.41107 403.852368,1424.45899 403.875409,1424.50836 C403.878335,1424.51421 403.883456,1424.51787 403.886016,1424.52409 Z M403.447782,1427.76041 C403.710386,1427.76041 403.923249,1427.97327 403.923249,1428.23588 L403.923249,1431.98695 C403.923249,1433.09698 403.020227,1434 401.910195,1434 L394.013054,1434 C392.903022,1434 392,1433.09698 392,1431.98695 L392,1424.43946 C392,1423.32979 392.903022,1422.42677 394.013054,1422.42677 L397.961624,1422.42677 C398.224228,1422.42677 398.437091,1422.63963 398.437091,1422.90224 C398.437091,1423.16484 398.224228,1423.3777 397.961624,1423.3777 L394.013054,1423.3777 C393.427498,1423.3777 392.950934,1423.8539 392.950934,1424.43946 L392.950934,1431.98695 C392.950934,1432.5725 393.427498,1433.04907 394.013054,1433.04907 L401.910195,1433.04907 C402.495751,1433.04907 402.972315,1432.5725 402.972315,1431.98695 L402.972315,1428.23588 C402.972315,1427.97327 403.185178,1427.76041 403.447782,1427.76041 Z" id="文章详情-分享icon"></path>
        </g>
    </g>
</svg>