<?xml version="1.0" encoding="UTF-8"?>
<svg width="32px" height="26px" viewBox="0 0 32 26" version="1.1" xmlns="http://www.w3.org/2000/svg" xmlns:xlink="http://www.w3.org/1999/xlink">
    <!-- Generator: Sketch 49.3 (51167) - http://www.bohemiancoding.com/sketch -->
    <title>icon-注册页-微信</title>
    <desc>Created with Sketch.</desc>
    <defs></defs>
    <g id="主要页面" stroke="none" stroke-width="1" fill="none" fill-rule="evenodd">
        <g id="切图" transform="translate(-233.000000, -1414.000000)" fill="#88DD4B">
            <path d="M258.517375,1429.37413 C257.838125,1429.37413 257.284,1428.82163 257.284,1428.14075 C257.284,1427.4615 257.838125,1426.9155 258.517375,1426.909 C259.196625,1426.909 259.75075,1427.4615 259.75075,1428.14075 C259.75075,1428.82163 259.196625,1429.37413 258.517375,1429.37413 M252.36675,1429.37413 C251.6875,1429.37413 251.135,1428.82163 251.135,1428.14075 C251.135,1427.4615 251.681,1426.9155 252.36675,1426.909 C253.047625,1426.909 253.600125,1427.4615 253.600125,1428.14075 C253.600125,1428.82163 253.047625,1429.37413 252.36675,1429.37413 M264.913375,1430.67737 C264.913375,1426.16638 260.39425,1422.4825 255.316125,1422.4825 C249.937375,1422.4825 245.705875,1426.15825 245.705875,1430.67737 C245.705875,1435.20138 249.943875,1438.87225 255.316125,1438.87225 C256.443875,1438.87225 257.578125,1438.58462 258.705875,1438.30513 L261.8015,1440 L260.954875,1437.17737 C263.223375,1435.476 264.913375,1433.21888 264.913375,1430.67737 M240.4815,1421.60012 C239.612125,1421.60012 238.913375,1420.89975 238.913375,1420.03038 C238.913375,1419.16262 239.612125,1418.46225 240.4815,1418.46225 C241.350875,1418.46225 242.049625,1419.16262 242.049625,1420.03038 C242.049625,1420.89975 241.350875,1421.60012 240.4815,1421.60012 M248.487875,1418.46225 C249.355625,1418.46225 250.056,1419.16262 250.056,1420.03038 C250.056,1420.89975 249.355625,1421.60012 248.487875,1421.60012 C247.6185,1421.60012 246.918125,1420.89975 246.918125,1420.03038 C246.918125,1419.16262 247.6185,1418.46225 248.487875,1418.46225 M254.61575,1421.87313 C254.97975,1421.87313 255.34375,1421.90075 255.70125,1421.9365 C254.721375,1417.38325 249.852875,1414 244.298625,1414 C238.08625,1414 233,1418.23637 233,1423.61025 C233,1426.71238 234.688375,1429.26363 237.519125,1431.23637 L236.391375,1434.63425 L240.33525,1432.65338 C241.749,1432.93125 242.88325,1433.21888 244.292125,1433.21888 C244.648,1433.21888 244.999,1433.20588 245.363,1433.17825 C245.13875,1432.421 245.012,1431.62963 245.012,1430.81063 C245.012,1425.87225 249.25,1421.87313 254.61575,1421.87313" id="icon-注册页-微信"></path>
        </g>
    </g>
</svg>