<?xml version="1.0" encoding="UTF-8"?>
<svg width="18px" height="14px" viewBox="0 0 18 14" version="1.1" xmlns="http://www.w3.org/2000/svg" xmlns:xlink="http://www.w3.org/1999/xlink">
    <!-- Generator: Sketch 49.3 (51167) - http://www.bohemiancoding.com/sketch -->
    <title>分享-微信</title>
    <desc>Created with Sketch.</desc>
    <defs></defs>
    <g id="主要页面" stroke="none" stroke-width="1" fill="none" fill-rule="evenodd">
        <g id="切图" transform="translate(-282.000000, -1407.000000)" fill="#88DD4B">
            <path d="M295.740125,1415.27838 C295.374375,1415.27838 295.076,1414.98087 295.076,1414.61425 C295.076,1414.2485 295.374375,1413.9545 295.740125,1413.951 C296.105875,1413.951 296.40425,1414.2485 296.40425,1414.61425 C296.40425,1414.98087 296.105875,1415.27838 295.740125,1415.27838 M292.42825,1415.27838 C292.0625,1415.27838 291.765,1414.98087 291.765,1414.61425 C291.765,1414.2485 292.059,1413.9545 292.42825,1413.951 C292.794875,1413.951 293.092375,1414.2485 293.092375,1414.61425 C293.092375,1414.98087 292.794875,1415.27838 292.42825,1415.27838 M299.184125,1415.98013 C299.184125,1413.55112 296.75075,1411.5675 294.016375,1411.5675 C291.120125,1411.5675 288.841625,1413.54675 288.841625,1415.98013 C288.841625,1418.41612 291.123625,1420.39275 294.016375,1420.39275 C294.623625,1420.39275 295.234375,1420.23788 295.841625,1420.08738 L297.5085,1421 L297.052625,1419.48013 C298.274125,1418.564 299.184125,1417.34863 299.184125,1415.98013 M286.0285,1411.09237 C285.560375,1411.09237 285.184125,1410.71525 285.184125,1410.24713 C285.184125,1409.77987 285.560375,1409.40275 286.0285,1409.40275 C286.496625,1409.40275 286.872875,1409.77987 286.872875,1410.24713 C286.872875,1410.71525 286.496625,1411.09237 286.0285,1411.09237 M290.339625,1409.40275 C290.806875,1409.40275 291.184,1409.77987 291.184,1410.24713 C291.184,1410.71525 290.806875,1411.09237 290.339625,1411.09237 C289.8715,1411.09237 289.494375,1410.71525 289.494375,1410.24713 C289.494375,1409.77987 289.8715,1409.40275 290.339625,1409.40275 M293.63925,1411.23938 C293.83525,1411.23938 294.03125,1411.25425 294.22375,1411.2735 C293.696125,1408.82175 291.074625,1407 288.083875,1407 C284.73875,1407 282,1409.28112 282,1412.17475 C282,1413.84513 282.909125,1415.21888 284.433375,1416.28112 L283.826125,1418.11075 L285.94975,1417.04412 C286.711,1417.19375 287.32175,1417.34863 288.080375,1417.34863 C288.272,1417.34863 288.461,1417.34163 288.657,1417.32675 C288.53625,1416.919 288.468,1416.49287 288.468,1416.05188 C288.468,1413.39275 290.75,1411.23938 293.63925,1411.23938" id="分享-微信"></path>
        </g>
    </g>
</svg>