<?xml version="1.0" encoding="UTF-8"?>
<svg width="15px" height="15px" viewBox="0 0 15 15" version="1.1" xmlns="http://www.w3.org/2000/svg" xmlns:xlink="http://www.w3.org/1999/xlink">
    <!-- Generator: Sketch 49.3 (51167) - http://www.bohemiancoding.com/sketch -->
    <title>个人中心-收藏选中</title>
    <desc>Created with Sketch.</desc>
    <defs></defs>
    <g id="主要页面" stroke="none" stroke-width="1" fill="none" fill-rule="evenodd">
        <g id="切图" transform="translate(-340.000000, -1479.000000)" fill="#349DFF">
            <path d="M347.5,1480.31519 C347.21285,1480.31519 346.966032,1480.46907 346.838897,1480.72597 L345.805157,1482.82151 C345.50617,1483.42737 344.928363,1483.84692 344.259369,1483.9438 L341.947702,1484.28005 C341.66362,1484.32126 341.441353,1484.50846 341.352797,1484.78158 C341.263802,1485.0547 341.333946,1485.33703 341.539116,1485.53738 L343.212039,1487.16821 C343.696029,1487.63905 343.916543,1488.31813 343.802559,1488.98405 L343.407564,1491.28739 C343.358902,1491.57016 343.468501,1491.83977 343.700851,1492.00856 C343.933202,1492.17734 344.222982,1492.1975 344.476814,1492.06467 L346.545171,1490.97701 C347.142706,1490.66311 347.856855,1490.66311 348.455267,1490.97701 L350.523186,1492.06423 C350.777018,1492.19794 351.066798,1492.17734 351.299149,1492.00856 C351.531499,1491.83977 351.641098,1491.57016 351.592436,1491.28739 L351.197441,1488.98449 C351.083457,1488.31813 351.303971,1487.63905 351.787961,1487.16821 L353.460884,1485.53738 C353.666054,1485.33703 353.736198,1485.0547 353.647203,1484.78158 C353.558647,1484.50846 353.33638,1484.32126 353.052737,1484.28005 L350.740192,1483.9438 C350.071637,1483.84692 349.49383,1483.42737 349.194843,1482.82107 L348.161103,1480.72597 C348.033968,1480.46907 347.78715,1480.31519 347.5,1480.31519 M344.131796,1493.46666 C343.708304,1493.46666 343.287881,1493.33383 342.927957,1493.07254 C342.290967,1492.61004 341.978389,1491.84065 342.111224,1491.06512 L342.506219,1488.76223 C342.547429,1488.5233 342.468079,1488.27911 342.294474,1488.10989 L340.621551,1486.47949 C340.057772,1485.92974 339.85874,1485.12353 340.10205,1484.37519 C340.345361,1483.62684 340.979721,1483.09156 341.758753,1482.97845 L344.07042,1482.64264 C344.3111,1482.60757 344.518462,1482.4572 344.625431,1482.23975 L345.659609,1480.14378 C346.007697,1479.4384 346.713077,1479 347.5,1479 C348.286923,1479 348.992303,1479.4384 349.340391,1480.14378 L350.374569,1482.23932 C350.481538,1482.4572 350.6889,1482.60757 350.929142,1482.64264 L353.241686,1482.97845 C354.020279,1483.09156 354.654639,1483.62684 354.89795,1484.37519 C355.14126,1485.12353 354.942228,1485.92974 354.378449,1486.47949 L352.705965,1488.10989 C352.531921,1488.27911 352.452571,1488.5233 352.493781,1488.76266 L352.888776,1491.06512 C353.021611,1491.84065 352.709033,1492.61004 352.072043,1493.07254 C351.435929,1493.53462 350.607358,1493.59555 349.911184,1493.22818 L347.843265,1492.14183 C347.628012,1492.02872 347.37155,1492.02872 347.157174,1492.14183 L345.088816,1493.22861 C344.786322,1493.38775 344.458401,1493.46666 344.131796,1493.46666" id="个人中心-收藏选中"></path>
        </g>
    </g>
</svg>