<?xml version="1.0" encoding="UTF-8"?>
<svg width="14px" height="12px" viewBox="0 0 14 12" version="1.1" xmlns="http://www.w3.org/2000/svg" xmlns:xlink="http://www.w3.org/1999/xlink">
    <!-- Generator: Sketch 49.3 (51167) - http://www.bohemiancoding.com/sketch -->
    <title>个人中心-邀请默认</title>
    <desc>Created with Sketch.</desc>
    <defs></defs>
    <g id="主要页面" stroke="none" stroke-width="1" fill="none" fill-rule="evenodd">
        <g id="切图" transform="translate(-414.000000, -1452.000000)" fill="#1E252F">
            <path d="M425.3188,1457.2008 C425.7856,1456.7252 426.0748,1456.0744 426.0748,1455.3568 C426.0748,1453.9044 424.8932,1452.7228 423.4408,1452.7228 C423.1092,1452.7228 422.8408,1452.9916 422.8408,1453.3228 C422.8408,1453.654 423.1092,1453.9228 423.4408,1453.9228 C424.2316,1453.9228 424.8748,1454.566 424.8748,1455.3568 C424.8748,1456.1476 424.2316,1456.7912 423.4408,1456.7912 C423.1092,1456.7912 422.8408,1457.0596 422.8408,1457.3912 C422.8408,1457.7224 423.1092,1457.9912 423.4408,1457.9912 C425.2932,1457.9912 426.8,1459.498 426.8,1461.3504 C426.8,1461.6816 427.0688,1461.9504 427.4,1461.9504 C427.7316,1461.9504 428,1461.6816 428,1461.3504 C428,1459.5064 426.8976,1457.918 425.3188,1457.2008 M419.6656,1457.2048 C418.5612,1457.2048 417.6632,1456.3064 417.6632,1455.2024 C417.6632,1454.0984 418.5612,1453.2 419.6656,1453.2 C420.7696,1453.2 421.668,1454.0984 421.668,1455.2024 C421.668,1456.3064 420.7696,1457.2048 419.6656,1457.2048 M421.7668,1457.6132 C422.4396,1457.026 422.868,1456.164 422.868,1455.2024 C422.868,1453.4368 421.4312,1452 419.6656,1452 C417.8996,1452 416.4632,1453.4368 416.4632,1455.2024 C416.4632,1456.164 416.8912,1457.026 417.5644,1457.6132 C415.4784,1458.45 414,1460.4888 414,1462.87 C414,1463.2012 414.2688,1463.47 414.6,1463.47 C414.9316,1463.47 415.2,1463.2012 415.2,1462.87 C415.2,1460.408 417.2032,1458.4048 419.6656,1458.4048 C422.1276,1458.4048 424.1308,1460.408 424.1308,1462.87 C424.1308,1463.2012 424.3996,1463.47 424.7308,1463.47 C425.0624,1463.47 425.3308,1463.2012 425.3308,1462.87 C425.3308,1460.4888 423.8524,1458.45 421.7668,1457.6132" id="个人中心-邀请默认"></path>
        </g>
    </g>
</svg>