<?xml version="1.0" encoding="UTF-8"?>
<svg width="14px" height="14px" viewBox="0 0 14 14" version="1.1" xmlns="http://www.w3.org/2000/svg" xmlns:xlink="http://www.w3.org/1999/xlink">
    <!-- Generator: Sketch 49.3 (51167) - http://www.bohemiancoding.com/sketch -->
    <title>个人中心-关注选中</title>
    <desc>Created with Sketch.</desc>
    <defs></defs>
    <g id="主要页面" stroke="none" stroke-width="1" fill="none" fill-rule="evenodd">
        <g id="切图" transform="translate(-390.000000, -1479.000000)" fill="#349DFF">
            <path d="M403.371239,1490.13033 L402.386179,1490.13033 L402.386179,1489.14485 C402.386179,1488.79778 402.104913,1488.51609 401.757418,1488.51609 C401.409922,1488.51609 401.128657,1488.79778 401.128657,1489.14485 L401.128657,1490.13033 L400.143597,1490.13033 C399.796102,1490.13033 399.514836,1490.41202 399.514836,1490.75909 C399.514836,1491.10617 399.796102,1491.38786 400.143597,1491.38786 L401.128657,1491.38786 L401.128657,1492.37292 C401.128657,1492.71999 401.409922,1493.00168 401.757418,1493.00168 C402.104913,1493.00168 402.386179,1492.71999 402.386179,1492.37292 L402.386179,1491.38786 L403.371239,1491.38786 C403.718734,1491.38786 404,1491.10617 404,1490.75909 C404,1490.41202 403.718734,1490.13033 403.371239,1490.13033 M396.914279,1485.45822 C395.480284,1485.45822 394.313722,1484.29166 394.313722,1482.85766 C394.313722,1481.42408 395.480284,1480.25752 396.914279,1480.25752 C398.348274,1480.25752 399.514836,1481.42408 399.514836,1482.85766 C399.514836,1484.29166 398.348274,1485.45822 396.914279,1485.45822 M401.180634,1487.71463 C401.388964,1487.43672 401.331956,1487.0427 401.054044,1486.83437 C400.511632,1486.42819 399.920596,1486.11339 399.298961,1485.88452 C400.194317,1485.17779 400.772358,1484.085 400.772358,1482.85766 C400.772358,1480.73077 399.041588,1479 396.914279,1479 C394.78697,1479 393.056199,1480.73077 393.056199,1482.85766 C393.056199,1484.08752 393.636336,1485.18198 394.535465,1485.88913 C391.892991,1486.86161 390,1489.39678 390,1492.37292 C390,1492.71999 390.281266,1493.00168 390.628761,1493.00168 C390.975838,1493.00168 391.257523,1492.71999 391.257523,1492.37292 C391.257523,1489.25342 393.795203,1486.71574 396.914279,1486.71574 C398.146651,1486.71574 399.317405,1487.10473 400.300368,1487.84122 C400.578281,1488.04871 400.972724,1487.99296 401.180634,1487.71463" id="个人中心-关注选中"></path>
        </g>
    </g>
</svg>