<?xml version="1.0" encoding="UTF-8"?>
<svg width="14px" height="14px" viewBox="0 0 14 14" version="1.1" xmlns="http://www.w3.org/2000/svg" xmlns:xlink="http://www.w3.org/1999/xlink">
    <!-- Generator: Sketch 49.3 (51167) - http://www.bohemiancoding.com/sketch -->
    <title>个人中心-消息选中</title>
    <desc>Created with Sketch.</desc>
    <defs></defs>
    <g id="主要页面" stroke="none" stroke-width="1" fill="none" fill-rule="evenodd">
        <g id="切图" transform="translate(-365.000000, -1480.000000)" fill="#349DFF">
            <path d="M374.499851,1492.86076 L369.500149,1492.86076 C369.186555,1492.86076 368.932044,1493.11527 368.932044,1493.42887 C368.932044,1493.74246 369.186555,1493.99697 369.500149,1493.99697 L374.499851,1493.99697 C374.813824,1493.99697 375.067956,1493.74246 375.067956,1493.42887 C375.067956,1493.11527 374.813824,1492.86076 374.499851,1492.86076 Z M375.847017,1490.52433 L368.153361,1490.52433 L368.153361,1486.33437 C368.153361,1484.21307 369.878885,1482.48716 372.000189,1482.48716 C374.121115,1482.48716 375.847017,1484.21307 375.847017,1486.33437 L375.847017,1490.52433 Z M378.431895,1490.52433 L376.983227,1490.52433 L376.983227,1486.33437 C376.983227,1483.77903 375.049019,1481.66909 372.568294,1481.38618 L372.568294,1480.5681 C372.568294,1480.25451 372.314162,1480 372.000189,1480 C371.686217,1480 371.432084,1480.25451 371.432084,1480.5681 L371.432084,1481.38618 C368.951359,1481.66909 367.017151,1483.77903 367.017151,1486.33437 L367.017151,1490.52433 L365.568105,1490.52433 C365.254511,1490.52433 365,1490.77884 365,1491.09244 C365,1491.40603 365.254511,1491.66054 365.568105,1491.66054 L378.431895,1491.66054 C378.745868,1491.66054 379,1491.40603 379,1491.09244 C379,1490.77884 378.745868,1490.52433 378.431895,1490.52433 Z" id="个人中心-消息选中"></path>
        </g>
    </g>
</svg>