<?xml version="1.0" encoding="UTF-8"?>
<svg width="15px" height="14px" viewBox="0 0 15 14" version="1.1" xmlns="http://www.w3.org/2000/svg" xmlns:xlink="http://www.w3.org/1999/xlink">
    <!-- Generator: Sketch 49.3 (51167) - http://www.bohemiancoding.com/sketch -->
    <title>个人中心-积分选中</title>
    <desc>Created with Sketch.</desc>
    <defs></defs>
    <g id="主要页面" stroke="none" stroke-width="1" fill="none" fill-rule="evenodd">
        <g id="切图" transform="translate(-315.000000, -1480.000000)" fill="#349DFF">
            <path d="M324.509428,1484.2874 L320.491595,1484.2874 C320.136312,1484.2874 319.848742,1484.5754 319.848742,1484.93026 C319.848742,1485.28511 320.136312,1485.57311 320.491595,1485.57311 L324.509428,1485.57311 C324.864711,1485.57311 325.152281,1485.28511 325.152281,1484.93026 C325.152281,1484.5754 324.864711,1484.2874 324.509428,1484.2874 M328.616403,1485.16468 L322.750582,1491.6455 C322.630154,1491.77278 322.388441,1491.76207 322.287299,1491.65579 L316.375192,1485.13554 C316.27405,1485.0284 316.256907,1484.8664 316.334478,1484.74083 L318.364609,1481.44128 C318.425465,1481.34271 318.527036,1481.28571 318.64275,1481.28571 L326.356559,1481.28571 C326.46713,1481.28571 326.576415,1481.34699 326.634272,1481.44128 L328.666974,1484.75968 C328.743688,1484.88526 328.726973,1485.04725 328.616403,1485.16468 M329.763681,1484.08855 L327.730979,1480.77014 C327.439981,1480.29528 326.91327,1480 326.356559,1480 L318.64275,1480 C318.07961,1480 317.566613,1480.28628 317.270044,1480.76671 L315.239914,1484.06626 C314.857202,1484.68726 314.940344,1485.49082 315.432341,1486.00982 L321.344447,1492.53007 C321.647017,1492.84978 322.073443,1493.03278 322.51444,1493.03278 C322.955437,1493.03278 323.381435,1492.84978 323.69429,1492.51892 L329.560111,1486.03811 C330.058965,1485.51054 330.142965,1484.70869 329.763681,1484.08855" id="个人中心-积分选中"></path>
        </g>
    </g>
</svg>