<?xml version="1.0" encoding="UTF-8"?>
<svg width="13px" height="14px" viewBox="0 0 13 14" version="1.1" xmlns="http://www.w3.org/2000/svg" xmlns:xlink="http://www.w3.org/1999/xlink">
    <!-- Generator: Sketch 49.3 (51167) - http://www.bohemiancoding.com/sketch -->
    <title>个人中心-个人选中</title>
    <desc>Created with Sketch.</desc>
    <defs></defs>
    <g id="主要页面" stroke="none" stroke-width="1" fill="none" fill-rule="evenodd">
        <g id="切图" transform="translate(-438.000000, -1480.000000)" fill="#349DFF">
            <path d="M442.05553,1483.62681 C442.05553,1482.27877 443.152163,1481.18214 444.500197,1481.18214 C445.848231,1481.18214 446.94447,1482.27877 446.94447,1483.62681 C446.94447,1484.97484 445.848231,1486.07108 444.500197,1486.07108 C443.152163,1486.07108 442.05553,1484.97484 442.05553,1483.62681 M446.736413,1486.47577 C447.581249,1485.8114 448.12661,1484.78255 448.12661,1483.62681 C448.12661,1481.62702 446.499591,1480 444.500197,1480 C442.500409,1480 440.87339,1481.62702 440.87339,1483.62681 C440.87339,1484.78255 441.418751,1485.8114 442.263587,1486.47577 C439.77991,1487.39035 438,1489.77354 438,1492.57088 C438,1492.89715 438.264799,1493.16195 438.59107,1493.16195 C438.917735,1493.16195 439.182141,1492.89715 439.182141,1492.57088 C439.182141,1489.63878 441.5677,1487.25322 444.500197,1487.25322 C447.4323,1487.25322 449.817859,1489.63878 449.817859,1492.57088 C449.817859,1492.89715 450.082265,1493.16195 450.40893,1493.16195 C450.735201,1493.16195 451,1492.89715 451,1492.57088 C451,1489.77354 449.22009,1487.39035 446.736413,1486.47577" id="个人中心-个人选中"></path>
        </g>
    </g>
</svg>