<?xml version="1.0" encoding="UTF-8"?>
<svg width="18px" height="18px" viewBox="0 0 18 18" version="1.1" xmlns="http://www.w3.org/2000/svg" xmlns:xlink="http://www.w3.org/1999/xlink">
    <!-- Generator: Sketch 49.3 (51167) - http://www.bohemiancoding.com/sketch -->
    <title>二级页面-行情icon</title>
    <desc>Created with Sketch.</desc>
    <defs>
        <linearGradient x1="0%" y1="0%" x2="100%" y2="100%" id="linearGradient-1">
            <stop stop-color="#FFC361" offset="0%"></stop>
            <stop stop-color="#EF9E19" offset="100%"></stop>
        </linearGradient>
    </defs>
    <g id="主要页面" stroke="none" stroke-width="1" fill="none" fill-rule="evenodd">
        <g id="切图" transform="translate(-81.000000, -1479.000000)" fill="url(#linearGradient-1)">
            <path d="M94.1178,1491.2418 L93.294,1491.2418 L93.294,1492.6632 L92.745,1492.6632 L92.745,1491.2418 L91.9218,1491.2418 L91.9218,1484.6952 L92.745,1484.6952 L92.745,1482.9 L93.294,1482.9 L93.294,1484.6952 L94.1178,1484.6952 L94.1178,1491.2418 Z M91.098,1492.0602 L90.2748,1492.0602 L90.2748,1493.1 L89.7252,1493.1 L89.7252,1492.0602 L88.902,1492.0602 L88.902,1487.9688 L89.7252,1487.9688 L89.7252,1486.6044 L90.2634,1486.6044 L90.2748,1487.9688 L91.098,1487.9688 L91.098,1492.0602 Z M88.0782,1490.9694 L87.255,1490.9694 L87.255,1492.3824 L86.706,1492.3824 L86.706,1490.9694 L85.8822,1490.9694 L85.8822,1486.059 L86.706,1486.059 L86.706,1484.6952 L87.2484,1484.6952 L87.2484,1486.059 L88.0782,1486.059 L88.0782,1490.9694 Z M94.2,1479 L85.8,1479 C83.16,1479 81,1481.1594 81,1483.8 L81,1492.2 C81,1494.8394 83.16,1497 85.8,1497 L94.2,1497 C96.84,1497 99,1494.8394 99,1492.2 L99,1483.8 C99,1481.1594 96.84,1479 94.2,1479 Z" id="二级页面-行情icon"></path>
        </g>
    </g>
</svg>