<?xml version="1.0" encoding="UTF-8"?>
<svg width="18px" height="18px" viewBox="0 0 18 18" version="1.1" xmlns="http://www.w3.org/2000/svg" xmlns:xlink="http://www.w3.org/1999/xlink">
    <!-- Generator: Sketch 49.3 (51167) - http://www.bohemiancoding.com/sketch -->
    <title>二级页-链圈局势icon</title>
    <desc>Created with Sketch.</desc>
    <defs>
        <linearGradient x1="0%" y1="0%" x2="100%" y2="100%" id="linearGradient-1">
            <stop stop-color="#FFC361" offset="0%"></stop>
            <stop stop-color="#EF9E19" offset="100%"></stop>
        </linearGradient>
    </defs>
    <g id="主要页面" stroke="none" stroke-width="1" fill="none" fill-rule="evenodd">
        <g id="切图" transform="translate(-12.000000, -1479.000000)" fill="url(#linearGradient-1)">
            <path d="M24.651,1491.852 C24.012,1491.852 23.4942,1491.3342 23.4942,1490.6952 C23.4942,1490.0556 24.012,1489.5378 24.651,1489.5378 C25.29,1489.5378 25.8078,1490.0556 25.8078,1490.6952 C25.8078,1491.3342 25.29,1491.852 24.651,1491.852 Z M21.0042,1492.8 L18.9084,1491.5898 C19.0386,1491.3642 19.1202,1491.1074 19.1412,1490.8338 L21.0042,1491.909 L22.8582,1490.8392 C22.8804,1491.1128 22.9632,1491.3684 23.0934,1491.594 L21.0042,1492.8 Z M17.3484,1491.852 C16.7094,1491.852 16.191,1491.3342 16.191,1490.6952 C16.191,1490.0556 16.7094,1489.5378 17.3484,1489.5378 C17.9874,1489.5378 18.5052,1490.0556 18.5052,1490.6952 C18.5052,1491.3342 17.9874,1491.852 17.3484,1491.852 Z M17.3484,1486.4676 L19.4466,1485.2562 C19.5804,1485.4872 19.7634,1485.6864 19.9824,1485.8376 L18.12,1486.9134 L18.12,1489.0704 C17.886,1488.9594 17.625,1488.8952 17.3484,1488.8952 L17.3484,1486.4676 Z M21.0042,1483.2 C21.6432,1483.2 22.1616,1483.7178 22.1616,1484.3568 C22.1616,1484.9958 21.6432,1485.5142 21.0042,1485.5142 C20.3652,1485.5142 19.8474,1484.9958 19.8474,1484.3568 C19.8474,1483.7178 20.3652,1483.2 21.0042,1483.2 Z M22.5618,1485.2562 L24.66,1486.4676 L24.66,1488.8958 C24.657,1488.8958 24.654,1488.8952 24.651,1488.8952 C24.378,1488.8952 24.1206,1488.9576 23.889,1489.0662 L23.889,1486.9134 L22.026,1485.8376 C22.245,1485.6864 22.428,1485.4872 22.5618,1485.2562 Z M25.2,1479 L16.8,1479 C14.16,1479 12,1481.16 12,1483.8 L12,1492.2 C12,1494.84 14.16,1497 16.8,1497 L25.2,1497 C27.8394,1497 30,1494.84 30,1492.2 L30,1483.8 C30,1481.16 27.8394,1479 25.2,1479 Z" id="二级页-链圈局势icon"></path>
        </g>
    </g>
</svg>