<?xml version="1.0" encoding="UTF-8"?>
<svg width="18px" height="18px" viewBox="0 0 18 18" version="1.1" xmlns="http://www.w3.org/2000/svg" xmlns:xlink="http://www.w3.org/1999/xlink">
    <!-- Generator: Sketch 49.3 (51167) - http://www.bohemiancoding.com/sketch -->
    <title>二级页面-交易所icon</title>
    <desc>Created with Sketch.</desc>
    <defs>
        <linearGradient x1="0%" y1="0%" x2="100%" y2="100%" id="linearGradient-1">
            <stop stop-color="#FFC361" offset="0%"></stop>
            <stop stop-color="#EF9E19" offset="100%"></stop>
        </linearGradient>
    </defs>
    <g id="主要页面" stroke="none" stroke-width="1" fill="none" fill-rule="evenodd">
        <g id="切图" transform="translate(-35.000000, -1479.000000)" fill="url(#linearGradient-1)">
            <path d="M48.9716,1487.0664 C48.9008,1487.1768 48.7784,1487.2434 48.6476,1487.244 L47.4938,1487.2326 L47.4938,1491.2952 L48.6194,1491.7734 C48.8138,1491.858 48.9062,1492.0824 48.8276,1492.2792 C48.7688,1492.4034 48.6488,1492.4868 48.512,1492.4994 L39.584,1492.4994 C39.3728,1492.509 39.1934,1492.3464 39.1838,1492.1352 C39.1754,1491.9666 39.2786,1491.813 39.4376,1491.756 L40.5176,1491.2784 L40.5176,1487.2326 L39.3638,1487.2326 C39.2354,1487.2338 39.1148,1487.1708 39.0434,1487.064 C38.9144,1486.8888 38.9522,1486.6422 39.1274,1486.5132 C39.1328,1486.509 39.1388,1486.5048 39.1448,1486.5018 L43.5782,1483.6266 C43.8338,1483.4568 44.1662,1483.4568 44.4218,1483.6266 L48.8558,1486.5294 C49.0358,1486.6458 49.0874,1486.8858 48.9716,1487.0664 Z M48.2,1479 L39.8,1479 C37.16,1479 35,1481.1594 35,1483.8 L35,1492.2 C35,1494.8394 37.16,1497 39.8,1497 L48.2,1497 C50.84,1497 53,1494.8394 53,1492.2 L53,1483.8 C53,1481.1594 50.84,1479 48.2,1479 Z M45.557,1491.1716 L46.3334,1491.1716 L46.3334,1487.2332 L45.557,1487.2332 L45.557,1491.1716 Z M43.6148,1491.1716 L44.3858,1491.1716 L44.3858,1487.2332 L43.6148,1487.2332 L43.6148,1491.1716 Z M41.6672,1491.1716 L42.4436,1491.1716 L42.4436,1487.2332 L41.6672,1487.2332 L41.6672,1491.1716 Z M44,1485.3648 C43.6892,1485.3648 43.4372,1485.6168 43.4372,1485.9276 C43.4372,1486.2384 43.6892,1486.4904 44,1486.4904 C44.3108,1486.4904 44.5628,1486.2384 44.5628,1485.9276 C44.5628,1485.6168 44.3108,1485.3648 44,1485.3648 Z" id="二级页面-交易所icon"></path>
        </g>
    </g>
</svg>