<?xml version="1.0" encoding="UTF-8"?>
<svg width="18px" height="18px" viewBox="0 0 18 18" version="1.1" xmlns="http://www.w3.org/2000/svg" xmlns:xlink="http://www.w3.org/1999/xlink">
    <!-- Generator: Sketch 49.3 (51167) - http://www.bohemiancoding.com/sketch -->
    <title>二级页面-热门活动icon</title>
    <desc>Created with Sketch.</desc>
    <defs>
        <linearGradient x1="0%" y1="0%" x2="100%" y2="100%" id="linearGradient-1">
            <stop stop-color="#63CEFF" offset="0%"></stop>
            <stop stop-color="#238EF2" offset="100%"></stop>
        </linearGradient>
    </defs>
    <g id="主要页面" stroke="none" stroke-width="1" fill="none" fill-rule="evenodd">
        <g id="切图" transform="translate(-58.000000, -1455.000000)" fill="url(#linearGradient-1)">
            <path d="M72.1036,1464.996 C72.0208,1465.143 71.8828,1465.2234 71.743,1465.2234 C71.6794,1465.2234 71.6158,1465.2072 71.557,1465.173 L70.1404,1464.3822 C69.94,1464.2658 69.868,1464.0252 69.9766,1463.8338 C70.0306,1463.7372 70.1146,1463.6676 70.2124,1463.6352 C70.3156,1463.6028 70.423,1463.6142 70.5178,1463.6688 L71.935,1464.4596 C72.1132,1464.5628 72.1822,1464.7836 72.1036,1464.996 Z M69.7366,1462.8582 C69.6346,1462.8048 69.5602,1462.71 69.5374,1462.6062 C69.5038,1462.5306 69.5104,1462.4244 69.5584,1462.3302 C69.6112,1462.227 69.7042,1462.1514 69.8074,1462.128 L71.3524,1461.687 C71.431,1461.6522 71.5354,1461.6588 71.629,1461.708 C71.7316,1461.7608 71.806,1461.8556 71.8288,1461.9594 C71.8696,1462.1478 71.7688,1462.3908 71.5582,1462.4376 L70.0138,1462.8786 C69.9808,1462.893 69.943,1462.9008 69.9034,1462.9008 C69.8494,1462.9008 69.7912,1462.8858 69.7366,1462.8582 Z M69.3472,1466.0472 C69.1858,1466.2512 68.9398,1466.3562 68.6572,1466.3478 L66.9574,1466.3412 L67.0786,1466.754 C67.2958,1467.5748 66.589,1468.4814 65.5024,1468.7754 L65.2456,1468.845 C65.2096,1468.8546 65.173,1468.8594 65.137,1468.8594 C65.0644,1468.8594 64.9918,1468.8396 64.9288,1468.803 C64.8316,1468.7466 64.762,1468.6554 64.7332,1468.545 L64.1476,1466.331 L63.4258,1466.3286 C63.4186,1466.3286 63.4108,1466.3292 63.4036,1466.3292 C62.8852,1466.3292 62.3884,1465.9512 62.2432,1465.4418 L61.9072,1464.2178 C61.7644,1463.7156 61.9864,1463.1042 62.413,1462.8264 L66.8398,1459.8966 C67.0804,1459.7436 67.3474,1459.7082 67.5916,1459.7994 C67.8388,1459.8912 68.0314,1460.106 68.1196,1460.3886 L68.1202,1460.3904 L69.4948,1465.2522 C69.5692,1465.5468 69.5158,1465.8354 69.3472,1466.0472 Z M69.1054,1460.7912 L69.8866,1459.3572 C70.0012,1459.1544 70.2388,1459.0812 70.4284,1459.191 C70.5226,1459.2462 70.5922,1459.3308 70.6234,1459.4298 C70.6564,1459.5336 70.645,1459.6434 70.591,1459.7388 L69.8098,1461.1734 C69.7552,1461.2706 69.6718,1461.3408 69.574,1461.3726 C69.5356,1461.3846 69.4966,1461.3912 69.4582,1461.3912 C69.3922,1461.3912 69.328,1461.3738 69.2686,1461.339 C69.0688,1461.2232 68.9974,1460.9832 69.1054,1460.7912 Z M71.2,1455 L62.8,1455 C60.16,1455 58,1457.1594 58,1459.8 L58,1468.2 C58,1470.8394 60.16,1473 62.8,1473 L71.2,1473 C73.84,1473 76,1470.8394 76,1468.2 L76,1459.8 C76,1457.1594 73.84,1455 71.2,1455 Z M66.1702,1466.3382 L64.927,1466.3334 L65.353,1467.945 L65.5654,1467.888 C66.0976,1467.7428 66.4474,1467.3078 66.3442,1466.9166 L66.1702,1466.3382 Z" id="二级页面-热门活动icon"></path>
        </g>
    </g>
</svg>