<?xml version="1.0" encoding="UTF-8"?>
<svg width="18px" height="18px" viewBox="0 0 18 18" version="1.1" xmlns="http://www.w3.org/2000/svg" xmlns:xlink="http://www.w3.org/1999/xlink">
    <!-- Generator: Sketch 49.3 (51167) - http://www.bohemiancoding.com/sketch -->
    <title>二级页-行业资讯icon</title>
    <desc>Created with Sketch.</desc>
    <defs>
        <linearGradient x1="0%" y1="0%" x2="100%" y2="100%" id="linearGradient-1">
            <stop stop-color="#42E5C3" offset="0%"></stop>
            <stop stop-color="#2EC8D0" offset="100%"></stop>
        </linearGradient>
    </defs>
    <g id="主要页面" stroke="none" stroke-width="1" fill="none" fill-rule="evenodd">
        <g id="切图" transform="translate(-104.000000, -1479.000000)" fill="url(#linearGradient-1)">
            <path d="M116.897,1490.2158 C116.897,1491.3114 116.009,1492.2 114.9134,1492.2 L110.0138,1492.2 C109.511,1492.2 109.103,1491.792 109.103,1491.2892 L109.103,1484.7102 C109.103,1484.2074 109.511,1483.8 110.0138,1483.8 L115.9862,1483.8 C116.4896,1483.8 116.897,1484.2074 116.897,1484.7102 L116.897,1490.2158 Z M117.2,1479 L108.8,1479 C106.16,1479 104,1481.1594 104,1483.8 L104,1492.2 C104,1494.84 106.16,1497 108.8,1497 L117.2,1497 C119.84,1497 122,1494.84 122,1492.2 L122,1483.8 C122,1481.1594 119.84,1479 117.2,1479 Z M111.8498,1489.4478 L110.567,1489.4478 C110.3738,1489.4478 110.2172,1489.6038 110.2172,1489.7976 C110.2172,1489.9908 110.3738,1490.1474 110.567,1490.1474 L111.8498,1490.1474 C112.043,1490.1474 112.1996,1489.9908 112.1996,1489.7976 C112.1996,1489.6038 112.043,1489.4478 111.8498,1489.4478 Z M115.4342,1485.852 L110.567,1485.852 C110.3738,1485.852 110.2172,1486.0086 110.2172,1486.2024 C110.2172,1486.395 110.3738,1486.5522 110.567,1486.5522 L115.4342,1486.5522 C115.628,1486.5522 115.7846,1486.395 115.7846,1486.2024 C115.7846,1486.0086 115.628,1485.852 115.4342,1485.852 Z M113.483,1487.6502 L110.567,1487.6502 C110.3738,1487.6502 110.2172,1487.8062 110.2172,1488 C110.2172,1488.1926 110.3738,1488.3498 110.567,1488.3498 L113.483,1488.3498 C113.6762,1488.3498 113.8328,1488.1926 113.8328,1488 C113.8328,1487.8062 113.6762,1487.6502 113.483,1487.6502 Z" id="二级页-行业资讯icon"></path>
        </g>
    </g>
</svg>