<?xml version="1.0" encoding="UTF-8"?>
<svg width="18px" height="18px" viewBox="0 0 18 18" version="1.1" xmlns="http://www.w3.org/2000/svg" xmlns:xlink="http://www.w3.org/1999/xlink">
    <!-- Generator: Sketch 49.3 (51167) - http://www.bohemiancoding.com/sketch -->
    <title>二级页面-币种投机icon</title>
    <desc>Created with Sketch.</desc>
    <defs>
        <linearGradient x1="0%" y1="0%" x2="100%" y2="100%" id="linearGradient-1">
            <stop stop-color="#42E5C3" offset="0%"></stop>
            <stop stop-color="#2EC8D0" offset="100%"></stop>
        </linearGradient>
    </defs>
    <g id="主要页面" stroke="none" stroke-width="1" fill="none" fill-rule="evenodd">
        <g id="切图" transform="translate(-127.000000, -1479.000000)" fill="url(#linearGradient-1)">
            <path d="M139.318,1489.2768 C139.2652,1489.455 139.0774,1489.5564 138.8992,1489.5036 L138.0364,1489.2462 L138.2284,1488.6012 L139.0918,1488.8586 C139.1776,1488.8838 139.2484,1488.9414 139.2916,1489.0206 C139.3342,1489.0998 139.3438,1489.1904 139.318,1489.2768 M139.0006,1490.343 C138.9748,1490.4294 138.9172,1490.5002 138.838,1490.5428 C138.7588,1490.586 138.6682,1490.5956 138.5812,1490.5698 L137.7184,1490.313 L137.911,1489.6674 L138.7738,1489.9242 C138.952,1489.9776 139.0534,1490.1648 139.0006,1490.343 M139.2166,1488.4374 L139.1026,1488.4032 L139.2622,1487.8662 L138.8524,1487.7444 L138.6928,1488.2814 L138.3424,1488.177 L138.5026,1487.64 L138.4042,1487.6112 L138.0058,1487.4924 L137.8522,1488.0102 L137.3674,1487.865 L137.2306,1488.3246 L137.7154,1488.4692 L137.2168,1490.142 L136.732,1489.998 L136.5952,1490.4576 L137.08,1490.6022 L136.9498,1491.039 L137.0482,1491.0678 L137.446,1491.1866 L137.5816,1490.7306 L137.9326,1490.835 L137.797,1491.2904 L138.2056,1491.4128 L138.3412,1490.9568 L138.4564,1490.9904 C138.5296,1491.0126 138.6046,1491.0234 138.679,1491.0234 C138.8056,1491.0234 138.9316,1490.9916 139.0468,1490.9298 C139.2292,1490.8308 139.3624,1490.667 139.4212,1490.4684 C139.4836,1490.2596 139.453,1490.0448 139.354,1489.8684 C139.5334,1489.7748 139.6768,1489.6116 139.7392,1489.4022 C139.798,1489.2036 139.7764,1488.9936 139.678,1488.8118 C139.579,1488.6294 139.4152,1488.4962 139.2166,1488.4374 M138.2566,1492.5 C136.5706,1492.5 135.2038,1491.1338 135.2038,1489.4478 C135.2038,1487.7618 136.5706,1486.395 138.2566,1486.395 C139.9426,1486.395 141.3088,1487.7618 141.3088,1489.4478 C141.3088,1491.1338 139.9426,1492.5 138.2566,1492.5 M134.716,1491.8928 C133.468,1491.8928 131.1736,1491.5358 131.1748,1491.0474 L131.1736,1491.0474 L131.1736,1489.7598 L131.1766,1489.7598 C131.3434,1490.1996 132.8656,1490.5446 134.7196,1490.5446 C134.8312,1490.5446 134.9434,1490.5434 135.0556,1490.5404 C135.2254,1491.0354 135.505,1491.4854 135.8728,1491.8562 C135.5104,1491.8808 135.121,1491.8928 134.716,1491.8928 M134.7502,1490.0814 C134.5258,1490.0784 132.8734,1490.0382 131.6464,1489.4478 C131.6464,1489.4478 133.024,1489.7316 134.7022,1489.5648 L134.7106,1489.6248 C134.7142,1489.7778 134.7274,1489.9302 134.7502,1490.0814 M130.6918,1488.3108 L130.6906,1488.3108 L130.6906,1487.0226 L130.6936,1487.0226 C130.8604,1487.463 132.3826,1487.8074 134.2366,1487.8074 C134.5282,1487.8074 134.8192,1487.7984 135.1102,1487.7804 C134.8846,1488.2046 134.7502,1488.6708 134.7154,1489.1496 C134.5576,1489.1538 134.3968,1489.1562 134.2324,1489.1562 C132.985,1489.1562 130.6906,1488.7986 130.6918,1488.3108 M131.6566,1486.1184 C131.6566,1486.1184 131.5984,1486.3758 131.596,1486.479 C131.5942,1486.5606 131.668,1486.7844 131.7568,1486.902 C132.0262,1487.1144 132.2806,1487.3334 133.1986,1487.529 C131.7364,1487.3862 130.7098,1487.0814 130.7098,1486.7058 C130.7098,1486.4826 131.0122,1486.278 131.6566,1486.1184 M138.9022,1485.1014 L138.9022,1485.9114 C138.7564,1485.8952 138.6094,1485.8862 138.4594,1485.8862 C137.2138,1485.8862 136.1086,1486.4628 135.421,1487.3508 C135.4006,1487.3508 135.3808,1487.3514 135.3598,1487.3514 C133.42,1487.3514 131.845,1487.0226 131.8186,1486.3788 L131.8174,1486.3788 L131.8174,1485.09 L131.821,1485.09 C131.9878,1485.5304 133.51,1485.8754 135.3634,1485.8754 C137.2012,1485.8754 138.7132,1485.5364 138.9022,1485.1014 M131.8048,1484.4564 C131.8054,1483.9284 133.3984,1483.5 135.364,1483.5 C137.3296,1483.5006 138.9226,1483.9284 138.922,1484.4564 C138.922,1484.9844 137.329,1485.4128 135.3634,1485.4128 C133.3978,1485.4128 131.8048,1484.9844 131.8048,1484.4564 M140.2,1479 L131.8,1479 C129.1594,1479 127,1481.1606 127,1483.8 L127,1492.2 C127,1494.84 129.1594,1497 131.8,1497 L140.2,1497 C142.84,1497 145,1494.84 145,1492.2 L145,1483.8 C145,1481.1606 142.84,1479 140.2,1479" id="二级页面-币种投机icon"></path>
        </g>
    </g>
</svg>