<?xml version="1.0" encoding="UTF-8"?>
<svg width="18px" height="18px" viewBox="0 0 18 18" version="1.1" xmlns="http://www.w3.org/2000/svg" xmlns:xlink="http://www.w3.org/1999/xlink">
    <!-- Generator: Sketch 49.3 (51167) - http://www.bohemiancoding.com/sketch -->
    <title>二级页-百科icon</title>
    <desc>Created with Sketch.</desc>
    <defs>
        <linearGradient x1="0%" y1="0%" x2="100%" y2="100%" id="linearGradient-1">
            <stop stop-color="#FF8282" offset="0%"></stop>
            <stop stop-color="#FF3939" offset="100%"></stop>
        </linearGradient>
    </defs>
    <g id="主要页面" stroke="none" stroke-width="1" fill="none" fill-rule="evenodd">
        <g id="切图" transform="translate(-150.000000, -1455.000000)" fill="url(#linearGradient-1)">
            <path d="M162.9,1461.2058 C162.471,1461.3132 162.1542,1461.7002 162.153,1462.1634 C162.153,1462.6236 162.471,1463.01 162.8988,1463.1192 L162.8988,1463.5452 L156.4836,1463.5452 C155.7192,1463.5452 155.1,1462.9242 155.1,1462.1616 C155.1,1461.3972 155.721,1460.7786 156.4836,1460.7786 L162.9,1460.7786 L162.9,1461.2058 Z M161.5164,1467.2214 L155.1012,1467.2214 L155.1012,1466.7954 C155.529,1466.688 155.847,1466.301 155.847,1465.8396 C155.847,1465.3782 155.529,1464.993 155.1012,1464.8832 L155.1012,1464.4578 L161.5146,1464.4578 C162.279,1464.4578 162.8988,1465.077 162.9,1465.8378 C162.9,1466.6022 162.2808,1467.2214 161.5164,1467.2214 Z M163.2,1455 L154.8,1455 C152.16,1455 150,1457.16 150,1459.8 L150,1468.2 C150,1470.84 152.16,1473 154.8,1473 L163.2,1473 C165.84,1473 168,1470.84 168,1468.2 L168,1459.8 C168,1457.16 165.84,1455 163.2,1455 Z" id="二级页-百科icon"></path>
        </g>
    </g>
</svg>