<?xml version="1.0" encoding="UTF-8"?>
<svg width="13px" height="13px" viewBox="0 0 13 13" version="1.1" xmlns="http://www.w3.org/2000/svg" xmlns:xlink="http://www.w3.org/1999/xlink">
    <!-- Generator: Sketch 49.3 (51167) - http://www.bohemiancoding.com/sketch -->
    <title>作者页面-白色分享</title>
    <desc>Created with Sketch.</desc>
    <defs></defs>
    <g id="主要页面" stroke="none" stroke-width="1" fill="none" fill-rule="evenodd">
        <g id="切图" transform="translate(-386.000000, -1272.000000)" fill="#FFFFFF">
            <path d="M398.959325,1274.73443 C398.985644,1274.79783 399,1274.86558 398.999601,1274.93333 C398.999601,1274.93373 399,1274.93413 399,1274.93452 C399,1274.95671 398.989632,1274.97533 398.986841,1274.99713 C398.981657,1275.04111 398.978068,1275.08628 398.960522,1275.12788 C398.933405,1275.19484 398.891933,1275.25427 398.840492,1275.3038 L396.415169,1277.71363 C396.313882,1277.81387 396.18149,1277.86419 396.048699,1277.86419 C395.915908,1277.86419 395.783517,1277.81387 395.682229,1277.71363 C395.479653,1277.51235 395.479653,1277.18626 395.682229,1276.98537 L397.227465,1275.45001 C396.195447,1275.4512 394.710026,1275.71033 393.380924,1276.91603 C391.196858,1278.89754 391.409801,1281.90645 391.412593,1281.93657 C391.434924,1282.21987 391.222778,1282.4683 390.937657,1282.49088 C390.923301,1282.49207 390.909344,1282.49286 390.894988,1282.49286 C390.628211,1282.49286 390.401709,1282.29 390.378979,1282.02136 C390.367016,1281.87753 390.113797,1278.48507 392.681879,1276.15528 C394.259814,1274.72373 396.001644,1274.41904 397.233048,1274.41983 L395.682229,1272.87892 C395.479653,1272.67804 395.479653,1272.35194 395.682229,1272.15066 C395.884804,1271.94978 396.212594,1271.94978 396.415169,1272.15066 L398.848068,1274.56802 C398.892332,1274.612 398.922639,1274.6639 398.947761,1274.71739 C398.950951,1274.72373 398.956534,1274.72769 398.959325,1274.73443 Z M398.481519,1278.24044 C398.767836,1278.24044 398.99992,1278.47105 398.99992,1278.75553 L398.99992,1282.81919 C398.99992,1284.02173 398.015356,1285 396.805087,1285 L388.194833,1285 C386.984565,1285 386,1284.02173 386,1282.81919 L386,1274.64274 C386,1273.44061 386.984565,1272.46233 388.194833,1272.46233 L392.49996,1272.46233 C392.786277,1272.46233 393.018362,1272.69293 393.018362,1272.97742 C393.018362,1273.26191 392.786277,1273.49251 392.49996,1273.49251 L388.194833,1273.49251 C387.556401,1273.49251 387.036803,1274.00839 387.036803,1274.64274 L387.036803,1282.81919 C387.036803,1283.45354 387.556401,1283.96982 388.194833,1283.96982 L396.805087,1283.96982 C397.443519,1283.96982 397.963117,1283.45354 397.963117,1282.81919 L397.963117,1278.75553 C397.963117,1278.47105 398.195201,1278.24044 398.481519,1278.24044 Z" id="作者页面-白色分享"></path>
        </g>
    </g>
</svg>