<?xml version="1.0" encoding="UTF-8"?>
<svg width="122px" height="122px" viewBox="0 0 122 122" version="1.1" xmlns="http://www.w3.org/2000/svg" xmlns:xlink="http://www.w3.org/1999/xlink">
    <!-- Generator: Sketch 49.3 (51167) - http://www.bohemiancoding.com/sketch -->
    <title>关于我们-重构icon</title>
    <desc>Created with Sketch.</desc>
    <defs></defs>
    <g id="主要页面" stroke="none" stroke-width="1" fill="none" fill-rule="evenodd">
        <g id="切图" transform="translate(-317.000000, -1510.000000)">
            <g id="关于我们-重构icon" transform="translate(318.000000, 1511.000000)">
                <g>
                    <path d="M59.9997037,0.740592593 C27.4071111,0.740592593 0.740444444,27.4075918 0.740444444,60.0005909 C0.740444444,92.59359 27.4071111,119.260589 59.9997037,119.260589 C92.5922963,119.260589 119.258963,92.59359 119.258963,60.0005909 C119.258963,27.4075918 92.5922963,0.740592593 59.9997037,0.740592593 Z" id="Stroke-1" stroke="#B6D4FC" stroke-width="2" stroke-linecap="round" stroke-linejoin="round"></path>
                    <path d="M52.7484748,49.8227111 C52.1831802,50.1881006 51.6509824,50.6210077 51.1187847,51.1532054 C48.224794,54.0471961 47.6264025,57.9049678 48.8576062,63.1925245 C49.1237051,64.3244376 48.4246991,65.42193 47.2941099,65.686705 C46.1635206,65.9541277 45.0660283,65.2551217 44.7999294,64.1245325 C43.2695299,57.5726752 44.1009234,52.2506978 48.193021,48.193021 C52.9814768,43.437662 58.8012312,43.0378518 67.11649,45.6657436 C66.5842922,44.3683461 66.1182882,43.1715632 65.919707,42.6393654 C63.6572046,36.6528028 63.2918151,33.1604206 65.8521894,30.5987225 C66.650486,29.8004258 67.9809803,29.8004258 68.7792769,30.5987225 C69.5775736,31.3983429 69.5775736,32.7275134 68.7792769,33.52581 C67.8816897,34.4247212 68.1133678,36.7189965 69.8105756,41.1751597 C70.175965,42.1733614 71.6070739,45.6988405 72.3709498,47.5615326 C74.1674481,48.2592147 77.6598303,49.6903236 78.6236113,50.0557131 C83.2134859,51.7846938 85.542182,52.0838895 86.4397692,51.1532054 C87.2380658,50.3549088 88.5685602,50.3549088 89.3668568,51.1532054 C90.1651534,51.951502 90.1651534,53.2819964 89.3668568,54.080293 C86.8064826,56.6406672 83.2796796,56.2421809 77.1276326,53.9134848 C75.9970433,53.4819015 71.7725583,51.7846938 70.3096764,51.1863023 C70.1097713,51.1532054 69.9098662,51.0539148 69.7430579,50.9533003 C64.4555013,48.9251238 60.3978244,47.9944397 57.1384442,48.2936355 L68.7792769,59.9331443 C69.5775736,60.7314409 69.5775736,62.0619353 68.7792769,62.8602319 C67.9809803,63.6585285 66.650486,63.6585285 65.8521894,62.8602319 L52.7484748,49.8227111 Z M62.7927143,71.6070739 L51.1518816,59.9675651 C50.3535849,59.1692684 50.3535849,57.8387741 51.1518816,57.0404775 C51.9501782,56.2421809 53.2806725,56.2421809 54.0789691,57.0404775 L67.1495868,70.1110952 C67.7148815,69.7443818 68.2470792,69.3127986 68.7792769,68.7806008 C71.6732677,65.8866101 72.2716591,62.0288384 71.0404554,56.7412817 C70.7743565,55.6106925 71.4733625,54.5118763 72.6039518,54.2457774 C73.7358649,53.9810024 74.8320334,54.6786845 75.0981322,55.8092737 C76.6285317,62.361131 75.7971382,67.6831085 71.7063645,71.7407853 C66.9165848,76.5292411 61.0637335,76.8959545 52.682281,74.2680626 C53.2475757,75.6978476 53.8128703,77.0614388 54.0127754,77.6267334 C56.240857,83.4478117 56.6075704,86.8726763 54.0789691,89.4012775 C53.2806725,90.1995742 51.9501782,90.1995742 51.1518816,89.4012775 C50.3535849,88.6029809 50.3535849,87.2724866 51.1518816,86.47419 C52.0163719,85.6096996 51.7833699,83.4147149 50.1550037,79.1240361 C49.7882903,78.1589312 48.193021,74.3011595 47.4609181,72.4053705 C45.6313229,71.6732677 42.3057489,70.3110003 41.3406441,69.9442869 C36.7520934,68.2153062 34.4233973,67.9161105 33.5244862,68.8467946 C32.7261896,69.6450912 31.3970191,69.6450912 30.5987225,68.8467946 C29.8004258,68.048498 29.8004258,66.7180036 30.5987225,65.919707 C33.1590967,63.3593328 36.6845758,63.7578191 42.8379467,66.0865152 C44.0678265,66.5525192 48.8245093,68.4814051 49.9220017,68.9129883 C55.3419459,70.9424887 59.5002372,71.9406904 62.7927143,71.6070739 Z" id="Fill-3" fill="#349DFF"></path>
                </g>
            </g>
        </g>
    </g>
</svg>