<?xml version="1.0" encoding="UTF-8"?>
<svg width="122px" height="122px" viewBox="0 0 122 122" version="1.1" xmlns="http://www.w3.org/2000/svg" xmlns:xlink="http://www.w3.org/1999/xlink">
    <!-- Generator: Sketch 49.3 (51167) - http://www.bohemiancoding.com/sketch -->
    <title>关于我们-创新icon</title>
    <desc>Created with Sketch.</desc>
    <defs></defs>
    <g id="主要页面" stroke="none" stroke-width="1" fill="none" fill-rule="evenodd">
        <g id="切图" transform="translate(-166.000000, -1510.000000)">
            <g id="关于我们-创新icon" transform="translate(167.000000, 1511.000000)">
                <g>
                    <path d="M60,0.740592593 C27.4074074,0.740592593 0.740740741,27.4072593 0.740740741,59.9998519 C0.740740741,92.5924444 27.4074074,119.259111 60,119.259111 C92.5925926,119.259111 119.259259,92.5924444 119.259259,59.9998519 C119.259259,27.4072593 92.5925926,0.740592593 60,0.740592593 Z" id="Stroke-1" stroke="#B6D4FC" stroke-width="2" stroke-linecap="round" stroke-linejoin="round"></path>
                    <path d="M81.2543704,39.214963 C80.406963,38.369037 79.0336296,38.369037 78.1862222,39.214963 L75.1225185,42.2786667 C74.2765926,43.1260741 74.2765926,44.4994074 75.1225185,45.3468148 C75.9699259,46.1927407 77.3432593,46.1927407 78.1906667,45.3468148 L81.2543704,42.2831111 C82.1017778,41.4357037 82.1017778,40.0623704 81.2543704,39.214963 M87.7906667,58.2594074 L83.4573333,58.2594074 C82.2588148,58.2594074 81.2884444,59.2297778 81.2884444,60.4282963 C81.2884444,61.6253333 82.2588148,62.5971852 83.4573333,62.5971852 L87.7906667,62.5971852 C88.9877037,62.5971852 89.9580741,61.6253333 89.9580741,60.4282963 C89.9580741,59.2297778 88.9877037,58.2594074 87.7906667,58.2594074 M36.5432593,58.0608889 L32.2099259,58.0608889 C31.0114074,58.0608889 30.041037,59.0312593 30.041037,60.2297778 C30.041037,61.4282963 31.0114074,62.3986667 32.2099259,62.3986667 L36.5432593,62.3986667 C37.7402963,62.3986667 38.7121481,61.4282963 38.7121481,60.2297778 C38.7121481,59.0312593 37.7402963,58.0608889 36.5432593,58.0608889 M45.0173333,45.2060741 C45.8647407,44.3586667 45.8647407,42.9853333 45.0173333,42.1394074 L41.9536296,39.0757037 C41.1062222,38.2282963 39.7328889,38.2282963 38.8854815,39.0757037 C38.0395556,39.9216296 38.0395556,41.294963 38.8854815,42.1423704 L41.9491852,45.2060741 C42.7965926,46.0534815 44.1699259,46.0534815 45.0173333,45.2060741 M60.0988148,39.0416296 C61.2973333,39.0416296 62.2677037,38.0697778 62.2677037,36.8712593 L62.2677037,32.5394074 C62.2677037,31.3423704 61.2973333,30.3705185 60.0988148,30.3705185 C58.9017778,30.3705185 57.9299259,31.3423704 57.9299259,32.5394074 L57.9299259,36.8712593 C57.9299259,38.0697778 58.9017778,39.0416296 60.0988148,39.0416296 M70.3980741,58.8697778 C70.2291852,58.9305185 70.0588148,58.9601481 69.8899259,58.9601481 C69.2751111,58.9601481 68.7002963,58.5808889 68.481037,57.9660741 C67.5773333,55.4445926 64.9995556,53.6860741 64.9684444,53.6697778 C64.2795556,53.2164444 64.0899259,52.2875556 64.5447407,51.5927407 C64.9995556,50.9038519 65.9284444,50.7142222 66.6232593,51.1675556 C66.7625185,51.2579259 70.0499259,53.4608889 71.3032593,56.9527407 C71.5832593,57.732 71.1773333,58.5912593 70.3980741,58.8697778 M60.0988148,41.3112593 C49.8499259,41.3112593 41.5136296,49.6475556 41.5136296,59.8979259 C41.5136296,63.2238519 42.406963,66.4905185 44.0958519,69.3482963 C45.6336296,71.9453333 47.7862222,74.1379259 50.3491852,75.7216296 C50.6188148,76.4105185 51.0588148,77.0253333 51.6321481,77.4994074 C52.4025185,78.1334815 53.3758519,78.4831111 54.3743704,78.4831111 L65.8232593,78.4831111 C67.606963,78.4831111 69.1995556,77.3542222 69.8395556,75.7216296 C72.406963,74.1379259 74.5595556,71.9497778 76.0988148,69.3527407 C77.7906667,66.5008889 78.6854815,63.2282963 78.6854815,59.8979259 C78.6854815,49.6475556 70.3491852,41.3112593 60.0988148,41.3112593 M61.5225185,83.6697778 L58.6751111,83.6697778 C57.846963,83.6697778 57.1773333,84.3394074 57.1773333,85.169037 C57.1773333,85.9971852 57.846963,86.6668148 58.6751111,86.6668148 L61.5225185,86.6668148 C62.3521481,86.6668148 63.0202963,85.9971852 63.0202963,85.169037 C63.0202963,84.3394074 62.3521481,83.6697778 61.5225185,83.6697778 M64.3699259,79.4001481 L55.8277037,79.4001481 C54.9995556,79.4001481 54.3299259,80.0682963 54.3299259,80.8979259 C54.3299259,81.7260741 54.9995556,82.3957037 55.8277037,82.3957037 L64.3699259,82.3957037 C65.1995556,82.3957037 65.8677037,81.7260741 65.8677037,80.8979259 C65.8677037,80.0682963 65.1995556,79.4001481 64.3699259,79.4001481" id="Fill-3" fill="#349DFF"></path>
                </g>
            </g>
        </g>
    </g>
</svg>