<?xml version="1.0" encoding="UTF-8"?>
<svg width="122px" height="122px" viewBox="0 0 122 122" version="1.1" xmlns="http://www.w3.org/2000/svg" xmlns:xlink="http://www.w3.org/1999/xlink">
    <!-- Generator: Sketch 49.3 (51167) - http://www.bohemiancoding.com/sketch -->
    <title>关于我们-惠普icon</title>
    <desc>Created with Sketch.</desc>
    <defs></defs>
    <g id="主要页面" stroke="none" stroke-width="1" fill="none" fill-rule="evenodd">
        <g id="切图" transform="translate(-15.000000, -1510.000000)">
            <g id="关于我们-惠普icon" transform="translate(16.000000, 1511.000000)">
                <g>
                    <path d="M59.9997037,0.740592593 C27.4071111,0.740592593 0.740444444,27.4072593 0.740444444,59.9998519 C0.740444444,92.5924444 27.4071111,119.259111 59.9997037,119.259111 C92.5922963,119.259111 119.258963,92.5924444 119.258963,59.9998519 C119.258963,27.4072593 92.5922963,0.740592593 59.9997037,0.740592593 Z" id="Stroke-1" stroke="#B6D4FC" stroke-width="2" stroke-linecap="round" stroke-linejoin="round"></path>
                    <path d="M72.6565901,52.7605804 L48.3180169,52.7605804 C47.3530834,52.7605804 46.5695284,51.9782346 46.5695284,51.0120919 C46.5695284,50.0459492 47.3530834,49.2623942 48.3180169,49.2623942 L72.6565901,49.2623942 C73.6227328,49.2623942 74.4050786,50.0459492 74.4050786,51.0120919 C74.4050786,51.9782346 73.6227328,52.7605804 72.6565901,52.7605804 M62.8972189,61.7484885 L48.3180169,61.7484885 C47.3530834,61.7484885 46.5695284,60.9661427 46.5695284,60 C46.5695284,59.0338573 47.3530834,58.2515115 48.3180169,58.2515115 L62.8972189,58.2515115 C63.8633615,58.2515115 64.6457074,59.0338573 64.6457074,60 C64.6457074,60.9661427 63.8633615,61.7484885 62.8972189,61.7484885 M54.732769,70.7376058 L48.3180169,70.7376058 C47.3530834,70.7376058 46.5695284,69.9540508 46.5695284,68.9879081 C46.5695284,68.0217654 47.3530834,67.2394196 48.3180169,67.2394196 L54.732769,67.2394196 C55.6989117,67.2394196 56.4824667,68.0217654 56.4824667,68.9879081 C56.4824667,69.9540508 55.6989117,70.7376058 54.732769,70.7376058 M75.4159613,39 L45.5538089,39 C43.0386941,39 41,41.0386941 41,43.5538089 L41,76.4461911 C41,78.9600967 43.0386941,81 45.5538089,81 L70.0495768,81 C75.528416,81 79.9685611,76.5586457 79.9685611,71.0810157 L79.9685611,43.5538089 C79.9685611,41.0386941 77.929867,39 75.4159613,39" id="Fill-3" fill="#349DFF"></path>
                </g>
            </g>
        </g>
    </g>
</svg>