<?xml version="1.0" encoding="UTF-8"?>
<svg width="17px" height="14px" viewBox="0 0 17 14" version="1.1" xmlns="http://www.w3.org/2000/svg" xmlns:xlink="http://www.w3.org/1999/xlink">
    <!-- Generator: Sketch 49.3 (51167) - http://www.bohemiancoding.com/sketch -->
    <title>分享-微博</title>
    <desc>Created with Sketch.</desc>
    <defs></defs>
    <g id="主要页面" stroke="none" stroke-width="1" fill="none" fill-rule="evenodd">
        <g id="切图" transform="translate(-283.000000, -1384.000000)" fill="#FF3841">
            <path d="M298.084097,1385.41333 C297.018274,1384.22996 295.455886,1383.78737 294.001553,1384.09438 C293.667071,1384.16659 293.450468,1384.49179 293.523161,1384.82582 C293.59487,1385.16035 293.929352,1385.37698 294.263834,1385.30526 C295.293311,1385.08814 296.404321,1385.404 297.163167,1386.24449 C297.921522,1387.07565 298.120443,1388.22267 297.795294,1389.22575 C297.696079,1389.55045 297.876827,1389.89431 298.201976,1390.00238 C298.526635,1390.11095 298.870449,1389.92968 298.978504,1389.60498 C299.429883,1388.19565 299.150411,1386.58737 298.084097,1385.41333 M296.449017,1386.88603 C295.934278,1386.30786 295.167082,1386.09074 294.462264,1386.24449 C294.172969,1386.30786 293.992221,1386.58737 294.055581,1386.8767 C294.1101,1387.16554 294.399395,1387.34631 294.687707,1387.28295 C295.031521,1387.21074 295.401858,1387.3193 295.654807,1387.5993 C295.907264,1387.87979 295.979956,1388.25902 295.871409,1388.60189 C295.781035,1388.88238 295.934278,1389.18007 296.214732,1389.27095 C296.494695,1389.36084 296.792831,1389.20758 296.882713,1388.92709 C297.109139,1388.24084 296.964246,1387.45537 296.449017,1386.88603 M297.11798,1392.52288 C297.11798,1391.29431 296.088012,1390.59874 295.15775,1390.3094 C294.931815,1390.23768 294.778572,1390.192 294.89596,1389.89431 C295.148909,1389.24344 295.175923,1388.68344 294.89596,1388.28603 C294.37189,1387.53593 292.93573,1387.57277 291.291808,1388.26835 C291.291808,1388.25902 290.77707,1388.49382 290.903299,1388.07824 C291.156248,1387.26575 291.120393,1386.57852 290.723042,1386.19045 C289.828635,1385.29593 287.452881,1386.21698 285.411609,1388.25902 C283.885075,1389.78575 283,1391.40238 283,1392.80288 C283,1395.48596 286.432245,1397.11193 289.79278,1397.11193 C294.191142,1397.11193 297.11798,1394.55509 297.11798,1392.52288 M294.336035,1392.48652 C294.507451,1394.24807 292.484351,1395.88337 289.80113,1396.15452 C287.11889,1396.41635 284.806005,1395.20596 284.634589,1393.44442 C284.463174,1391.68288 286.486764,1390.04807 289.169003,1389.77642 C291.851734,1389.51459 294.164128,1390.72498 294.336035,1392.48652 M291.517252,1393.93221 C292.059496,1392.72133 291.391023,1391.47509 290.063411,1391.13172 C288.789826,1390.80652 287.353666,1391.43923 286.793741,1392.55923 C286.233815,1393.70624 286.775568,1394.98049 288.067325,1395.39558 C289.40427,1395.82933 290.9755,1395.16077 291.517252,1393.93221 M289.946023,1392.96547 C289.85614,1393.12807 289.647887,1393.20077 289.485312,1393.1374 C289.322737,1393.06519 289.27755,1392.89375 289.367924,1392.73067 C289.458298,1392.57691 289.657219,1392.50519 289.819303,1392.55923 C289.982369,1392.6221 290.036397,1392.80288 289.946023,1392.96547 M289.097294,1394.05845 C288.835013,1394.47452 288.275087,1394.65481 287.859564,1394.46519 C287.452881,1394.27558 287.326652,1393.79614 287.588442,1393.39038 C287.840899,1392.99249 288.383143,1392.81221 288.789826,1392.98365 C289.21419,1393.16393 289.350242,1393.64288 289.097294,1394.05845" id="分享-微博"></path>
        </g>
    </g>
</svg>