<?xml version="1.0" encoding="UTF-8"?>
<svg width="14px" height="16px" viewBox="0 0 14 16" version="1.1" xmlns="http://www.w3.org/2000/svg" xmlns:xlink="http://www.w3.org/1999/xlink">
    <!-- Generator: Sketch 49.3 (51167) - http://www.bohemiancoding.com/sketch -->
    <title>导航-手机icon</title>
    <desc>Created with Sketch.</desc>
    <defs></defs>
    <g id="主要页面" stroke="none" stroke-width="1" fill="none" fill-rule="evenodd">
        <g id="切图" transform="translate(-329.000000, -1270.000000)" fill="#858585">
            <path d="M335.14303,1283.79879 C335.181818,1283.82303 335.225455,1283.84727 335.269091,1283.86182 C335.312727,1283.88121 335.356364,1283.89576 335.404848,1283.90545 C335.448485,1283.91515 335.49697,1283.92 335.545455,1283.92 C335.734545,1283.92 335.923636,1283.84242 336.059394,1283.70667 C336.195152,1283.57091 336.272727,1283.38182 336.272727,1283.19273 C336.272727,1283.14424 336.267879,1283.09576 336.258182,1283.05212 C336.248485,1283.00364 336.233939,1282.96 336.214545,1282.91152 C336.2,1282.86788 336.175758,1282.82909 336.151515,1282.7903 C336.122424,1282.74667 336.093333,1282.71273 336.059394,1282.67879 C335.889697,1282.50909 335.637576,1282.43152 335.404848,1282.48 C335.356364,1282.4897 335.312727,1282.50424 335.269091,1282.51879 C335.225455,1282.53818 335.181818,1282.56242 335.14303,1282.58667 C335.099394,1282.61576 335.065455,1282.64485 335.031515,1282.67879 C334.997576,1282.71273 334.968485,1282.74667 334.939394,1282.7903 C334.915152,1282.82909 334.890909,1282.86788 334.871515,1282.91152 C334.85697,1282.96 334.842424,1283.00364 334.832727,1283.05212 C334.82303,1283.09576 334.818182,1283.14424 334.818182,1283.19273 C334.818182,1283.38182 334.895758,1283.57091 335.031515,1283.70667 C335.065455,1283.74061 335.099394,1283.7697 335.14303,1283.79879 Z M336.515152,1272.42424 L334.575758,1272.42424 C334.173818,1272.42424 333.848485,1272.74958 333.848485,1273.15152 C333.848485,1273.55345 334.173818,1273.87879 334.575758,1273.87879 L336.515152,1273.87879 C336.917091,1273.87879 337.242424,1273.55345 337.242424,1273.15152 C337.242424,1272.74958 336.917091,1272.42424 336.515152,1272.42424 Z M340.636364,1280.384 L330.454545,1280.384 L330.454545,1272.18182 C330.454545,1271.78085 330.780848,1271.45455 331.181818,1271.45455 L339.909091,1271.45455 C340.310061,1271.45455 340.636364,1271.78085 340.636364,1272.18182 L340.636364,1280.384 Z M340.636364,1283.81818 C340.636364,1284.21915 340.310061,1284.54545 339.909091,1284.54545 L331.181818,1284.54545 C330.780848,1284.54545 330.454545,1284.21915 330.454545,1283.81818 L330.454545,1281.83855 L340.636364,1281.83855 L340.636364,1283.81818 Z M339.909091,1270 L331.181818,1270 C329.978909,1270 329,1270.97891 329,1272.18182 L329,1283.81818 C329,1285.02109 329.978909,1286 331.181818,1286 L339.909091,1286 C341.112485,1286 342.090909,1285.02109 342.090909,1283.81818 L342.090909,1272.18182 C342.090909,1270.97891 341.112485,1270 339.909091,1270 Z" id="导航-手机icon"></path>
        </g>
    </g>
</svg>