<?xml version="1.0" encoding="UTF-8"?>
<svg width="16px" height="16px" viewBox="0 0 16 16" version="1.1" xmlns="http://www.w3.org/2000/svg" xmlns:xlink="http://www.w3.org/1999/xlink">
    <!-- Generator: Sketch 49.3 (51167) - http://www.bohemiancoding.com/sketch -->
    <title>导航-投稿icon</title>
    <desc>Created with Sketch.</desc>
    <defs></defs>
    <g id="主要页面" stroke="none" stroke-width="1" fill="none" fill-rule="evenodd">
        <g id="切图" transform="translate(-278.000000, -1270.000000)" fill="#858585">
            <path d="M284.004364,1279.06085 C284.008242,1279.02545 284.023758,1278.992 284.065939,1278.94933 L291.030788,1271.50012 C291.061333,1271.47006 291.101091,1271.45455 291.140848,1271.45455 C291.181091,1271.45455 291.220848,1271.46958 291.250909,1271.50012 L292.499394,1272.74812 C292.56,1272.80921 292.56,1272.90861 292.482424,1272.98667 L285.512727,1280.44073 C285.488485,1280.46303 285.45697,1280.47661 285.424,1280.48048 L283.838545,1280.6463 L284.004364,1279.06085 Z M282.558061,1278.90958 L282.367515,1280.7297 C282.365091,1280.75491 282.363636,1280.78012 282.363636,1280.80533 C282.363636,1281.53115 282.953697,1282.12121 283.679515,1282.12121 C283.704727,1282.12121 283.729939,1282.11976 283.754667,1282.11733 L285.575273,1281.92679 C285.941333,1281.88848 286.286061,1281.72412 286.546424,1281.46424 C286.552242,1281.45842 286.557576,1281.45261 286.563394,1281.4463 L293.528242,1273.99709 C294.155636,1273.3697 294.155636,1272.34812 293.528242,1271.72024 L292.279273,1270.47176 C291.651394,1269.84339 290.630788,1269.84388 289.985455,1270.48921 L283.021091,1277.93794 C282.760727,1278.19782 282.596364,1278.54303 282.558061,1278.90958 Z M293.272242,1276.78788 C292.870788,1276.78788 292.54497,1277.11321 292.54497,1277.51515 L292.54497,1282.36364 C292.54497,1283.56655 291.566545,1284.54545 290.363636,1284.54545 L281.636364,1284.54545 C280.43297,1284.54545 279.454545,1283.56655 279.454545,1282.36364 L279.454545,1273.63636 C279.454545,1272.43345 280.43297,1271.45455 281.636364,1271.45455 L286.484848,1271.45455 C286.886303,1271.45455 287.212121,1271.12921 287.212121,1270.72727 C287.212121,1270.32533 286.886303,1270 286.484848,1270 L281.636364,1270 C279.63103,1270 278,1271.63103 278,1273.63636 L278,1282.36364 C278,1284.36897 279.63103,1286 281.636364,1286 L290.363636,1286 C292.368485,1286 293.999515,1284.36897 293.999515,1282.36364 L293.999515,1277.51515 C293.999515,1277.11321 293.673697,1276.78788 293.272242,1276.78788 Z" id="导航-投稿icon"></path>
        </g>
    </g>
</svg>