<?xml version="1.0" encoding="UTF-8"?>
<svg width="12px" height="11px" viewBox="0 0 12 11" version="1.1" xmlns="http://www.w3.org/2000/svg" xmlns:xlink="http://www.w3.org/1999/xlink">
    <!-- Generator: Sketch 49.3 (51167) - http://www.bohemiancoding.com/sketch -->
    <title>快讯-评论icon</title>
    <desc>Created with Sketch.</desc>
    <defs></defs>
    <g id="主要页面" stroke="none" stroke-width="1" fill="none" fill-rule="evenodd">
        <g id="切图" transform="translate(-375.000000, -1378.000000)" fill="#349DFF">
            <path d="M380.792245,1382.05668 C380.415223,1382.05668 380.109813,1382.36209 380.109813,1382.73911 C380.109813,1383.11613 380.415223,1383.42189 380.792245,1383.42189 C381.169268,1383.42189 381.474677,1383.11613 381.474677,1382.73911 C381.474677,1382.36209 381.169268,1382.05668 380.792245,1382.05668 Z M383.57147,1382.05668 C383.194447,1382.05668 382.888687,1382.36209 382.888687,1382.73911 C382.888687,1383.11613 383.194447,1383.42189 383.57147,1383.42189 C383.948492,1383.42189 384.253901,1383.11613 384.253901,1382.73911 C384.253901,1382.36209 383.948492,1382.05668 383.57147,1382.05668 Z M378.013021,1382.05668 C377.635998,1382.05668 377.330589,1382.36209 377.330589,1382.73911 C377.330589,1383.11613 377.635998,1383.42189 378.013021,1383.42189 C378.390043,1383.42189 378.695803,1383.11613 378.695803,1382.73911 C378.695803,1382.36209 378.390043,1382.05668 378.013021,1382.05668 Z M385.531355,1385.89852 C385.531355,1386.18883 385.295101,1386.42508 385.004787,1386.42508 L382.604691,1386.42508 C382.451285,1386.42508 382.314377,1386.49178 382.218191,1386.59674 L380.920026,1387.89491 C380.849816,1387.96477 380.735025,1387.96477 380.664816,1387.89491 L379.349098,1386.57954 C379.346992,1386.57709 379.343833,1386.57674 379.341727,1386.57428 C379.294686,1386.52864 379.239572,1386.49178 379.178139,1386.46616 C379.173927,1386.4644 379.169363,1386.4637 379.1648,1386.46194 C379.106877,1386.43913 379.044391,1386.42579 378.978395,1386.42543 C378.977693,1386.42543 378.976991,1386.42508 378.976288,1386.42508 L378.975235,1386.42508 L376.579703,1386.42508 C376.289389,1386.42508 376.053135,1386.18883 376.053135,1385.89852 L376.053135,1379.5797 C376.053135,1379.28939 376.289389,1379.05314 376.579703,1379.05314 L385.004787,1379.05314 C385.295101,1379.05314 385.531355,1379.28939 385.531355,1379.5797 L385.531355,1385.89852 Z M385.004787,1378 L376.579703,1378 C375.70876,1378 375,1378.70876 375,1379.5797 L375,1385.89852 C375,1386.76981 375.70876,1387.47822 376.579703,1387.47822 L378.758992,1387.47822 L379.920249,1388.63948 C380.160715,1388.87994 380.476655,1389 380.792245,1389 C381.108186,1389 381.424126,1388.87994 381.664592,1388.63948 L382.825499,1387.47822 L385.004787,1387.47822 C385.87573,1387.47822 386.58449,1386.76981 386.58449,1385.89852 L386.58449,1379.5797 C386.58449,1378.70876 385.87573,1378 385.004787,1378 Z" id="快讯-评论icon"></path>
        </g>
    </g>
</svg>