<?xml version="1.0" encoding="UTF-8"?>
<svg width="11px" height="11px" viewBox="0 0 11 11" version="1.1" xmlns="http://www.w3.org/2000/svg" xmlns:xlink="http://www.w3.org/1999/xlink">
    <!-- Generator: Sketch 49.3 (51167) - http://www.bohemiancoding.com/sketch -->
    <title>快讯-分享icon</title>
    <desc>Created with Sketch.</desc>
    <defs></defs>
    <g id="主要页面" stroke="none" stroke-width="1" fill="none" fill-rule="evenodd">
        <g id="切图" transform="translate(-356.000000, -1378.000000)" fill="#238EF2">
            <path d="M366.895515,1380.31375 C366.917642,1380.36739 366.929712,1380.42472 366.929376,1380.48205 C366.929376,1380.48239 366.929712,1380.48272 366.929712,1380.48306 C366.929712,1380.50183 366.920995,1380.51759 366.918648,1380.53603 C366.914289,1380.57324 366.911272,1380.61146 366.89652,1380.64667 C366.873722,1380.70333 366.838855,1380.75362 366.795606,1380.79552 L364.756523,1382.83461 C364.671365,1382.91943 364.560057,1382.96201 364.448414,1382.96201 C364.336771,1382.96201 364.225463,1382.91943 364.140305,1382.83461 C363.969991,1382.66429 363.969991,1382.38837 364.140305,1382.21839 L365.439458,1380.91924 C364.571792,1380.92024 363.322929,1381.13951 362.20549,1382.15972 C360.369243,1383.83638 360.548274,1386.38238 360.550621,1386.40786 C360.569396,1386.64758 360.391035,1386.85779 360.15132,1386.8769 C360.139251,1386.87791 360.127517,1386.87858 360.115447,1386.87858 C359.891155,1386.87858 359.700724,1386.70692 359.681614,1386.47961 C359.671556,1386.35791 359.458663,1383.48737 361.61777,1381.51601 C362.944415,1380.3047 364.408853,1380.04688 365.444152,1380.04755 L364.140305,1378.7437 C363.969991,1378.57372 363.969991,1378.2978 364.140305,1378.12748 C364.31062,1377.95751 364.586208,1377.95751 364.756523,1378.12748 L366.801976,1380.17294 C366.83919,1380.21015 366.86467,1380.25407 366.885792,1380.29933 C366.888474,1380.3047 366.893168,1380.30805 366.895515,1380.31375 Z M366.4938,1383.28038 C366.73452,1383.28038 366.929645,1383.4755 366.929645,1383.71622 L366.929645,1387.1547 C366.929645,1388.17223 366.101875,1389 365.084345,1389 L357.8453,1389 C356.82777,1389 356,1388.17223 356,1387.1547 L356,1380.23617 C356,1379.21897 356.82777,1378.3912 357.8453,1378.3912 L361.464822,1378.3912 C361.705543,1378.3912 361.900667,1378.58633 361.900667,1378.82705 C361.900667,1379.06777 361.705543,1379.26289 361.464822,1379.26289 L357.8453,1379.26289 C357.30854,1379.26289 356.871689,1379.69941 356.871689,1380.23617 L356.871689,1387.1547 C356.871689,1387.69146 357.30854,1388.12831 357.8453,1388.12831 L365.084345,1388.12831 C365.621105,1388.12831 366.057955,1387.69146 366.057955,1387.1547 L366.057955,1383.71622 C366.057955,1383.4755 366.253079,1383.28038 366.4938,1383.28038 Z" id="快讯-分享icon"></path>
        </g>
    </g>
</svg>