<?xml version="1.0" encoding="UTF-8"?>
<svg width="14px" height="11px" viewBox="0 0 14 11" version="1.1" xmlns="http://www.w3.org/2000/svg" xmlns:xlink="http://www.w3.org/1999/xlink">
    <!-- Generator: Sketch 49.3 (51167) - http://www.bohemiancoding.com/sketch -->
    <title>快讯-跌icon</title>
    <desc>Created with Sketch.</desc>
    <defs></defs>
    <g id="主要页面" stroke="none" stroke-width="1" fill="none" fill-rule="evenodd">
        <g id="切图" transform="translate(-315.000000, -1378.000000)" fill="#00C87D">
            <path d="M319.687623,1383.97173 C319.795426,1384.0799 319.949431,1384.12904 320.100136,1384.10227 L320.100136,1384.1019 C320.250841,1384.12867 320.404847,1384.0799 320.51265,1383.97173 L322.855362,1381.62902 L325.350978,1384.125 L324.644388,1384.83196 C324.498816,1384.97717 324.565185,1385.22541 324.763558,1385.27858 L327.12387,1385.52425 C327.292543,1385.54185 327.434814,1385.39995 327.417213,1385.23091 L327.171905,1382.87023 C327.11837,1382.67186 326.870128,1382.60549 326.724924,1382.75106 L326.0176,1383.45838 L323.343044,1380.78419 C323.31041,1380.75119 323.274475,1380.72442 323.235607,1380.70279 C323.219107,1380.67859 323.200406,1380.65549 323.179139,1380.63459 C322.9958,1380.45162 322.69879,1380.45198 322.515817,1380.63532 L320.100136,1383.051 L317.684823,1380.63532 C317.501483,1380.45235 317.205207,1380.45162 317.019667,1380.63715 C316.835594,1380.82123 316.833761,1381.11787 317.018201,1381.30231 L319.687623,1383.97173 Z M328.357378,1388.05764 L316.725957,1388.05764 C316.293276,1388.0569 315.943098,1387.70636 315.942731,1387.27368 L315.942731,1378.47082 C315.942365,1378.21047 315.731158,1377.99963 315.470816,1378 C315.21084,1378 315,1378.21084 315,1378.47082 L315,1387.27368 C315,1388.22667 315.772592,1388.99963 316.725957,1389 L328.357378,1389 C328.61772,1389 328.82856,1388.78916 328.82856,1388.52882 C328.82856,1388.26848 328.61772,1388.05764 328.357378,1388.05764 Z" id="快讯-跌icon"></path>
        </g>
    </g>
</svg>