<?xml version="1.0" encoding="UTF-8"?>
<svg width="14px" height="11px" viewBox="0 0 14 11" version="1.1" xmlns="http://www.w3.org/2000/svg" xmlns:xlink="http://www.w3.org/1999/xlink">
    <!-- Generator: Sketch 49.3 (51167) - http://www.bohemiancoding.com/sketch -->
    <title>快讯-涨icon</title>
    <desc>Created with Sketch.</desc>
    <defs></defs>
    <g id="主要页面" stroke="none" stroke-width="1" fill="none" fill-rule="evenodd">
        <g id="切图" transform="translate(-336.000000, -1378.000000)" fill="#FF3841">
            <path d="M338.684733,1385.38797 L341.099967,1382.97237 L343.515567,1385.38797 C343.698533,1385.5713 343.995533,1385.57167 344.179233,1385.3887 C344.200133,1385.3678 344.218833,1385.34507 344.2357,1385.3205 C344.2742,1385.2996 344.310133,1385.27247 344.343133,1385.23983 L347.017233,1382.56537 L347.724533,1383.2723 C347.869733,1383.41787 348.117967,1383.3515 348.1715,1383.15313 L348.4168,1380.7929 C348.4344,1380.62423 348.2925,1380.48197 348.123833,1380.49957 L345.763233,1380.74487 C345.564867,1380.7984 345.4985,1381.04663 345.6437,1381.19183 L346.351,1381.89877 L343.855467,1384.3943 L341.512833,1382.05203 C341.404667,1381.9435 341.250667,1381.8951 341.099967,1381.92187 L341.099967,1381.9215 C340.949633,1381.8951 340.795267,1381.9435 340.687467,1382.05203 L338.018133,1384.72173 C337.8337,1384.9058 337.835533,1385.20207 338.019967,1385.3865 C338.205133,1385.57167 338.5014,1385.5713 338.684733,1385.38797 M349.356933,1388.0573 L337.7259,1388.0573 C337.2936,1388.05657 336.943067,1387.70603 336.9427,1387.27373 L336.9427,1378.47117 C336.9427,1378.21083 336.7315,1378 336.471167,1378 C336.210833,1378.00037 336,1378.2112 336,1378.47117 L336,1387.27373 C336.000367,1388.2267 336.772933,1388.99963 337.7259,1389 L349.356933,1389 C349.617267,1389 349.8281,1388.7888 349.8281,1388.52847 C349.8281,1388.26813 349.617267,1388.0573 349.356933,1388.0573" id="快讯-涨icon"></path>
        </g>
    </g>
</svg>