<?xml version="1.0" encoding="UTF-8"?>
<svg width="14px" height="17px" viewBox="0 0 14 17" version="1.1" xmlns="http://www.w3.org/2000/svg" xmlns:xlink="http://www.w3.org/1999/xlink">
    <!-- Generator: Sketch 49.3 (51167) - http://www.bohemiancoding.com/sketch -->
    <title>悬浮-手机APP-选中</title>
    <desc>Created with Sketch.</desc>
    <defs></defs>
    <g id="主要页面" stroke="none" stroke-width="1" fill="none" fill-rule="evenodd">
        <g id="切图" transform="translate(-394.000000, -1314.000000)" fill="#349DFF">
            <path d="M405.868504,1325.62845 L396.040499,1325.62845 L396.040499,1316.68194 C396.040499,1316.294 396.355456,1315.97904 396.742431,1315.97904 L405.166573,1315.97904 C405.553547,1315.97904 405.868504,1316.294 405.868504,1316.68194 L405.868504,1325.62845 Z M401.621385,1328.97967 C401.444702,1329.15635 401.199842,1329.25621 400.954982,1329.25621 C400.891606,1329.25621 400.828231,1329.24949 400.772537,1329.23797 C400.709162,1329.22453 400.652508,1329.20628 400.596814,1329.18131 C400.54016,1329.16307 400.483507,1329.13042 400.432614,1329.09969 C400.37596,1329.06129 400.331789,1329.02384 400.287619,1328.97967 C400.111896,1328.80394 400.012031,1328.55908 400.012031,1328.31422 C400.012031,1328.24989 400.017793,1328.18747 400.030276,1328.13082 C400.042759,1328.0684 400.061963,1328.01175 400.081168,1327.94933 C400.106134,1327.89268 400.137822,1327.84275 400.168549,1327.79185 C400.206959,1327.7352 400.244408,1327.69103 400.287619,1327.64782 C400.331789,1327.60365 400.37596,1327.5662 400.432614,1327.52875 C400.483507,1327.4961 400.54016,1327.46538 400.596814,1327.44041 C400.652508,1327.4212 400.709162,1327.402 400.772537,1327.38952 C401.074051,1327.3271 401.401491,1327.42697 401.621385,1327.64782 C401.665556,1327.69103 401.703005,1327.7352 401.740454,1327.79185 C401.771182,1327.84275 401.80383,1327.89268 401.822074,1327.94933 C401.84704,1328.01175 401.866245,1328.0684 401.878728,1328.13082 C401.891211,1328.18747 401.897933,1328.24989 401.897933,1328.31422 C401.897933,1328.55908 401.797108,1328.80394 401.621385,1328.97967 Z M405.590996,1314 L396.318007,1314 C395.039934,1314 394,1315.03993 394,1316.31801 L394,1328.68199 C394,1329.96007 395.039934,1331 396.318007,1331 L405.590996,1331 C406.869069,1331 407.909004,1329.96007 407.909004,1328.68199 L407.909004,1316.31801 C407.909004,1315.03993 406.869069,1314 405.590996,1314 Z M401.985314,1317.09004 L399.92465,1317.09004 C399.497345,1317.09004 399.151661,1317.43668 399.151661,1317.86303 C399.151661,1318.28937 399.497345,1318.63601 399.92465,1318.63601 L401.985314,1318.63601 C402.411658,1318.63601 402.757343,1318.28937 402.757343,1317.86303 C402.757343,1317.43668 402.411658,1317.09004 401.985314,1317.09004 Z" id="悬浮-手机APP-选中"></path>
        </g>
    </g>
</svg>