<?xml version="1.0" encoding="UTF-8"?>
<svg width="16px" height="16px" viewBox="0 0 16 16" version="1.1" xmlns="http://www.w3.org/2000/svg" xmlns:xlink="http://www.w3.org/1999/xlink">
    <!-- Generator: Sketch 49.3 (51167) - http://www.bohemiancoding.com/sketch -->
    <title>搜索列表页-搜索icon</title>
    <desc>Created with Sketch.</desc>
    <defs></defs>
    <g id="主要页面" stroke="none" stroke-width="1" fill="none" fill-rule="evenodd">
        <g id="切图" transform="translate(-348.000000, -1270.000000)" fill="#FFFFFF">
            <path d="M349.454545,1277.5172 C349.454545,1274.17423 352.173091,1271.45494 355.515152,1271.45494 C358.857212,1271.45494 361.575758,1274.17423 361.575758,1277.5172 C361.575758,1280.86017 358.857212,1283.57946 355.515152,1283.57946 C352.173091,1283.57946 349.454545,1280.86017 349.454545,1277.5172 M363.787152,1284.75796 L361.317818,1282.28844 C362.386909,1280.98966 363.030303,1279.32715 363.030303,1277.5172 C363.030303,1273.37207 359.659152,1270 355.515152,1270 C351.371152,1270 348,1273.37207 348,1277.5172 C348,1281.66233 351.371152,1285.0344 355.515152,1285.0344 C357.32703,1285.0344 358.99103,1284.38938 360.289939,1283.31757 L362.758303,1285.78661 C362.900364,1285.92871 363.086545,1286 363.272727,1286 C363.458424,1286 363.645091,1285.92871 363.787152,1285.78661 C364.070788,1285.50289 364.070788,1285.04216 363.787152,1284.75796" id="搜索列表页-搜索icon"></path>
        </g>
    </g>
</svg>