<?xml version="1.0" encoding="UTF-8"?>
<svg width="16px" height="17px" viewBox="0 0 16 17" version="1.1" xmlns="http://www.w3.org/2000/svg" xmlns:xlink="http://www.w3.org/1999/xlink">
    <!-- Generator: Sketch 49.3 (51167) - http://www.bohemiancoding.com/sketch -->
    <title>文章详情-点赞icon</title>
    <desc>Created with Sketch.</desc>
    <defs></defs>
    <g id="主要页面" stroke="none" stroke-width="1" fill="none" fill-rule="evenodd">
        <g id="切图" transform="translate(-315.000000, -1419.000000)" fill="#FFFFFF">
            <path d="M329.496421,1427.09082 L328.168984,1432.76429 C328.10673,1433.03095 327.95428,1433.27163 327.739576,1433.44173 C327.524873,1433.61232 327.255758,1433.70594 326.981741,1433.70594 L319.787206,1433.70594 L319.787206,1425.78299 C320.430827,1425.59181 320.919058,1425.21878 321.25974,1424.64917 C321.69454,1423.91977 321.810715,1423.00654 321.913165,1422.20067 C322.009733,1421.44626 322.092575,1420.79431 322.396984,1420.56392 C322.467571,1420.51049 322.59159,1420.44431 322.844528,1420.48206 C323.479816,1420.57667 323.943046,1420.88254 324.220985,1421.39136 C324.468041,1421.84528 324.56853,1422.459 324.511668,1423.16733 C324.472943,1423.64771 324.365101,1424.14673 324.198436,1424.61143 C324.117554,1424.83643 324.151868,1425.08691 324.289121,1425.28299 C324.426865,1425.47858 324.651373,1425.59475 324.890586,1425.59475 L328.309179,1425.59475 C328.683685,1425.59475 329.03172,1425.76289 329.264071,1426.05651 C329.264561,1426.05651 329.264561,1426.05651 329.264561,1426.057 C329.496912,1426.34965 329.581715,1426.7266 329.496421,1427.09082 M316.470573,1432.84223 L316.470573,1426.79866 C316.470573,1426.32269 316.857824,1425.93543 317.33429,1425.93543 L318.316633,1425.93543 L318.316633,1433.70594 L317.33429,1433.70594 C316.857824,1433.70594 316.470573,1433.31869 316.470573,1432.84223 M330.417,1425.1428 C330.41651,1425.1428 330.41651,1425.1428 330.41651,1425.14231 C329.90377,1424.49525 329.135641,1424.12418 328.309179,1424.12418 L325.857733,1424.12418 C325.914595,1423.84428 325.955281,1423.56193 325.977339,1423.28448 C326.057241,1422.29086 325.896458,1421.39283 325.512148,1420.68745 C325.015585,1419.77814 324.145005,1419.18844 323.061193,1419.02766 C322.474924,1418.93845 321.938655,1419.06639 321.508757,1419.39187 C320.711707,1419.99579 320.581316,1421.02225 320.454847,1422.01538 C320.370043,1422.67811 320.274946,1423.42958 319.997008,1423.89477 C319.886715,1424.07957 319.656815,1424.46486 318.658786,1424.46486 L317.33429,1424.46486 C316.047048,1424.46486 315,1425.51142 315,1426.79866 L315,1432.84223 C315,1434.12947 316.047048,1435.17652 317.33429,1435.17652 L326.981741,1435.17652 C327.586147,1435.17652 328.179278,1434.96966 328.652802,1434.59466 C329.126817,1434.21868 329.463088,1433.68781 329.600832,1433.09958 L330.92827,1427.42611 C331.116503,1426.62219 330.93023,1425.79034 330.417,1425.1428" id="文章详情-点赞icon"></path>
        </g>
    </g>
</svg>