<?xml version="1.0" encoding="UTF-8"?>
<svg width="13px" height="12px" viewBox="0 0 13 12" version="1.1" xmlns="http://www.w3.org/2000/svg" xmlns:xlink="http://www.w3.org/1999/xlink">
    <!-- Generator: Sketch 49.3 (51167) - http://www.bohemiancoding.com/sketch -->
    <title>文章评论-评论icon</title>
    <desc>Created with Sketch.</desc>
    <defs></defs>
    <g id="主要页面" stroke="none" stroke-width="1" fill="none" fill-rule="evenodd">
        <g id="切图" transform="translate(-414.000000, -1422.000000)" fill="#4D545E">
            <path d="M420.318813,1426.42547 C419.907516,1426.42547 419.574342,1426.75864 419.574342,1427.16994 C419.574342,1427.58124 419.907516,1427.91479 420.318813,1427.91479 C420.73011,1427.91479 421.063284,1427.58124 421.063284,1427.16994 C421.063284,1426.75864 420.73011,1426.42547 420.318813,1426.42547 Z M423.350694,1426.42547 C422.939397,1426.42547 422.60584,1426.75864 422.60584,1427.16994 C422.60584,1427.58124 422.939397,1427.91479 423.350694,1427.91479 C423.761991,1427.91479 424.095165,1427.58124 424.095165,1427.16994 C424.095165,1426.75864 423.761991,1426.42547 423.350694,1426.42547 Z M417.286932,1426.42547 C416.875634,1426.42547 416.542461,1426.75864 416.542461,1427.16994 C416.542461,1427.58124 416.875634,1427.91479 417.286932,1427.91479 C417.698229,1427.91479 418.031786,1427.58124 418.031786,1427.16994 C418.031786,1426.75864 417.698229,1426.42547 417.286932,1426.42547 Z M425.488751,1430.61656 C425.488751,1430.93327 425.23102,1431.191 424.914313,1431.191 L422.296027,1431.191 C422.128674,1431.191 421.97932,1431.26376 421.87439,1431.37827 L420.45821,1432.79445 C420.381618,1432.87066 420.256391,1432.87066 420.179799,1432.79445 L418.744471,1431.3595 C418.742173,1431.35682 418.738727,1431.35644 418.736429,1431.35376 C418.685112,1431.30397 418.624988,1431.26376 418.55797,1431.23581 C418.553375,1431.23389 418.548396,1431.23313 418.543418,1431.23121 C418.48023,1431.20632 418.412063,1431.19177 418.340067,1431.19138 C418.339301,1431.19138 418.338535,1431.191 418.337769,1431.191 L418.33662,1431.191 L415.723313,1431.191 C415.406606,1431.191 415.148875,1430.93327 415.148875,1430.61656 L415.148875,1423.72331 C415.148875,1423.40661 415.406606,1423.14888 415.723313,1423.14888 L424.914313,1423.14888 C425.23102,1423.14888 425.488751,1423.40661 425.488751,1423.72331 L425.488751,1430.61656 Z M424.914313,1422 L415.723313,1422 C414.773193,1422 414,1422.77319 414,1423.72331 L414,1430.61656 C414,1431.56707 414.773193,1432.33988 415.723313,1432.33988 L418.100718,1432.33988 L419.367544,1433.6067 C419.629871,1433.86903 419.974533,1434 420.318813,1434 C420.663475,1434 421.008138,1433.86903 421.270464,1433.6067 L422.536908,1432.33988 L424.914313,1432.33988 C425.864433,1432.33988 426.637626,1431.56707 426.637626,1430.61656 L426.637626,1423.72331 C426.637626,1422.77319 425.864433,1422 424.914313,1422 Z" id="文章评论-评论icon"></path>
        </g>
    </g>
</svg>