<?xml version="1.0" encoding="UTF-8"?>
<svg width="14px" height="9px" viewBox="0 0 14 9" version="1.1" xmlns="http://www.w3.org/2000/svg" xmlns:xlink="http://www.w3.org/1999/xlink">
    <!-- Generator: Sketch 49.3 (51167) - http://www.bohemiancoding.com/sketch -->
    <title>文章详情-阅读量icon</title>
    <desc>Created with Sketch.</desc>
    <defs></defs>
    <g id="主要页面" stroke="none" stroke-width="1" fill="none" fill-rule="evenodd">
        <g id="切图" transform="translate(-368.000000, -1423.000000)" fill="#B4B4B4">
            <path d="M375.841145,1427.60964 C375.794053,1427.97154 375.487738,1428.26704 375.113542,1428.31295 C374.846684,1428.34533 374.586613,1428.26008 374.399939,1428.07974 C374.212841,1427.8994 374.12502,1427.64816 374.158536,1427.39036 C374.205629,1427.02887 374.511944,1426.73296 374.886564,1426.68746 C374.923899,1426.68295 374.961233,1426.6805 374.998144,1426.6805 C375.224274,1426.6805 375.438948,1426.76493 375.599742,1426.92026 C375.78684,1427.10101 375.874662,1427.35225 375.841145,1427.60964 M374.727467,1425.46733 C373.769491,1425.58413 373.016432,1426.31163 372.895943,1427.23667 C372.812788,1427.87399 373.032979,1428.49779 373.499663,1428.94945 C373.902284,1429.33758 374.43685,1429.54948 374.998992,1429.54948 C375.089784,1429.54948 375.180999,1429.54415 375.272639,1429.53267 C376.230191,1429.41628 376.983249,1428.68878 377.104163,1427.76333 C377.186893,1427.12642 376.966703,1426.50221 376.499595,1426.05096 C376.032486,1425.59971 375.386765,1425.38617 374.727467,1425.46733 M374.999841,1430.77044 C372.594295,1430.77044 370.425062,1429.52079 369.305868,1427.5002 C370.425062,1425.47921 372.594719,1424.22956 374.999841,1424.22956 C377.405387,1424.22956 379.57462,1425.47921 380.693814,1427.5002 C379.57462,1429.52079 377.405387,1430.77044 374.999841,1430.77044 M381.890223,1427.05715 C380.572052,1424.55458 377.931891,1423 374.999841,1423 C372.06779,1423 369.42763,1424.55458 368.109459,1427.05715 C367.963514,1427.33462 367.963514,1427.66579 368.109459,1427.94285 C369.42763,1430.44542 372.06779,1432 374.999841,1432 C377.931891,1432 380.572052,1430.44542 381.890223,1427.94285 C382.036592,1427.66579 382.036592,1427.33462 381.890223,1427.05715" id="文章详情-阅读量icon"></path>
        </g>
    </g>
</svg>