<?xml version="1.0" encoding="UTF-8"?>
<svg width="13px" height="18px" viewBox="0 0 13 18" version="1.1" xmlns="http://www.w3.org/2000/svg" xmlns:xlink="http://www.w3.org/1999/xlink">
    <!-- Generator: Sketch 49.3 (51167) - http://www.bohemiancoding.com/sketch -->
    <title>活动详情-主办方icon</title>
    <desc>Created with Sketch.</desc>
    <defs></defs>
    <g id="主要页面" stroke="none" stroke-width="1" fill="none" fill-rule="evenodd">
        <g id="切图" transform="translate(-204.000000, -1455.000000)" fill="#CCCCCC">
            <path d="M216.898328,1455.02325 C216.834542,1454.98889 216.755631,1454.99256 216.695627,1455.03459 C216.676885,1455.04976 214.62686,1456.46279 213.27141,1456.46279 C213.192664,1456.46279 213.117535,1456.45895 213.046186,1456.44761 C212.498088,1456.3714 212.069999,1456.18095 211.611991,1455.983 C210.958843,1455.69732 210.283008,1455.40031 209.22413,1455.40031 C209.145384,1455.40031 209.062693,1455.40031 208.980165,1455.40398 C207.316965,1455.47252 205.875207,1455.91446 205.450899,1456.05521 L205.214333,1455.79639 C205.158109,1455.73551 205.071801,1455.71634 204.99289,1455.74685 L204.121917,1456.11241 C204.031663,1456.1506 203.982838,1456.24966 204.005524,1456.34855 L208.191719,1472.85141 C208.214242,1472.93913 208.292988,1473 208.383241,1473 C208.435684,1473 208.48451,1472.98099 208.522157,1472.9428 L209.528264,1471.94119 C209.577089,1471.89166 209.595831,1471.82312 209.584652,1471.75458 C209.577089,1471.71255 208.694773,1467.50416 208.642166,1466.55575 C208.612246,1466.05311 208.811166,1465.53497 209.179085,1465.13889 C209.580871,1464.70846 210.384277,1464.19432 211.938647,1464.19432 C212.817182,1464.19432 213.624369,1464.08025 214.345248,1463.85161 C214.923431,1463.66883 215.44539,1463.40984 215.895837,1463.08615 C216.673104,1462.53014 216.965895,1461.9663 216.977238,1461.94345 C216.992198,1461.91677 216.99976,1461.88258 216.99976,1461.85206 L216.99976,1455.20219 C217.003541,1455.12598 216.962278,1455.05744 216.898328,1455.02325" id="活动详情-主办方icon"></path>
        </g>
    </g>
</svg>