<?xml version="1.0" encoding="UTF-8"?>
<svg width="14px" height="17px" viewBox="0 0 14 17" version="1.1" xmlns="http://www.w3.org/2000/svg" xmlns:xlink="http://www.w3.org/1999/xlink">
    <!-- Generator: Sketch 49.3 (51167) - http://www.bohemiancoding.com/sketch -->
    <title>活动详情-地址icon</title>
    <desc>Created with Sketch.</desc>
    <defs></defs>
    <g id="主要页面" stroke="none" stroke-width="1" fill="none" fill-rule="evenodd">
        <g id="切图" transform="translate(-231.000000, -1455.000000)" fill="#CCCCCC">
            <path d="M240.823533,1462.15058 C240.823533,1463.71983 239.558023,1464.99216 237.998582,1464.99121 C236.439141,1464.99121 235.175522,1463.71697 235.176467,1462.14773 L235.176467,1462.14678 C235.176467,1460.57658 236.441032,1459.30424 238.000472,1459.30424 C239.559913,1459.30424 240.823533,1460.57753 240.823533,1462.14773 L240.823533,1462.15058 Z M233.438399,1467.39409 L238.013704,1472 L242.825288,1467.15523 L242.830013,1467.15047 C242.910348,1467.07244 242.989738,1466.99345 243.067238,1466.91161 L243.071018,1466.90685 C244.310065,1465.5974 245.000944,1463.85781 244.999999,1462.04971 C244.999999,1458.15752 241.86505,1455 238.000472,1455 C234.134949,1455 231.000001,1458.15752 231.000001,1462.04971 C230.999056,1464.10334 231.889355,1466.05609 233.438399,1467.39409 Z" id="活动详情-地址icon"></path>
        </g>
    </g>
</svg>