<?xml version="1.0" encoding="UTF-8"?>
<svg width="16px" height="18px" viewBox="0 0 16 18" version="1.1" xmlns="http://www.w3.org/2000/svg" xmlns:xlink="http://www.w3.org/1999/xlink">
    <!-- Generator: Sketch 49.3 (51167) - http://www.bohemiancoding.com/sketch -->
    <title>活动详情-嘉宾icon</title>
    <desc>Created with Sketch.</desc>
    <defs></defs>
    <g id="主要页面" stroke="none" stroke-width="1" fill="none" fill-rule="evenodd">
        <g id="切图" transform="translate(-231.000000, -1479.000000)" fill="#CCCCCC">
            <path d="M242.869669,1495.64209 L240.770203,1495.64209 L240.770203,1488.68593 L241.43863,1488.11601 C241.780259,1487.82534 241.800034,1487.32931 241.483124,1487.01119 L239.039494,1484.54846 C238.727528,1484.23021 238.232388,1484.25279 237.950084,1484.59849 L232.478441,1491.24269 C232.23328,1491.5431 231.794296,1492.39946 232.283859,1493.22862 C232.282971,1493.23234 232.281197,1493.23568 232.280436,1493.23952 C232.263069,1493.30956 232.097262,1493.92848 231.431244,1494.06625 C231.290029,1494.09383 231.171251,1494.17644 231.089488,1494.29676 C231.01026,1494.41952 230.983006,1494.56485 231.01026,1494.71006 C231.062234,1494.9607 231.285085,1495.14606 231.540134,1495.14606 C231.572332,1495.14606 231.606939,1495.14349 231.64408,1495.13105 C232.465765,1494.96147 232.902213,1494.43042 233.125952,1494.00583 C233.910621,1494.37821 234.624683,1493.9263 234.899888,1493.69041 L239.428279,1489.82988 L239.428279,1495.64209 L237.323743,1495.64209 C236.95486,1495.64209 236.652781,1495.9452 236.652781,1496.32105 C236.652781,1496.69933 236.952324,1497 237.323743,1497 L242.869669,1497 C243.243496,1497 243.54304,1496.69689 243.54304,1496.32105 C243.54304,1495.9452 243.243496,1495.64209 242.869669,1495.64209 M245.974374,1480.0363 C244.583012,1478.62824 242.295302,1478.65838 240.869206,1480.10647 C240.158567,1480.823 239.529691,1482.47145 239.529691,1482.47145 C239.371236,1482.88988 239.495084,1483.4961 239.811994,1483.81178 L242.240793,1486.27708 C242.555295,1486.59533 243.154381,1486.72309 243.567886,1486.56018 C243.567886,1486.56018 245.19693,1485.92381 245.909978,1485.20227 C247.338609,1483.75676 247.365863,1481.4418 245.974374,1480.0363" id="活动详情-嘉宾icon"></path>
        </g>
    </g>
</svg>