<?xml version="1.0" encoding="UTF-8"?>
<svg width="16px" height="16px" viewBox="0 0 16 16" version="1.1" xmlns="http://www.w3.org/2000/svg" xmlns:xlink="http://www.w3.org/1999/xlink">
    <!-- Generator: Sketch 49.3 (51167) - http://www.bohemiancoding.com/sketch -->
    <title>活动详情-时间icon</title>
    <desc>Created with Sketch.</desc>
    <defs></defs>
    <g id="主要页面" stroke="none" stroke-width="1" fill="none" fill-rule="evenodd">
        <g id="切图" transform="translate(-203.000000, -1481.000000)" fill="#CCCCCC">
            <path d="M214.776485,1489.72727 L211,1489.72727 C210.598545,1489.72727 210.272727,1489.40145 210.272727,1489 L210.272727,1484.60582 C210.272727,1484.20436 210.598545,1483.87855 211,1483.87855 C211.401939,1483.87855 211.727273,1484.20436 211.727273,1484.60582 L211.727273,1488.27273 L214.776485,1488.27273 C215.178424,1488.27273 215.503758,1488.59855 215.503758,1489 C215.503758,1489.40145 215.178424,1489.72727 214.776485,1489.72727 M211,1481 C206.588848,1481 203,1484.58885 203,1489 C203,1493.41115 206.588848,1497 211,1497 C215.411636,1497 219,1493.41115 219,1489 C219,1484.58885 215.411636,1481 211,1481" id="活动详情-时间icon"></path>
        </g>
    </g>
</svg>