<?xml version="1.0" encoding="UTF-8"?>
<svg width="12px" height="12px" viewBox="0 0 12 12" version="1.1" xmlns="http://www.w3.org/2000/svg" xmlns:xlink="http://www.w3.org/1999/xlink">
    <!-- Generator: Sketch 49.3 (51167) - http://www.bohemiancoding.com/sketch -->
    <title>活动列表-时间</title>
    <desc>Created with Sketch.</desc>
    <defs></defs>
    <g id="主要页面" stroke="none" stroke-width="1" fill="none" fill-rule="evenodd">
        <g id="切图" transform="translate(-419.000000, -1377.000000)" fill="#D2D2D2">
            <path d="M427.832364,1383.54545 L425,1383.54545 C424.698909,1383.54545 424.454545,1383.30109 424.454545,1383 L424.454545,1379.70436 C424.454545,1379.40327 424.698909,1379.15891 425,1379.15891 C425.301455,1379.15891 425.545455,1379.40327 425.545455,1379.70436 L425.545455,1382.45455 L427.832364,1382.45455 C428.133818,1382.45455 428.377818,1382.69891 428.377818,1383 C428.377818,1383.30109 428.133818,1383.54545 427.832364,1383.54545 M425,1377 C421.691636,1377 419,1379.69164 419,1383 C419,1386.30836 421.691636,1389 425,1389 C428.308727,1389 431,1386.30836 431,1383 C431,1379.69164 428.308727,1377 425,1377" id="活动列表-时间"></path>
        </g>
    </g>
</svg>