<?xml version="1.0" encoding="UTF-8"?>
<svg width="21px" height="17px" viewBox="0 0 21 17" version="1.1" xmlns="http://www.w3.org/2000/svg" xmlns:xlink="http://www.w3.org/1999/xlink">
    <!-- Generator: Sketch 49.3 (51167) - http://www.bohemiancoding.com/sketch -->
    <title>页脚-微信-选中</title>
    <desc>Created with Sketch.</desc>
    <defs></defs>
    <g id="主要页面" stroke="none" stroke-width="1" fill="none" fill-rule="evenodd">
        <g id="切图" transform="translate(-364.000000, -1339.000000)" fill="#FFFFFF">
            <path d="M380.684438,1349.05231 C380.240313,1349.05231 379.878,1348.69106 379.878,1348.24588 C379.878,1347.80175 380.240313,1347.44475 380.684438,1347.4405 C381.128562,1347.4405 381.490875,1347.80175 381.490875,1348.24588 C381.490875,1348.69106 381.128562,1349.05231 380.684438,1349.05231 M376.662875,1349.05231 C376.21875,1349.05231 375.8575,1348.69106 375.8575,1348.24588 C375.8575,1347.80175 376.2145,1347.44475 376.662875,1347.4405 C377.108063,1347.4405 377.469313,1347.80175 377.469313,1348.24588 C377.469313,1348.69106 377.108063,1349.05231 376.662875,1349.05231 M384.866438,1349.90444 C384.866438,1346.95494 381.911625,1344.54625 378.591313,1344.54625 C375.074437,1344.54625 372.307687,1346.94962 372.307687,1349.90444 C372.307687,1352.86244 375.078688,1355.26263 378.591313,1355.26263 C379.328688,1355.26263 380.070312,1355.07456 380.807687,1354.89181 L382.83175,1356 L382.278188,1354.15444 C383.761437,1353.042 384.866438,1351.56619 384.866438,1349.90444 M368.89175,1343.96931 C368.323312,1343.96931 367.866438,1343.51138 367.866438,1342.94294 C367.866438,1342.37556 368.323312,1341.91763 368.89175,1341.91763 C369.460188,1341.91763 369.917062,1342.37556 369.917062,1342.94294 C369.917062,1343.51138 369.460188,1343.96931 368.89175,1343.96931 M374.126688,1341.91763 C374.694062,1341.91763 375.152,1342.37556 375.152,1342.94294 C375.152,1343.51138 374.694062,1343.96931 374.126688,1343.96931 C373.55825,1343.96931 373.100312,1343.51138 373.100312,1342.94294 C373.100312,1342.37556 373.55825,1341.91763 374.126688,1341.91763 M378.133375,1344.14781 C378.371375,1344.14781 378.609375,1344.16587 378.843125,1344.18925 C378.202437,1341.21213 375.019187,1339 371.387563,1339 C367.325625,1339 364,1341.76994 364,1345.28363 C364,1347.31194 365.103938,1348.98006 366.954813,1350.26994 L366.217438,1352.49163 L368.796125,1351.19644 C369.7205,1351.37812 370.462125,1351.56619 371.383312,1351.56619 C371.616,1351.56619 371.8455,1351.55769 372.0835,1351.53962 C371.936875,1351.0445 371.854,1350.52706 371.854,1349.99156 C371.854,1346.76263 374.625,1344.14781 378.133375,1344.14781" id="页脚-微信-选中"></path>
        </g>
    </g>
</svg>