<?xml version="1.0" encoding="UTF-8"?>
<svg width="18px" height="18px" viewBox="0 0 18 18" version="1.1" xmlns="http://www.w3.org/2000/svg" xmlns:xlink="http://www.w3.org/1999/xlink">
    <!-- Generator: Sketch 49.3 (51167) - http://www.bohemiancoding.com/sketch -->
    <title>首页-企业专栏icom</title>
    <desc>Created with Sketch.</desc>
    <defs>
        <linearGradient x1="0%" y1="0%" x2="100%" y2="100%" id="linearGradient-1">
            <stop stop-color="#FFC361" offset="0%"></stop>
            <stop stop-color="#EF9E19" offset="100%"></stop>
        </linearGradient>
    </defs>
    <g id="主要页面" stroke="none" stroke-width="1" fill="none" fill-rule="evenodd">
        <g id="切图" transform="translate(-58.000000, -1479.000000)" fill="url(#linearGradient-1)">
            <path d="M71.2246,1492.11 C71.2246,1492.1598 71.1844,1492.2 71.1346,1492.2 L70.705,1492.2 C70.705,1492.2 70.1712,1492.2 69.1036,1492.2 L69.1036,1483.413 L66.0418,1484.7726 L66.0418,1485.6978 L67.1104,1485.3258 C67.234,1485.2832 67.3702,1485.297 67.4818,1485.3642 L68.221,1485.8094 C68.353,1485.8892 68.434,1486.032 68.434,1486.1862 L68.434,1491.5694 L68.434,1491.618 L68.6938,1491.618 C68.7436,1491.618 68.7838,1491.6582 68.7838,1491.708 L68.7838,1492.11 C68.7838,1492.1598 68.7436,1492.2 68.6938,1492.2 L66.7594,1492.2 L66.7594,1486.035 L63.6496,1487.0544 L63.6496,1492.2 L62.8666,1492.2 C62.8162,1492.2 62.776,1492.1598 62.776,1492.11 L62.776,1491.708 C62.776,1491.6582 62.8162,1491.618 62.8666,1491.618 L63.124,1491.618 L63.124,1487.0274 C63.124,1486.8402 63.2422,1486.6728 63.4192,1486.6116 L65.4682,1485.8982 L65.4682,1484.7186 C65.4682,1484.5452 65.5702,1484.3874 65.7286,1484.3166 L69.4888,1482.6384 C69.6268,1482.5772 69.787,1482.5904 69.9124,1482.6744 L70.6786,1483.1856 C70.8004,1483.2672 70.8742,1483.4046 70.8742,1483.5516 L70.8742,1491.618 L71.1346,1491.618 C71.1844,1491.618 71.2246,1491.6582 71.2246,1491.708 L71.2246,1492.11 Z M66.2812,1487.9112 L64.033,1488.5994 L64.033,1487.6772 L66.2812,1486.9404 L66.2812,1487.9112 Z M66.2812,1489.1118 L64.033,1489.7994 L64.033,1488.8772 L66.2812,1488.141 L66.2812,1489.1118 Z M66.2812,1490.3118 L64.033,1491 L64.033,1490.0778 L66.2812,1489.3416 L66.2812,1490.3118 Z M66.2812,1492.2 L64.033,1492.2 L64.033,1491.2784 L66.2812,1490.5416 L66.2812,1492.2 Z M62.8,1479 C60.1606,1479 58,1481.16 58,1483.8 L58,1492.2 C58,1494.8406 60.1606,1497 62.8,1497 L71.2,1497 C73.84,1497 76,1494.8406 76,1492.2 L76,1483.8 C76,1481.16 73.84,1479 71.2,1479 L62.8,1479 Z" id="首页-企业专栏icom"></path>
        </g>
    </g>
</svg>