<?xml version="1.0" encoding="UTF-8"?>
<svg width="11px" height="13px" viewBox="0 0 11 13" version="1.1" xmlns="http://www.w3.org/2000/svg" xmlns:xlink="http://www.w3.org/1999/xlink">
    <!-- Generator: Sketch 49.3 (51167) - http://www.bohemiancoding.com/sketch -->
    <title>首页新闻-标签icon</title>
    <desc>Created with Sketch.</desc>
    <defs></defs>
    <g id="主要页面" stroke="none" stroke-width="1" fill="none" fill-rule="evenodd">
        <g id="切图" transform="translate(-353.000000, -1239.000000)" fill="#B4B4B4">
            <path d="M362.017667,1250.72285 C362.111818,1250.84221 362.229212,1250.8233 362.290273,1250.80203 C362.351727,1250.78076 362.454545,1250.72245 362.454545,1250.57079 L362.454545,1240.42685 C362.454545,1240.29173 362.344636,1240.18182 362.209515,1240.18182 L354.426848,1240.18182 C354.292121,1240.18182 354.181818,1240.29173 354.181818,1240.42685 L354.181818,1250.57079 C354.181818,1250.72245 354.28503,1250.78076 354.346485,1250.80203 C354.407152,1250.8233 354.524545,1250.84221 354.619091,1250.72285 L357.200182,1247.46655 C357.472394,1247.12303 357.880121,1246.92606 358.318182,1246.92606 C358.756636,1246.92606 359.164364,1247.12303 359.436576,1247.46655 L362.017667,1250.72285 Z M362.200848,1252 C361.776182,1252 361.37003,1251.80855 361.091515,1251.45715 L358.510424,1248.20045 C358.446212,1248.1197 358.362697,1248.10788 358.318182,1248.10788 C358.274061,1248.10788 358.190545,1248.1197 358.126727,1248.20045 L355.544848,1251.45715 C355.162333,1251.93973 354.539121,1252.11976 353.957667,1251.91806 C353.375818,1251.71558 353,1251.18652 353,1250.57079 L353,1240.42685 C353,1239.64015 353.640152,1239 354.426848,1239 L362.209515,1239 C362.996212,1239 363.636364,1239.64015 363.636364,1240.42685 L363.636364,1250.57079 C363.636364,1251.18652 363.260545,1251.71558 362.679091,1251.91806 C362.520727,1251.97321 362.359606,1252 362.200848,1252 Z" id="首页新闻-标签icon"></path>
        </g>
    </g>
</svg>