<?xml version="1.0" encoding="UTF-8"?>
<svg width="18px" height="18px" viewBox="0 0 18 18" version="1.1" xmlns="http://www.w3.org/2000/svg" xmlns:xlink="http://www.w3.org/1999/xlink">
    <!-- Generator: Sketch 49.3 (51167) - http://www.bohemiancoding.com/sketch -->
    <title>首页-快讯icon</title>
    <desc>Created with Sketch.</desc>
    <defs>
        <linearGradient x1="0%" y1="0%" x2="100%" y2="100%" id="linearGradient-1">
            <stop stop-color="#63CEFF" offset="0%"></stop>
            <stop stop-color="#238EF2" offset="100%"></stop>
        </linearGradient>
    </defs>
    <g id="主要页面" stroke="none" stroke-width="1" fill="none" fill-rule="evenodd">
        <g id="切图" transform="translate(-81.000000, -1455.000000)" fill="url(#linearGradient-1)">
            <path d="M93.438,1463.6412 L93.4362,1463.6442 C93.432,1463.6484 93.429,1463.6532 93.4248,1463.6568 L88.7628,1469.046 C88.7106,1469.1084 88.6338,1469.1462 88.551,1469.1498 C88.3884,1469.1558 88.2516,1469.0328 88.2456,1468.875 C88.245,1468.8492 88.2522,1468.8252 88.2576,1468.8012 L88.2546,1468.8006 L89.049,1465.446 L86.8062,1465.446 C86.8032,1465.446 86.8008,1465.4478 86.7978,1465.4478 C86.6352,1465.4538 86.499,1465.3308 86.4924,1465.1736 C86.4912,1465.131 86.4996,1465.089 86.517,1465.0506 L88.638,1460.241 C88.6398,1460.2356 88.6422,1460.2302 88.6446,1460.2254 L88.6452,1460.2236 C88.689,1460.1222 88.7892,1460.0538 88.902,1460.0496 L92.3232,1460.0508 L92.3256,1460.0508 L92.3262,1460.0508 C92.4882,1460.0448 92.6256,1460.1678 92.6316,1460.3256 C92.6322,1460.37 92.6226,1460.4144 92.6022,1460.454 L92.6034,1460.4546 L91.3296,1463.1558 L93.1956,1463.175 C93.198,1463.175 93.1998,1463.1732 93.2028,1463.1732 C93.207,1463.1732 93.2106,1463.175 93.2148,1463.175 L93.2172,1463.175 L93.2172,1463.1756 C93.3738,1463.1762 93.5016,1463.2962 93.5076,1463.448 C93.51,1463.5182 93.4854,1463.5878 93.438,1463.6412 Z M94.2,1455 L85.8,1455 C83.16,1455 81,1457.16 81,1459.8 L81,1468.2 C81,1470.84 83.16,1473 85.8,1473 L94.2,1473 C96.84,1473 99,1470.84 99,1468.2 L99,1459.8 C99,1457.16 96.84,1455 94.2,1455 Z" id="首页-快讯icon"></path>
        </g>
    </g>
</svg>