<?xml version="1.0" encoding="UTF-8"?>
<svg width="18px" height="18px" viewBox="0 0 18 18" version="1.1" xmlns="http://www.w3.org/2000/svg" xmlns:xlink="http://www.w3.org/1999/xlink">
    <!-- Generator: Sketch 49.3 (51167) - http://www.bohemiancoding.com/sketch -->
    <title>首页-热门新闻icon</title>
    <desc>Created with Sketch.</desc>
    <defs>
        <linearGradient x1="0%" y1="0%" x2="100%" y2="100%" id="linearGradient-1">
            <stop stop-color="#FF8282" offset="0%"></stop>
            <stop stop-color="#FF3939" offset="100%"></stop>
        </linearGradient>
    </defs>
    <g id="主要页面" stroke="none" stroke-width="1" fill="none" fill-rule="evenodd">
        <g id="切图" transform="translate(-104.000000, -1455.000000)" fill="url(#linearGradient-1)">
            <path d="M114.6872,1468.401 C114.41,1468.5144 114.1004,1468.5306 113.8118,1468.4472 C113.1488,1468.2576 112.5212,1467.9072 111.9962,1467.3966 C111.7994,1467.2046 111.6278,1466.9976 111.4766,1466.781 C111.4418,1466.73 111.3644,1466.742 111.3458,1466.7984 C111.1892,1467.2508 111.1154,1467.723 111.1226,1468.1964 C111.1238,1468.2516 111.0656,1468.2888 111.0146,1468.2642 C109.6436,1467.5784 108.704,1466.211 108.704,1464.6288 C108.704,1463.7474 108.983,1462.8996 109.4792,1462.2306 L109.535,1462.1682 C110.1506,1461.4716 110.6432,1460.6964 110.5832,1459.8432 C110.5772,1459.7568 110.5784,1459.6698 110.573,1459.5846 C110.5694,1459.5426 110.6006,1459.5066 110.6432,1459.503 C110.669,1459.5018 110.693,1459.5 110.7176,1459.5 C112.571,1459.5 114.074,1460.9346 114.074,1462.7034 C114.074,1462.8366 114.0644,1462.9662 114.0476,1463.0946 C114.038,1463.1654 114.1214,1463.2068 114.1724,1463.157 C114.707,1462.641 115.0598,1461.9552 115.1306,1461.1884 C115.1354,1461.135 115.1942,1461.1032 115.2428,1461.1314 C116.474,1461.8544 117.2966,1463.148 117.2966,1464.6288 C117.2966,1466.322 116.2214,1467.7752 114.6872,1468.401 M117.2,1455 L108.8,1455 C106.1606,1455 104,1457.16 104,1459.8 L104,1468.2 C104,1470.8394 106.1606,1473 108.8,1473 L117.2,1473 C119.84,1473 122,1470.8394 122,1468.2 L122,1459.8 C122,1457.16 119.84,1455 117.2,1455" id="首页-热门新闻icon"></path>
        </g>
    </g>
</svg>