<?xml version="1.0" encoding="UTF-8"?>
<svg width="14px" height="9px" viewBox="0 0 14 9" version="1.1" xmlns="http://www.w3.org/2000/svg" xmlns:xlink="http://www.w3.org/1999/xlink">
    <!-- Generator: Sketch 49.3 (51167) - http://www.bohemiancoding.com/sketch -->
    <title>首页新闻-浏览量icon</title>
    <desc>Created with Sketch.</desc>
    <defs></defs>
    <g id="主要页面" stroke="none" stroke-width="1" fill="none" fill-rule="evenodd">
        <g id="切图" transform="translate(-373.000000, -1241.000000)" fill="#B4B4B4">
            <path d="M380.574935,1245.60964 C380.529441,1245.97154 380.233526,1246.26704 379.872034,1246.31295 C379.614236,1246.34533 379.362995,1246.26008 379.182659,1246.07974 C379.001913,1245.8994 378.917073,1245.64816 378.949451,1245.39036 C378.994945,1245.02887 379.29086,1244.73296 379.652762,1244.68746 C379.688829,1244.68295 379.724896,1244.6805 379.760554,1244.6805 C379.979006,1244.6805 380.186393,1244.76493 380.341728,1244.92026 C380.522474,1245.10101 380.607314,1245.35225 380.574935,1245.60964 M379.499066,1243.46733 C378.573614,1243.58413 377.846122,1244.31163 377.729724,1245.23667 C377.649392,1245.87399 377.862107,1246.49779 378.312947,1246.94945 C378.701899,1247.33758 379.218316,1247.54948 379.761373,1247.54948 C379.849082,1247.54948 379.937201,1247.54415 380.02573,1247.53267 C380.950772,1247.41628 381.678264,1246.68878 381.795073,1245.76333 C381.874994,1245.12642 381.66228,1244.50221 381.21103,1244.05096 C380.75978,1243.59971 380.135981,1243.38617 379.499066,1243.46733 M379.762193,1248.77044 C377.438317,1248.77044 375.34273,1247.52079 374.261533,1245.5002 C375.34273,1243.47921 377.438727,1242.22956 379.762193,1242.22956 C382.086069,1242.22956 384.181657,1243.47921 385.262853,1245.5002 C384.181657,1247.52079 382.086069,1248.77044 379.762193,1248.77044 M386.418644,1245.05715 C385.145225,1242.55458 382.594699,1241 379.762193,1241 C376.929687,1241 374.379161,1242.55458 373.105743,1245.05715 C372.964752,1245.33462 372.964752,1245.66579 373.105743,1245.94285 C374.379161,1248.44542 376.929687,1250 379.762193,1250 C382.594699,1250 385.145225,1248.44542 386.418644,1245.94285 C386.560044,1245.66579 386.560044,1245.33462 386.418644,1245.05715" id="首页新闻-浏览量icon"></path>
        </g>
    </g>
</svg>