<?xml version="1.0" encoding="UTF-8"?>
<svg width="32px" height="60px" viewBox="0 0 32 60" version="1.1" xmlns="http://www.w3.org/2000/svg" xmlns:xlink="http://www.w3.org/1999/xlink">
    <!-- Generator: Sketch 49.3 (51167) - http://www.bohemiancoding.com/sketch -->
    <title>首页-右轮播</title>
    <desc>Created with Sketch.</desc>
    <defs></defs>
    <g id="主要页面" stroke="none" stroke-width="1" fill="none" fill-rule="evenodd">
        <g id="切图" transform="translate(-283.000000, -1295.000000)">
            <g id="右轮播" transform="translate(283.000000, 1295.000000)">
                <g transform="translate(16.000000, 30.000000) scale(-1, 1) translate(-16.000000, -30.000000) ">
                    <polygon id="Rectangle-5-Copy" fill="#000000" opacity="0.2" points="0 60 1.95943488e-15 0 32 0 32 60"></polygon>
                    <path d="M23.7675343,33.4375124 L15.5624876,25.2324657 C15.2525333,24.9225114 14.7486589,24.9225114 14.4387045,25.2324657 L6.23365786,33.4375124 C5.92211405,33.7474667 5.92211405,34.2513411 6.23365786,34.5612955 C6.38784025,34.7170674 6.59129744,34.7949533 6.79475462,34.7949533 C6.9982118,34.7949533 7.20166898,34.7170674 7.35744089,34.5612955 L14.9998013,26.9173455 L22.6437512,34.5612955 C22.7995231,34.7170674 23.0029803,34.7949533 23.204848,34.7949533 C23.4083052,34.7949533 23.6117624,34.7170674 23.7675343,34.5612955 C24.0774886,34.2513411 24.0774886,33.7474667 23.7675343,33.4375124" id="Fill-1" fill="#FFFFFF" transform="translate(15.000000, 29.897477) rotate(-90.000000) translate(-15.000000, -29.897477) "></path>
                </g>
            </g>
        </g>
    </g>
</svg>