<?xml version="1.0" encoding="UTF-8"?>
<svg width="139px" height="40px" viewBox="0 0 139 40" version="1.1" xmlns="http://www.w3.org/2000/svg" xmlns:xlink="http://www.w3.org/1999/xlink">
    <!-- Generator: Sketch 49.3 (51167) - http://www.bohemiancoding.com/sketch -->
    <title>鸵鸟logo</title>
    <desc>Created with Sketch.</desc>
    <defs></defs>
    <g id="主要页面" stroke="none" stroke-width="1" fill="none" fill-rule="evenodd">
        <g id="切图" transform="translate(-12.000000, -1185.000000)" fill="#349DFF">
            <path d="M110.533888,1189.22459 C110.126264,1189.22459 109.794354,1189.36677 109.518129,1189.65862 C109.244325,1189.94783 109.105883,1190.31584 109.105883,1190.75252 C109.105883,1191.18677 109.244325,1191.5528 109.518129,1191.84091 C109.794354,1192.13122 110.129125,1192.27253 110.542031,1192.27253 C110.946574,1192.27253 111.276063,1192.13078 111.548986,1191.83871 C111.820149,1191.5495 111.957711,1191.18149 111.957711,1190.74437 C111.957711,1190.30506 111.820589,1189.93749 111.549206,1189.65202 C111.276283,1189.36457 110.943933,1189.22459 110.533888,1189.22459 Z M146.51288,1193.14148 L145.506145,1193.14148 L145.506145,1190.37703 C145.506145,1190.00682 145.425809,1189.71717 145.267117,1189.51688 C145.111727,1189.32033 144.898891,1189.22459 144.616943,1189.22459 C144.287014,1189.22459 144.058331,1189.32539 143.918127,1189.53229 C143.772422,1189.74776 143.698248,1190.12457 143.698248,1190.65237 L143.698248,1193.14148 L142.720787,1193.14148 L142.720787,1190.73623 C142.720787,1190.19589 142.645513,1189.80103 142.497166,1189.56332 C142.354981,1189.33552 142.133121,1189.22459 141.819039,1189.22459 C141.492192,1189.22459 141.259327,1189.33684 141.105917,1189.5675 C140.947446,1189.80609 140.867109,1190.18796 140.867109,1190.70256 L140.867109,1193.14148 L139.906375,1193.14148 L139.906375,1188.37236 L140.817147,1188.37236 L140.817147,1188.75798 C140.936881,1188.63318 141.06718,1188.53304 141.206503,1188.45952 C141.410975,1188.35189 141.646701,1188.29731 141.907079,1188.29731 C142.254396,1188.29731 142.549549,1188.36598 142.783515,1188.50112 C142.980504,1188.61469 143.1491,1188.78329 143.285782,1189.00317 C143.425105,1188.78725 143.599864,1188.6202 143.807417,1188.50464 C144.053269,1188.36708 144.356566,1188.29731 144.708505,1188.29731 C145.250609,1188.29731 145.692129,1188.47735 146.020297,1188.83281 C146.346925,1189.18629 146.51288,1189.66193 146.51288,1190.24739 L146.51288,1193.14148 Z M137.478018,1191.6525 C137.362466,1191.95888 137.197172,1192.23137 136.987197,1192.46159 C136.746408,1192.72527 136.471944,1192.9282 136.171288,1193.06466 C135.869972,1193.20156 135.545325,1193.27068 135.205932,1193.27068 C134.858835,1193.27068 134.533749,1193.20729 134.240576,1193.08205 C133.946743,1192.95725 133.679983,1192.76995 133.447118,1192.52564 C133.226138,1192.29255 133.050719,1192.01853 132.926142,1191.71039 C132.801346,1191.40203 132.737957,1191.08267 132.737957,1190.7611 C132.737957,1190.42567 132.795844,1190.10807 132.908755,1189.81688 C133.022326,1189.52524 133.192023,1189.25936 133.413663,1189.0265 C133.649609,1188.7725 133.921872,1188.57309 134.221427,1188.43487 C134.841007,1188.14852 135.552369,1188.17317 136.123307,1188.41264 C136.41846,1188.53656 136.688742,1188.72144 136.926009,1188.96223 C137.159094,1189.2006 137.340236,1189.47264 137.464592,1189.77088 C137.589609,1190.06955 137.652998,1190.38319 137.652998,1190.70256 C137.652998,1191.02676 137.594451,1191.34657 137.478018,1191.6525 Z M130.643051,1191.51648 C130.446062,1192.08478 130.147607,1192.52256 129.756711,1192.81683 C129.364494,1193.11264 128.881595,1193.26253 128.321883,1193.26253 C127.969503,1193.26253 127.644637,1193.20046 127.356307,1193.07831 C127.067536,1192.95549 126.803637,1192.76951 126.571212,1192.52564 C126.349572,1192.29233 126.174373,1192.01831 126.050016,1191.71039 C125.92544,1191.40247 125.862272,1191.08311 125.862272,1190.7611 C125.862272,1190.43117 125.919718,1190.11775 126.033289,1189.82876 C126.14642,1189.54087 126.316117,1189.27367 126.537096,1189.0353 C126.780306,1188.77471 127.058512,1188.57375 127.36313,1188.43839 C127.668848,1188.30303 127.999657,1188.23458 128.346974,1188.23458 C128.889959,1188.23458 129.368676,1188.38711 129.769477,1188.68843 C130.168737,1188.98886 130.46279,1189.41541 130.643491,1189.95664 L130.682009,1190.07241 L129.6,1190.07241 L129.575569,1190.02465 C129.439107,1189.75877 129.261707,1189.55848 129.048431,1189.42906 C128.835155,1189.29876 128.575437,1189.23295 128.275882,1189.23295 C127.888507,1189.23295 127.568702,1189.37536 127.29864,1189.66831 C127.029899,1189.95906 126.893658,1190.32398 126.893658,1190.75252 C126.893658,1191.18677 127.03166,1191.5528 127.303923,1191.84091 C127.578607,1192.13144 127.911617,1192.27253 128.321883,1192.27253 C128.592605,1192.27253 128.840657,1192.20077 129.059216,1192.05903 C129.277995,1191.91706 129.451213,1191.71215 129.574248,1191.45001 L129.597799,1191.39961 L130.683549,1191.39961 L130.643051,1191.51648 Z M122.27267,1193.14148 L123.283807,1193.14148 L123.283807,1191.93863 L122.27267,1191.93863 L122.27267,1193.14148 Z M118.785195,1193.14148 L117.338261,1190.84188 L115.875481,1193.14148 L114.644905,1193.14148 L116.728586,1189.98459 L114.695528,1186.88603 L115.934467,1186.88603 L117.338261,1189.1568 L118.725768,1186.88603 L119.981655,1186.88603 L117.948817,1189.98459 L120.023694,1193.14148 L118.785195,1193.14148 Z M112.814118,1191.6525 C112.698786,1191.95888 112.533271,1192.23137 112.323296,1192.46159 C112.082507,1192.72527 111.808043,1192.9282 111.507608,1193.06466 C111.206512,1193.20156 110.881425,1193.27068 110.542031,1193.27068 C110.195155,1193.27068 109.870068,1193.20729 109.576896,1193.08205 C109.282843,1192.95725 109.016082,1192.76995 108.783437,1192.52564 C108.562457,1192.29255 108.387038,1192.01853 108.262682,1191.71039 C108.137665,1191.40203 108.074057,1191.08267 108.074057,1190.7611 C108.074057,1190.42567 108.131943,1190.10807 108.245074,1189.81688 C108.358645,1189.52524 108.528562,1189.25936 108.749982,1189.0265 C108.985929,1188.7725 109.257971,1188.57309 109.557527,1188.43487 C110.177547,1188.14852 110.888688,1188.17317 111.459626,1188.41264 C111.754559,1188.53656 112.024841,1188.72144 112.262329,1188.96223 C112.495194,1189.2006 112.676336,1189.47264 112.800912,1189.77088 C112.925708,1190.06955 112.989317,1190.38319 112.989317,1190.70256 C112.989317,1191.02676 112.93077,1191.34657 112.814118,1191.6525 Z M105.84599,1193.14148 L104.835294,1193.14148 L104.835294,1192.69556 C104.655473,1192.85359 104.459144,1192.97926 104.25027,1193.06951 C103.980428,1193.18638 103.688356,1193.2458 103.382417,1193.2458 C102.670396,1193.2458 102.070625,1193.00458 101.599392,1192.52872 C101.128159,1192.05287 100.889131,1191.44979 100.889131,1190.73623 C100.889131,1190.4041 100.948558,1190.08408 101.066752,1189.78518 C101.184285,1189.48629 101.354862,1189.21953 101.57364,1188.99194 C101.811128,1188.74301 102.075907,1188.55549 102.360716,1188.43575 C102.643984,1188.31624 102.971052,1188.25549 103.332235,1188.25549 C103.657102,1188.25549 103.960839,1188.31426 104.234642,1188.42937 C104.449239,1188.52005 104.65063,1188.64749 104.835294,1188.81014 L104.835294,1188.37236 L105.84599,1188.37236 L105.84599,1193.14148 Z M97.6085494,1188.00942 L98.6029586,1188.00942 L98.6029586,1186.88581 L97.6085494,1186.88581 L97.6085494,1188.00942 Z M97.6085494,1193.14148 L98.6029586,1193.14148 L98.6029586,1188.37258 L97.6085494,1188.37258 L97.6085494,1193.14148 Z M95.1051386,1193.14148 L94.0981838,1193.14148 L94.0981838,1190.61496 C94.0981838,1190.15033 94.0132254,1189.80345 93.8452896,1189.58489 C93.6804351,1189.37051 93.4286414,1189.26619 93.0756019,1189.26619 C92.6913083,1189.26619 92.4221267,1189.38944 92.2528703,1189.64256 C92.0781113,1189.90382 91.9898515,1190.34886 91.9898515,1190.96579 L91.9898515,1193.14148 L90.9872986,1193.14148 L90.9872986,1188.37236 L91.9566165,1188.37236 L91.9566165,1188.75952 C92.0952791,1188.62636 92.2438462,1188.52269 92.4014374,1188.44962 C92.619776,1188.34859 92.8717898,1188.29731 93.1506558,1188.29731 C93.7746377,1188.29731 94.2621579,1188.48527 94.5997904,1188.85658 C94.935442,1189.22503 95.1051386,1189.75613 95.1051386,1190.43536 L95.1051386,1193.14148 Z M88.5675256,1191.6525 C88.4521935,1191.95888 88.2866787,1192.23137 88.076924,1192.46159 C87.8359151,1192.72527 87.5614512,1192.9282 87.2610154,1193.06466 C86.9599194,1193.20156 86.6348326,1193.27068 86.2956594,1193.27068 C85.9485626,1193.27068 85.6234758,1193.20729 85.3303033,1193.08205 C85.0364706,1192.95725 84.7697101,1192.76995 84.5368449,1192.52564 C84.3158651,1192.29255 84.1404459,1192.01853 84.0160897,1191.71039 C83.8910732,1191.40203 83.8274645,1191.08267 83.8274645,1190.7611 C83.8274645,1190.42567 83.8853507,1190.10807 83.9982617,1189.81688 C84.1120531,1189.52524 84.2819698,1189.25936 84.5033898,1189.0265 C84.7393364,1188.7725 85.0113793,1188.57309 85.3109346,1188.43487 C85.9307346,1188.14852 86.6416557,1188.17317 87.2130338,1188.41264 C87.507967,1188.53656 87.7782491,1188.72144 88.0155163,1188.96223 C88.2486015,1189.2006 88.4297434,1189.47264 88.5545397,1189.77088 C88.679116,1190.06955 88.7427247,1190.38319 88.7427247,1190.70256 C88.7427247,1191.02676 88.6841783,1191.34657 88.5675256,1191.6525 Z M81.5582395,1193.14148 L80.5889217,1193.14148 L80.5889217,1192.77193 C80.4577424,1192.90399 80.3146778,1193.00854 80.1625891,1193.08425 C79.9468917,1193.19144 79.7025813,1193.2458 79.4367012,1193.2458 C78.8338489,1193.2458 78.3593145,1193.05454 78.0265242,1192.67729 C77.6959349,1192.30334 77.5282191,1191.77378 77.5282191,1191.10358 L77.5282191,1188.37236 L78.5305519,1188.37236 L78.5305519,1190.86565 C78.5305519,1191.33996 78.6137495,1191.69807 78.7777235,1191.92983 C78.9368554,1192.15477 79.1714814,1192.26438 79.4950275,1192.26438 C79.6950979,1192.26438 79.8751392,1192.21728 80.0305294,1192.12418 C80.1854794,1192.03152 80.310716,1191.89615 80.4031577,1191.72228 C80.4592831,1191.61443 80.5006618,1191.48303 80.525533,1191.33138 C80.5508445,1191.17643 80.5640504,1190.91803 80.5640504,1190.56455 L80.5640504,1188.37236 L81.5582395,1188.37236 L81.5582395,1193.14148 Z M75.9349194,1187.87978 L74.7992064,1187.87978 L74.7992064,1193.14148 L73.7425091,1193.14148 L73.7425091,1187.87978 L72.606576,1187.87978 L72.606576,1186.88603 L75.9349194,1186.88603 L75.9349194,1187.87978 Z M150.218253,1185 L68.9020827,1185 C68.7271037,1185 68.5855797,1185.1413 68.5855797,1185.31518 L68.5855797,1194.84153 C68.5855797,1195.0154 68.7271037,1195.15693 68.9020827,1195.15693 L150.218253,1195.15693 C150.392352,1195.15693 150.533656,1195.0154 150.533656,1194.84153 L150.533656,1185.31518 C150.533656,1185.1413 150.392352,1185 150.218253,1185 Z M86.2872956,1189.22459 C85.8796715,1189.22459 85.5477616,1189.36677 85.2715368,1189.65862 C84.9977331,1189.94783 84.8592906,1190.31584 84.8592906,1190.75252 C84.8592906,1191.18677 84.9977331,1191.5528 85.2715368,1191.84091 C85.5477616,1192.13122 85.8825328,1192.27253 86.2956594,1192.27253 C86.7002021,1192.27253 87.0294709,1192.13078 87.3023941,1191.83871 C87.5735566,1191.5495 87.7111188,1191.18149 87.7111188,1190.74437 C87.7111188,1190.30506 87.5739968,1189.93749 87.3028343,1189.65202 C87.0299111,1189.36457 86.6973408,1189.22459 86.2872956,1189.22459 Z M135.197789,1189.22459 C134.790164,1189.22459 134.458034,1189.36677 134.18181,1189.65862 C133.908006,1189.94783 133.769343,1190.31584 133.769343,1190.75252 C133.769343,1191.18677 133.908006,1191.5528 134.18181,1191.84091 C134.458034,1192.13122 134.792806,1192.27253 135.205932,1192.27253 C135.610475,1192.27253 135.939964,1192.13078 136.212887,1191.83871 C136.483609,1191.5495 136.621171,1191.18149 136.621171,1190.74437 C136.621171,1190.30506 136.48405,1189.93749 136.213107,1189.65202 C135.940184,1189.36457 135.607614,1189.22459 135.197789,1189.22459 Z M103.407509,1189.23295 C102.999004,1189.23295 102.645084,1189.37866 102.356754,1189.66655 C102.063362,1189.9584 101.920737,1190.30572 101.920737,1190.72765 C101.920737,1191.16675 102.067764,1191.53937 102.357414,1191.83541 C102.646185,1192.13122 103.005167,1192.28111 103.423796,1192.28111 C103.804128,1192.28111 104.144622,1192.13034 104.436694,1191.83343 C104.728766,1191.53563 104.877113,1191.18325 104.877113,1190.78641 C104.877113,1190.36096 104.730086,1189.99141 104.439995,1189.68812 C104.146603,1189.38174 103.80919,1189.23295 103.407509,1189.23295 Z M134.452532,1204.98745 L137.287192,1204.98745 C137.462832,1204.98745 137.598633,1204.83052 137.562317,1204.65884 C137.28257,1203.33692 136.737604,1201.68552 135.890001,1199.87916 C135.844,1199.781 135.743415,1199.71607 135.635126,1199.71607 L133.126873,1199.71607 C132.932525,1199.71607 132.802226,1199.91504 132.871998,1200.09662 C133.613513,1202.02689 134.039625,1203.63252 134.180929,1204.74974 C134.198317,1204.88862 134.312549,1204.98745 134.452532,1204.98745 Z M131.997543,1220.08847 C131.997543,1219.87431 131.764898,1219.74071 131.580234,1219.84944 C131.310393,1220.00791 131.028225,1220.17343 130.759264,1220.3297 C130.57416,1220.43689 130.342615,1220.30395 130.342615,1220.09001 L130.342615,1216.21208 C130.342615,1216.05911 130.466752,1215.93497 130.619721,1215.93497 L132.382277,1215.93497 C132.535466,1215.93497 132.659382,1215.81084 132.659382,1215.65787 L132.659382,1213.67455 C132.659382,1213.52158 132.535466,1213.39745 132.382277,1213.39745 L130.61796,1213.39745 C130.465651,1213.39745 130.341735,1213.27463 130.340635,1213.12232 L130.321046,1210.25751 C130.319945,1210.10366 130.444521,1209.97842 130.598151,1209.97842 L131.720438,1209.97842 C131.873407,1209.97842 131.997543,1209.85429 131.997543,1209.70132 L131.997543,1207.82805 C131.997543,1207.67508 131.873407,1207.55095 131.720438,1207.55095 L125.410628,1207.55095 C125.257659,1207.55095 125.133522,1207.67508 125.133522,1207.82805 L125.133522,1209.70132 C125.133522,1209.85429 125.257659,1209.97842 125.410628,1209.97842 L126.513106,1209.97842 C126.665414,1209.97842 126.78911,1210.10146 126.790211,1210.25355 L126.8098,1213.11836 C126.8109,1213.27221 126.686544,1213.39745 126.532474,1213.39745 L124.992219,1213.39745 C124.83925,1213.39745 124.715334,1213.52158 124.715334,1213.67455 L124.715334,1215.65787 C124.715334,1215.81084 124.83925,1215.93497 124.992219,1215.93497 L126.534455,1215.93497 C126.687644,1215.93497 126.811781,1216.05911 126.811781,1216.21208 L126.811781,1224.57388 C126.811781,1224.76998 127.013832,1224.90424 127.195854,1224.83183 C129.219668,1224.02517 130.83872,1223.19385 131.884852,1222.44419 C131.958365,1222.39159 131.997543,1222.30839 131.997543,1222.21815 L131.997543,1220.08847 Z M150.256551,1222.45916 L140.82397,1222.45916 C138.690106,1222.45916 137.624385,1220.8641 137.624385,1218.58321 L137.624385,1207.83553 C137.624385,1207.68235 137.500469,1207.55843 137.347279,1207.55843 L133.046757,1207.55843 C132.893788,1207.55843 132.769432,1207.68235 132.769432,1207.83553 L132.769432,1209.70858 C132.769432,1209.86177 132.893788,1209.98591 133.046757,1209.98591 L133.816665,1209.98591 C133.969854,1209.98591 134.09399,1210.10982 134.09399,1210.26301 L134.09399,1218.91424 C134.09399,1220.6768 133.450859,1221.83188 132.16878,1222.37706 C132.067314,1222.41998 131.997543,1222.51595 131.997543,1222.626 L131.997543,1224.62362 C131.997543,1224.8052 132.174943,1224.94188 132.350362,1224.895 C133.87367,1224.4898 134.965804,1223.83038 135.626322,1222.91829 C135.744736,1222.75497 135.97496,1222.75343 136.089631,1222.91939 C136.933713,1224.14028 138.327382,1225.0625 140.272621,1224.99669 L150.256551,1224.99669 C150.40952,1224.99669 150.533656,1224.87255 150.533656,1224.71958 L150.533656,1222.73627 C150.533656,1222.5833 150.40952,1222.45916 150.256551,1222.45916 Z M143.141177,1209.47902 C143.141177,1209.63221 143.01704,1209.75634 142.864071,1209.75634 L141.706789,1209.75634 C142.220721,1208.72694 142.700097,1207.6599 143.141177,1206.55676 L143.141177,1209.47902 Z M150.256551,1202.14354 L144.944671,1202.14354 C144.760228,1202.14354 144.627288,1201.97099 144.678571,1201.79337 C144.834401,1201.25104 144.990672,1200.66139 145.146722,1200.06404 C145.192723,1199.88841 145.060223,1199.71607 144.878641,1199.71607 L141.816618,1199.71607 C141.685439,1199.71607 141.572968,1199.80675 141.545456,1199.93485 C141.44443,1200.40762 141.252283,1201.4346 141.181852,1201.91134 C141.162043,1202.04692 141.04583,1202.14354 140.908708,1202.14354 L138.674259,1202.14354 C138.52107,1202.14354 138.396934,1202.26746 138.396934,1202.42065 L138.396934,1204.51423 C138.396934,1204.6672 138.52107,1204.79134 138.674259,1204.79134 L140.125594,1204.79134 C140.309818,1204.79134 140.44804,1204.96214 140.397637,1205.13932 C140.024349,1206.44759 139.440425,1207.96847 138.643005,1209.70088 C138.626497,1209.73653 138.617473,1209.77659 138.617473,1209.81577 L138.617473,1212.01676 C138.617473,1212.16995 138.741389,1212.29387 138.894578,1212.29387 L142.864071,1212.29387 C143.01704,1212.29387 143.141177,1212.418 143.141177,1212.57119 L143.141177,1214.77505 C143.141177,1214.92824 143.01704,1215.05237 142.864071,1215.05237 L138.784529,1215.05237 C138.631119,1215.05237 138.507203,1215.17651 138.507203,1215.32948 L138.507203,1217.31324 C138.507203,1217.46621 138.631119,1217.59034 138.784529,1217.59034 L142.864071,1217.59034 C143.01704,1217.59034 143.141177,1217.71448 143.141177,1217.86745 L143.141177,1221.24333 C143.141177,1221.3963 143.265313,1221.52044 143.418282,1221.52044 L146.394686,1221.52044 C146.547655,1221.52044 146.671571,1221.3963 146.671571,1221.24333 L146.671571,1217.86745 C146.671571,1217.71448 146.795927,1217.59034 146.948896,1217.59034 L150.256551,1217.59034 C150.40952,1217.59034 150.533656,1217.46621 150.533656,1217.31324 L150.533656,1215.32948 C150.533656,1215.17651 150.40952,1215.05237 150.256551,1215.05237 L146.948896,1215.05237 C146.795927,1215.05237 146.671571,1214.92824 146.671571,1214.77505 L146.671571,1212.57119 C146.671571,1212.418 146.795927,1212.29387 146.948896,1212.29387 L149.484002,1212.29387 C149.636971,1212.29387 149.761107,1212.16995 149.761107,1212.01676 L149.761107,1210.03345 C149.761107,1209.88048 149.636971,1209.75634 149.484002,1209.75634 L146.948896,1209.75634 C146.795927,1209.75634 146.671571,1209.63221 146.671571,1209.47902 L146.671571,1206.39234 C146.671571,1206.23937 146.547655,1206.11524 146.394686,1206.11524 L143.251226,1206.11524 L143.732143,1204.9617 C143.775063,1204.85869 143.875868,1204.79134 143.987899,1204.79134 L150.256551,1204.79134 C150.40952,1204.79134 150.533656,1204.6672 150.533656,1204.51423 L150.533656,1202.42065 C150.533656,1202.26746 150.40952,1202.14354 150.256551,1202.14354 Z M19.8339986,1219.25539 L19.8339986,1217.27626 C19.8339986,1217.09336 19.6612206,1216.96394 19.4844807,1217.01192 C17.1135698,1217.65483 14.7133856,1217.95571 12.2812871,1217.91367 C12.1265572,1217.91103 12,1218.0334 12,1218.18791 L12,1220.68912 C12,1220.85376 12.1474666,1220.98361 12.3114407,1220.96821 C15.3730236,1220.68054 17.8198688,1220.1972 19.6541774,1219.51973 C19.7648874,1219.47901 19.8339986,1219.37337 19.8339986,1219.25539 Z M36.9399054,1207.57186 L34.1743562,1207.57186 C34.0643065,1207.57186 33.9672426,1207.63877 33.923883,1207.74001 C33.0769405,1209.71584 31.4541475,1211.14429 29.6110349,1212.02513 C29.4268117,1212.11317 29.2122148,1211.97208 29.2122148,1211.76783 L29.2122148,1207.82849 C29.2122148,1207.67464 29.0874184,1207.54963 28.9333488,1207.54963 L25.8501961,1207.54963 C25.6961265,1207.54963 25.5711101,1207.67464 25.5711101,1207.82849 L25.5711101,1221.13196 C25.4973768,1223.7802 26.7849584,1225.06624 29.4329745,1224.99361 L33.6254282,1224.99361 C36.0531248,1225.06624 37.2286758,1223.92678 37.1564832,1221.57304 L37.1564832,1219.97644 C37.1564832,1219.82237 37.0316868,1219.69735 36.8776172,1219.69735 L34.3462538,1219.69735 C34.1919641,1219.69735 34.0671678,1219.82237 34.0671678,1219.97644 L34.0671678,1221.02169 C34.0671678,1222.05264 33.5875711,1222.56657 32.6325597,1222.56657 L30.9778523,1222.56657 C29.7998802,1222.6403 29.2122148,1221.97824 29.2122148,1220.58017 L29.2122148,1215.08165 C29.2122148,1214.94915 29.3083982,1214.83756 29.438477,1214.81247 C33.3899218,1214.05444 36.1933281,1211.75991 37.2148095,1207.9282 C37.2621309,1207.7508 37.1234683,1207.57186 36.9399054,1207.57186 Z M37.0979368,1201.7018 L33.2426753,1201.7018 C33.0886057,1201.7018 32.9635893,1201.57701 32.9635893,1201.42294 L32.9635893,1199.99515 C32.9635893,1199.84108 32.8387929,1199.71607 32.6847233,1199.71607 L29.0500015,1199.71607 C28.896152,1199.71607 28.7711355,1199.84108 28.7711355,1199.99515 L28.7711355,1201.42294 C28.7711355,1201.57701 28.6461191,1201.7018 28.4922696,1201.7018 L24.6363478,1201.7018 C24.4822783,1201.7018 24.3574819,1201.82682 24.3574819,1201.98089 L24.3574819,1206.38794 C24.3574819,1206.54201 24.4822783,1206.66703 24.6363478,1206.66703 L27.6094508,1206.66703 C27.7633003,1206.66703 27.8885369,1206.54201 27.8885369,1206.38794 L27.8885369,1204.7394 C27.8885369,1204.58533 28.0133332,1204.46031 28.1674028,1204.46031 L33.6778119,1204.46031 C33.8316614,1204.46031 33.9564577,1204.58533 33.9564577,1204.7394 L33.9564577,1206.38794 C33.9564577,1206.54201 34.0814742,1206.66703 34.2355438,1206.66703 L37.0979368,1206.66703 C37.2520063,1206.66703 37.3768027,1206.54201 37.3768027,1206.38794 L37.3768027,1201.98089 C37.3768027,1201.82682 37.2520063,1201.7018 37.0979368,1201.7018 Z M19.0158891,1208.32416 C18.8096559,1207.01522 18.5195649,1205.92969 18.1458361,1205.06712 C18.1011559,1204.96412 17.9988097,1204.90183 17.886559,1204.90183 L15.9195305,1204.90183 C15.7298048,1204.90183 15.5979652,1205.08077 15.6567317,1205.26147 C15.9483635,1206.16036 16.1898125,1207.21089 16.3801985,1208.4144 C16.4015482,1208.54932 16.5173205,1208.6532 16.6537821,1208.6532 L18.7383437,1208.6532 C18.9098012,1208.6532 19.0425211,1208.49363 19.0158891,1208.32416 Z M24.0264524,1212.9042 C24.0264524,1212.75013 23.901656,1212.62534 23.7475864,1212.62534 L17.2960322,1212.62534 C16.3394801,1212.69907 15.1291534,1212.22168 15.2033269,1211.19073 L15.2033269,1204.2981 C15.2033269,1204.14403 15.3281233,1204.01901 15.482413,1204.01901 L19.3376744,1204.01901 C19.4915239,1204.01901 19.6167605,1204.14403 19.6167605,1204.2981 L19.6167605,1208.21168 C19.6893933,1209.02209 19.285731,1209.42531 18.4033524,1209.42531 L17.2427682,1209.42531 C17.0886986,1209.42531 16.9639022,1209.55011 16.9639022,1209.70418 L16.9639022,1211.46365 C16.9639022,1211.61772 17.0886986,1211.74252 17.2427682,1211.74252 L19.3962209,1211.74252 C21.7493038,1211.89065 22.8524421,1210.71333 22.7060759,1208.21168 L22.7060759,1201.76013 C22.7060759,1201.60606 22.5812796,1201.48126 22.4269899,1201.48126 L19.0728948,1201.48126 C18.8928535,1201.48126 18.7599135,1201.31553 18.8008519,1201.14033 C18.8723843,1200.83131 18.9879365,1200.38407 19.0744355,1200.06735 C19.1226373,1199.89039 18.9883767,1199.71607 18.8048137,1199.71607 L15.4368524,1199.71607 C15.3021516,1199.71607 15.1876999,1199.80807 15.1630488,1199.94035 C15.090636,1200.3308 14.9711221,1200.92926 14.9103746,1201.25456 C14.8857235,1201.38684 14.7708316,1201.48126 14.6363508,1201.48126 L12.2826077,1201.48126 C12.1287582,1201.48126 12.0037417,1201.60606 12.0037417,1201.76013 L12.0037417,1211.85279 C11.9295682,1214.20785 12.9587531,1215.34731 15.0932772,1215.27313 L20.3272414,1215.27313 C20.481311,1215.27313 20.6061074,1215.39815 20.6061074,1215.552 L20.6061074,1221.01289 C20.6785201,1222.04361 20.1650281,1222.55754 19.0614497,1222.55754 L16.8030095,1222.55754 C16.6487198,1222.55754 16.5239235,1222.68234 16.5239235,1222.83641 L16.5239235,1224.70594 C16.5239235,1224.86 16.6487198,1224.98502 16.8030095,1224.98502 L20.3853477,1224.98502 C22.9591903,1225.13139 24.1730386,1223.91776 24.0264524,1221.34392 L24.0264524,1212.9042 Z M124.949739,1207.03459 C126.295647,1206.71655 127.404508,1206.071 128.277202,1205.10102 C128.328045,1205.04467 128.399138,1205.01144 128.475072,1205.01144 L132.382277,1205.01144 C132.535466,1205.01144 132.659382,1204.88752 132.659382,1204.73433 L132.659382,1202.75102 C132.659382,1202.59783 132.535466,1202.47391 132.382277,1202.47391 L130.15355,1202.47391 C129.974829,1202.47391 129.840349,1202.30708 129.883708,1202.13386 C130.038438,1201.51516 130.173139,1200.7272 130.288691,1200.03719 C130.317084,1199.86838 130.186565,1199.71607 130.015328,1199.71607 L127.166141,1199.71607 C127.026598,1199.71607 126.911706,1199.82149 126.895198,1199.96038 C126.649567,1202.01809 125.916196,1203.85878 124.695525,1204.93396 C124.638079,1204.98459 124.605064,1205.0548 124.605064,1205.13161 L124.605064,1206.75859 C124.605064,1206.93709 124.776081,1207.07553 124.949739,1207.03459 Z M75.6201773,1218.58343 C75.5255345,1218.62393 75.4621459,1218.71659 75.4621459,1218.81916 L75.4621459,1220.85309 C75.4621459,1221.03468 75.6492304,1221.16145 75.8191471,1221.09785 C78.9921004,1219.91305 81.4070312,1218.44213 83.0637195,1217.38499 C83.1486779,1217.33084 83.2475025,1217.33084 83.3322408,1217.38499 C84.9812257,1218.43816 87.3770078,1219.89962 90.2528269,1220.98758 C90.4229637,1221.05206 90.6089477,1220.92441 90.6089477,1220.74238 L90.6089477,1218.70757 C90.6089477,1218.6061 90.5479802,1218.5152 90.4550982,1218.47404 C88.5120605,1217.61411 86.8758415,1216.38926 85.7938327,1215.52009 C85.6723378,1215.42258 85.6701368,1215.24936 85.7826076,1215.14174 C87.7500764,1213.25636 89.3273088,1210.22009 90.5118839,1206.64656 C90.567569,1206.4784 90.441232,1206.30166 90.2638318,1206.30166 L86.9924942,1206.30166 C86.8820042,1206.30166 86.7845002,1206.37231 86.7490642,1206.47686 C85.9019015,1208.97455 84.7853372,1211.36527 83.4006917,1213.03913 C83.2963646,1213.16502 83.0993756,1213.16502 82.9952686,1213.03935 C81.6090825,1211.36549 80.4927382,1208.97455 79.646676,1206.47686 C79.61124,1206.37231 79.513736,1206.30166 79.4032461,1206.30166 L76.1321285,1206.30166 C75.9549485,1206.30166 75.8283913,1206.4784 75.8840765,1206.64656 C77.0686516,1210.22009 78.6443433,1213.25636 80.6131326,1215.14151 C80.7256034,1215.24936 80.7236225,1215.42258 80.6019075,1215.52009 C79.5143963,1216.39212 77.8546266,1217.62776 75.6201773,1218.58343 Z M65.8662514,1212.23598 L49.7058918,1212.23598 C48.6998173,1212.23598 47.884349,1211.42051 47.884349,1210.41466 L47.884349,1204.40617 C47.884349,1204.2532 48.0084851,1204.12928 48.1612341,1204.12928 L59.0823471,1204.12928 C59.2353162,1204.12928 59.3592322,1204.2532 59.3592322,1204.40617 L59.3592322,1206.66703 C59.3592322,1207.69819 58.8800758,1208.21168 57.9250644,1208.21168 L56.8214859,1208.21168 L56.8214859,1210.58304 C56.8214859,1210.736 56.9454019,1210.85992 57.098371,1210.85992 L59.5799919,1210.85992 C62.079661,1210.93409 63.2932892,1209.72047 63.2210966,1207.2186 L63.2210966,1201.64766 C63.2210966,1201.49491 63.0971806,1201.37099 62.9442115,1201.37099 L54.3959903,1201.37099 C54.2183701,1201.37099 54.0860903,1201.20592 54.1248278,1201.03226 C54.1882164,1200.74657 54.2784572,1200.46705 54.3946697,1200.09398 C54.4499147,1199.91592 54.3171947,1199.7339 54.1305504,1199.7339 L49.854679,1199.7339 C49.732964,1199.7339 49.624455,1199.81973 49.5885788,1199.93617 C49.4334087,1200.44129 49.3191771,1200.77585 49.2474247,1201.14055 C49.2212329,1201.27283 49.1098625,1201.37099 48.9749416,1201.37099 L43.9685602,1201.37099 C43.8158112,1201.37099 43.6921153,1201.49491 43.6921153,1201.64766 L43.6921153,1211.24311 C43.6921153,1213.81872 44.9055234,1215.06866 47.3327798,1214.99449 L61.7834072,1214.99449 C61.9361562,1214.99449 62.0602923,1215.1184 62.0602923,1215.27115 L62.0602923,1220.69066 C62.1329251,1221.94237 61.5087231,1222.53003 60.1843849,1222.4563 L55.7174672,1222.4563 C55.5644981,1222.4563 55.4405821,1222.58022 55.4405821,1222.73296 L55.4405821,1224.71716 C55.4405821,1224.86991 55.5644981,1224.99383 55.7174672,1224.99383 L61.8397526,1224.99383 C64.7807211,1225.06624 66.215109,1223.7802 66.1426963,1221.13196 L66.1426963,1212.51287 C66.1426963,1212.3599 66.0190004,1212.23598 65.8662514,1212.23598 Z M59.6900416,1219.40968 L59.6900416,1217.20473 C59.6900416,1217.05198 59.5663457,1216.92806 59.4133767,1216.92806 L42.2753354,1216.92806 C42.1223663,1216.92806 41.9984503,1217.05198 41.9984503,1217.20473 L41.9984503,1219.40968 C41.9984503,1219.56243 42.1223663,1219.68635 42.2753354,1219.68635 L59.4133767,1219.68635 C59.5663457,1219.68635 59.6900416,1219.56243 59.6900416,1219.40968 Z M116.399978,1212.01918 C116.399978,1212.17083 116.276942,1212.29387 116.125293,1212.29387 L113.544408,1212.29387 L113.544408,1206.05889 C113.544408,1205.90724 113.667223,1205.78421 113.819092,1205.78421 L116.125293,1205.78421 C116.276942,1205.78421 116.399978,1205.90724 116.399978,1206.05889 L116.399978,1212.01918 Z M121.434312,1212.29387 L120.266244,1212.29387 C120.114595,1212.29387 119.99156,1212.17083 119.99156,1212.01918 L119.99156,1203.30061 C119.99156,1203.14896 119.868524,1203.02592 119.716876,1203.02592 L113.819092,1203.02592 C113.667223,1203.02592 113.544408,1202.90289 113.544408,1202.75124 L113.544408,1199.99075 C113.544408,1199.8391 113.421152,1199.71607 113.269724,1199.71607 L109.736688,1199.71607 C109.584819,1199.71607 109.462004,1199.8391 109.462004,1199.99075 L109.462004,1202.75124 C109.462004,1202.90289 109.338968,1203.02592 109.18732,1203.02592 L105.764554,1203.02592 C105.612905,1203.02592 105.489869,1203.14896 105.489869,1203.30061 L105.489869,1205.50952 C105.489869,1205.66117 105.612905,1205.78421 105.764554,1205.78421 L109.18732,1205.78421 C109.338968,1205.78421 109.462004,1205.90724 109.462004,1206.05889 L109.462004,1212.29387 L104.661415,1212.29387 C104.509767,1212.29387 104.386731,1212.4169 104.386731,1212.56855 L104.386731,1214.77769 C104.386731,1214.92934 104.509767,1215.05237 104.661415,1215.05237 L108.757025,1215.05237 C108.942569,1215.05237 109.081672,1215.23374 109.025767,1215.4107 C108.221743,1217.95593 106.240629,1220.26411 103.083522,1222.19394 C103.003186,1222.24302 102.952343,1222.33084 102.952343,1222.42482 L102.952343,1224.63925 C102.952343,1224.83007 103.147131,1224.96477 103.326512,1224.89984 C107.331221,1223.45445 110.076301,1221.39718 111.564613,1218.85877 C111.6674,1218.68291 111.905107,1218.67389 112.020439,1218.84205 C113.720927,1221.32213 116.752577,1223.32525 121.116268,1224.8545 C121.295429,1224.91745 121.488456,1224.78341 121.488456,1224.59368 L121.488456,1222.49504 C121.488456,1222.39577 121.432331,1222.30399 121.345391,1222.25623 C117.575308,1220.17629 115.170502,1217.90134 114.133394,1215.43095 C114.05812,1215.25134 114.198543,1215.05237 114.393331,1215.05237 L121.434312,1215.05237 C121.58618,1215.05237 121.708996,1214.92934 121.708996,1214.77769 L121.708996,1212.56855 C121.708996,1212.4169 121.58618,1212.29387 121.434312,1212.29387 Z M52.6255106,1205.54452 C51.4849554,1205.54452 50.5576765,1206.49315 50.5576765,1207.65902 C50.5576765,1208.82488 51.4849554,1209.77175 52.6255106,1209.77175 C53.7698074,1209.77175 54.696426,1208.82488 54.696426,1207.65902 C54.696426,1207.56393 54.6792582,1207.47611 54.6689136,1207.38653 C54.6108073,1207.39225 54.561285,1207.42087 54.5020782,1207.42087 C53.8010616,1207.42087 53.2334252,1206.85125 53.2334252,1206.15045 C53.2334252,1205.98252 53.2695215,1205.82471 53.3307091,1205.6779 C53.1097293,1205.59404 52.8753234,1205.54452 52.6255106,1205.54452 Z M91.8091498,1201.37099 L70.4614871,1201.37099 C70.3179823,1201.37099 70.2019899,1201.48699 70.2019899,1201.63027 L70.2019899,1221.38375 C70.1324385,1223.85943 71.3704977,1225.06162 73.9150671,1224.99405 L91.8091498,1224.99405 C91.9522145,1224.99405 92.068427,1224.87783 92.068427,1224.73455 L92.068427,1222.88087 C92.068427,1222.73759 91.9522145,1222.62137 91.8091498,1222.62137 L76.237336,1222.62137 C75.125834,1222.62137 74.2245269,1221.72029 74.2245269,1220.60856 L74.2245269,1204.31196 C74.2245269,1204.16868 74.3407394,1204.05269 74.4840241,1204.05269 L91.8091498,1204.05269 C91.9522145,1204.05269 92.068427,1203.93647 92.068427,1203.79319 L92.068427,1201.63027 C92.068427,1201.48699 91.9522145,1201.37099 91.8091498,1201.37099 Z M105.04879,1219.72861 L105.04879,1217.51815 C105.04879,1217.33326 104.864567,1217.20297 104.688047,1217.25733 C104.021586,1217.46202 103.412131,1217.64735 102.860122,1217.81374 C102.683822,1217.86679 102.511044,1217.73319 102.511044,1217.54896 L102.511044,1207.81925 C102.511044,1207.6676 102.634079,1207.54456 102.785728,1207.54456 L104.553126,1207.54456 C104.704995,1207.54456 104.82781,1207.42153 104.82781,1207.26966 L104.82781,1205.27314 C104.82781,1205.12149 104.704995,1204.99845 104.553126,1204.99845 L102.785728,1204.99845 C102.634079,1204.99845 102.511044,1204.87542 102.511044,1204.72355 L102.511044,1199.99053 C102.511044,1199.83866 102.388008,1199.71585 102.23636,1199.71585 L98.9240837,1199.71585 C98.7722151,1199.71585 98.6491795,1199.83866 98.6491795,1199.99053 L98.6491795,1204.72355 C98.6491795,1204.87542 98.5261439,1204.99845 98.3744954,1204.99845 L96.4966072,1204.99845 C96.3447386,1204.99845 96.2219231,1205.12149 96.2219231,1205.27314 L96.2219231,1207.26966 C96.2219231,1207.42153 96.3447386,1207.54456 96.4966072,1207.54456 L98.3744954,1207.54456 C98.5261439,1207.54456 98.6491795,1207.6676 98.6491795,1207.81925 L98.6491795,1218.55614 C98.6491795,1218.6959 98.5496946,1218.81145 98.4105917,1218.82664 C97.8072992,1218.89223 97.1569054,1218.98137 96.4587501,1219.09384 C96.3251497,1219.11519 96.2219231,1219.23228 96.2219231,1219.36764 L96.2219231,1222.22696 C96.2219231,1222.39731 96.3784138,1222.52871 96.5463496,1222.5012 C99.657675,1221.99167 102.438411,1221.15155 104.890979,1219.98062 C104.988043,1219.9344 105.04879,1219.83602 105.04879,1219.72861 Z" id="鸵鸟logo"></path>
        </g>
    </g>
</svg>