<?xml version="1.0" encoding="UTF-8"?>
<svg width="200px" height="200px" viewBox="0 0 200 200" version="1.1" xmlns="http://www.w3.org/2000/svg" xmlns:xlink="http://www.w3.org/1999/xlink">
    <!-- Generator: Sketch 49.3 (51167) - http://www.bohemiancoding.com/sketch -->
    <title>默认头像</title>
    <desc>Created with Sketch.</desc>
    <defs></defs>
    <g id="主要页面" stroke="none" stroke-width="1" fill="none" fill-rule="evenodd">
        <g id="切图" transform="translate(-10.000000, -1240.000000)">
            <g id="蓝直角默认头像" transform="translate(10.000000, 1240.000000)">
                <g id="Combined-Shape">
                    <polygon fill="#349DFF" points="0 0 200 0 200 200 0 200"></polygon>
                    <path d="M154.838889,121.344444 L154.838889,88.6388889 C163.516667,87.9 171.355556,95.6333333 171.45,104.733333 C171.527778,114.066667 163.822222,121.905556 154.838889,121.344444 Z M146.833333,132.816667 C146.833333,138.144444 145.633333,139.244444 140.183333,139.261111 C136.055556,139.272222 64.7055556,139.338889 58.6277778,139.283333 C54.55,139.25 53.1833333,137.9 53.1833333,133.922222 C53.1611111,114.65 53.1611111,95.3666667 53.1833333,76.0833333 C53.1833333,71.8944444 54.4833333,70.6888889 58.8833333,70.6888889 C71.9166667,70.6666667 84.9555556,70.6888889 98.5444444,70.6888889 C98.5444444,65.0555556 98.6,64.1 98.45,58.6611111 C98.4277778,58.0722222 97.2666667,57.3666667 96.5277778,56.9388889 C92.3888889,54.6388889 90.5777778,50.9444444 91.7,46.8444444 C92.8166667,42.2444444 97.4611111,39.4166667 102.066667,40.5333333 C105.227778,41.3055556 107.683333,43.7944444 108.405556,46.9666667 C109.427778,51.1555556 107.572222,54.7777778 103.438889,57.0277778 C102.566667,57.5166667 101.405556,58.5611111 101.388889,59.3666667 C101.194444,64.4833333 101.294444,65.1055556 101.294444,70.65 L140.688889,70.65 C145.594444,70.65 146.811111,71.8 146.833333,76.7833333 C146.866667,95.4666667 146.866667,114.144444 146.833333,132.816667 Z M44.9777778,121.455814 C35.9944444,121.505556 28.6555556,114.294444 28.5611111,105.311111 C28.3833333,95.95 35.3555556,88.6777778 44.9777778,88.4222222 L44.9777778,121.455814 Z M78.6888889,96.3444444 C78.65,96.3444444 78.6111111,96.35 78.5666667,96.35 C73.9388889,96.3222222 70.1666667,100.05 70.1333333,104.677778 L70.1333333,104.683333 C70.1333333,104.827778 70.1388889,104.983333 70.1444444,105.127778 C70.1777778,109.861111 74.0388889,113.672222 78.7722222,113.638889 L78.9166667,113.638889 C83.7,113.488889 87.4944444,109.555556 87.4722222,104.766667 C87.3722222,100.016667 83.4388889,96.2444444 78.6888889,96.3444444 Z M121.733333,96.3888889 C121.622222,96.3833333 121.511111,96.3833333 121.4,96.3888889 C116.661111,96.2777778 112.727778,100.033333 112.622222,104.777778 L112.622222,104.783333 L112.622222,104.894444 C112.683333,109.666667 116.511111,113.538889 121.277778,113.655556 C126.066667,113.65 129.955556,109.8 130.016667,105.022222 C130.111111,100.35 126.405556,96.4777778 121.733333,96.3888889 Z" fill="#FFFFFF"></path>
                </g>
            </g>
        </g>
    </g>
</svg>